<svg id="svg" version="1.1" xmlns="http://www.w3.org/2000/svg" xmlns:xlink="http://www.w3.org/1999/xlink" width="400" height="400" viewBox="0, 0, 400,400"><g id="svgg"><path id="path0" d="M255.583 58.179 C 242.877 59.190,230.399 63.340,221.083 69.656 L 220.583 69.995 220.559 76.872 C 220.536 83.489,220.445 85.430,219.925 90.333 C 219.581 93.586,218.980 97.666,218.428 100.500 C 218.294 101.188,218.109 102.149,218.017 102.637 C 217.820 103.682,217.377 105.675,217.158 106.500 C 217.073 106.821,216.810 107.871,216.573 108.833 C 215.599 112.790,214.863 115.322,213.305 120.079 C 212.693 121.945,211.376 125.638,211.162 126.083 C 210.838 126.759,210.528 127.806,210.624 127.902 C 210.678 127.956,210.643 128.000,210.546 128.000 C 210.393 128.000,210.146 128.595,210.200 128.833 C 210.211 128.879,210.019 129.292,209.775 129.750 L 209.330 130.583 210.457 130.703 C 211.076 130.769,215.596 130.941,220.500 131.086 C 225.404 131.230,232.979 131.455,237.333 131.586 C 245.105 131.820,262.151 132.319,262.692 132.329 C 263.015 132.334,263.453 131.342,263.548 130.391 C 263.567 130.194,263.625 130.057,263.675 130.089 C 263.726 130.120,263.863 129.794,263.981 129.364 C 264.098 128.935,264.259 128.433,264.338 128.250 C 264.416 128.067,264.532 127.657,264.595 127.339 C 264.658 127.021,264.773 126.646,264.851 126.505 C 264.929 126.365,265.082 125.912,265.191 125.500 C 265.300 125.087,265.411 124.675,265.438 124.583 C 265.731 123.581,266.696 119.924,267.109 118.250 C 268.190 113.867,269.142 108.813,269.584 105.103 C 269.725 103.923,269.868 102.910,269.902 102.853 C 270.470 101.907,270.479 85.278,269.912 84.329 C 269.883 84.280,269.775 83.605,269.671 82.829 C 268.404 73.325,265.076 65.262,260.534 60.691 C 259.482 59.633,257.483 57.972,257.323 58.023 C 257.283 58.036,256.500 58.106,255.583 58.179 M136.504 268.442 C 136.381 268.978,136.266 269.529,136.247 269.667 C 136.228 269.804,136.172 270.029,136.122 270.167 C 135.790 271.072,134.638 276.667,133.908 280.917 C 132.944 286.529,132.393 290.607,131.919 295.657 C 131.786 297.072,131.638 298.534,131.589 298.907 C 131.540 299.279,131.426 301.233,131.334 303.250 C 131.242 305.267,131.126 307.629,131.075 308.500 C 130.844 312.443,131.779 321.075,132.769 324.131 C 132.896 324.524,133.000 324.956,133.000 325.091 C 133.000 325.227,133.068 325.468,133.152 325.627 C 133.235 325.786,133.433 326.292,133.591 326.750 C 133.861 327.532,134.271 328.542,134.709 329.500 C 135.561 331.367,137.847 334.664,139.288 336.106 L 140.098 336.917 141.257 336.809 C 141.895 336.750,143.492 336.614,144.807 336.507 C 157.089 335.507,169.428 331.199,179.549 324.379 L 181.182 323.279 181.078 322.098 C 181.021 321.448,180.907 320.504,180.826 320.000 C 180.128 315.663,180.134 301.708,180.837 296.333 C 180.927 295.646,181.075 294.483,181.166 293.750 C 181.676 289.625,182.424 285.561,183.571 280.667 C 184.041 278.658,185.407 273.686,186.065 271.583 C 186.208 271.125,186.337 270.712,186.351 270.667 C 186.416 270.448,186.568 270.036,186.759 269.559 L 186.969 269.034 184.787 269.009 C 183.587 268.996,180.313 268.912,177.511 268.822 C 170.135 268.587,157.560 268.212,147.500 267.928 C 142.688 267.792,138.295 267.632,137.738 267.574 L 136.727 267.468 136.504 268.442 " stroke="none" fill="#909494" fill-rule="evenodd"></path><path id="path1" d="M80.417 4.177 C 79.867 4.252,78.592 4.397,77.583 4.499 C 72.837 4.979,66.079 6.393,62.500 7.656 C 62.271 7.737,61.521 7.974,60.833 8.183 C 60.146 8.392,59.512 8.624,59.425 8.698 C 59.338 8.772,59.162 8.833,59.034 8.833 C 58.905 8.833,58.564 8.935,58.275 9.058 C 57.986 9.182,57.300 9.451,56.750 9.656 C 55.618 10.078,55.497 10.129,54.000 10.805 C 53.404 11.074,52.542 11.460,52.083 11.662 C 50.400 12.406,47.825 13.748,45.583 15.048 C 44.148 15.881,41.447 17.546,41.333 17.668 C 41.287 17.717,40.537 18.239,39.667 18.828 C 38.098 19.889,35.994 21.440,35.833 21.655 C 35.787 21.716,35.487 21.946,35.167 22.167 C 34.846 22.387,34.546 22.614,34.500 22.670 C 34.454 22.727,33.554 23.516,32.500 24.423 C 30.426 26.207,26.641 29.942,25.167 31.656 C 24.662 32.243,24.072 32.916,23.855 33.153 C 23.638 33.390,22.965 34.221,22.360 35.000 C 21.754 35.779,21.213 36.454,21.156 36.500 C 21.099 36.546,20.766 36.996,20.417 37.500 C 20.067 38.004,19.732 38.454,19.673 38.500 C 18.610 39.324,13.049 49.071,11.163 53.417 C 10.550 54.828,10.280 55.513,9.585 57.417 C 9.150 58.608,8.690 59.820,8.564 60.109 C 8.437 60.397,8.333 60.722,8.333 60.831 C 8.333 60.939,8.150 61.565,7.925 62.222 C 7.374 63.835,6.414 67.664,5.768 70.833 C 5.266 73.292,4.737 77.442,4.505 80.750 C 4.287 83.850,4.286 316.065,4.504 319.083 C 4.792 323.065,5.516 328.217,6.168 330.917 C 6.256 331.283,6.484 332.258,6.674 333.083 C 6.864 333.908,7.086 334.808,7.169 335.083 C 7.935 337.651,8.550 339.641,8.663 339.917 C 8.738 340.100,9.041 340.925,9.336 341.750 C 9.632 342.575,9.968 343.475,10.082 343.750 C 13.066 350.942,15.564 355.459,20.172 362.000 C 20.398 362.321,20.624 362.621,20.675 362.667 C 20.725 362.712,20.949 363.011,21.172 363.331 C 21.396 363.651,21.692 364.035,21.831 364.185 C 21.970 364.335,22.319 364.748,22.607 365.104 C 24.260 367.145,24.622 367.560,26.417 369.476 C 29.041 372.278,32.987 375.996,34.391 376.990 C 34.577 377.122,34.855 377.347,35.008 377.490 C 35.700 378.138,38.925 380.514,40.873 381.812 C 44.473 384.208,50.780 387.703,53.513 388.815 C 54.758 389.322,55.597 389.686,55.873 389.839 C 56.032 389.928,56.246 390.000,56.348 390.000 C 56.450 390.000,56.769 390.109,57.058 390.241 C 58.400 390.858,63.428 392.478,66.667 393.337 C 67.995 393.690,69.357 393.986,71.167 394.318 C 72.221 394.511,73.458 394.743,73.917 394.833 C 74.713 394.990,75.383 395.077,79.333 395.544 C 81.895 395.846,319.438 395.846,322.000 395.544 C 322.962 395.430,324.387 395.262,325.167 395.169 C 326.591 395.001,329.010 394.602,330.250 394.331 C 330.617 394.251,331.667 394.023,332.583 393.824 C 334.886 393.324,339.140 392.168,339.917 391.832 C 340.100 391.753,340.438 391.639,340.667 391.580 C 341.512 391.362,345.029 390.026,346.583 389.333 C 346.767 389.251,347.329 389.016,347.833 388.810 C 349.648 388.068,355.528 385.041,355.639 384.792 C 355.669 384.723,355.772 384.667,355.867 384.667 C 356.032 384.667,357.993 383.538,358.167 383.344 C 358.253 383.247,358.392 383.159,359.667 382.402 C 360.079 382.156,360.942 381.571,361.583 381.101 C 362.225 380.631,363.056 380.039,363.431 379.786 C 363.805 379.533,364.255 379.195,364.431 379.034 C 364.606 378.873,365.012 378.557,365.333 378.331 C 365.932 377.911,366.517 377.442,366.994 377.000 C 367.142 376.863,367.634 376.450,368.087 376.083 C 370.640 374.016,376.062 368.563,377.862 366.252 C 378.075 365.978,378.363 365.633,378.500 365.485 C 378.637 365.338,379.050 364.823,379.417 364.340 C 379.783 363.858,380.163 363.377,380.261 363.273 C 380.409 363.116,382.760 359.852,383.339 359.000 C 383.986 358.048,385.667 355.266,385.667 355.147 C 385.667 355.066,385.725 355.000,385.797 355.000 C 385.868 355.000,386.014 354.794,386.121 354.542 C 386.228 354.290,386.659 353.483,387.079 352.750 C 388.378 350.480,390.591 345.725,391.422 343.417 C 391.587 342.958,391.784 342.512,391.861 342.425 C 391.937 342.338,392.000 342.150,392.001 342.008 C 392.002 341.866,392.107 341.549,392.235 341.303 C 392.364 341.057,392.522 340.607,392.587 340.303 C 392.652 339.999,392.763 339.675,392.833 339.583 C 392.904 339.492,393.017 339.157,393.085 338.839 C 393.153 338.521,393.269 338.146,393.343 338.005 C 393.417 337.865,393.552 337.450,393.643 337.083 C 393.734 336.717,393.930 336.004,394.078 335.500 C 394.521 333.989,394.970 332.241,395.157 331.302 C 396.142 326.349,396.321 325.138,396.841 319.917 C 397.174 316.565,396.964 80.138,396.625 77.417 C 396.196 73.970,395.565 70.202,395.076 68.167 C 394.933 67.571,394.748 66.770,394.665 66.387 C 394.582 66.004,394.406 65.329,394.272 64.887 C 394.139 64.445,393.903 63.633,393.748 63.083 C 393.279 61.422,391.970 57.594,391.813 57.425 C 391.733 57.338,391.667 57.165,391.667 57.041 C 391.667 56.845,391.379 56.115,390.829 54.917 C 390.745 54.733,390.529 54.201,390.350 53.734 C 389.705 52.049,386.791 46.299,386.009 45.167 C 385.850 44.938,385.681 44.637,385.631 44.500 C 385.545 44.258,383.656 41.255,383.378 40.917 C 383.302 40.825,382.868 40.188,382.413 39.500 C 381.674 38.383,379.585 35.547,379.344 35.333 C 379.292 35.287,378.950 34.875,378.584 34.417 C 377.333 32.853,376.632 32.057,374.417 29.687 C 373.318 28.511,371.166 26.418,370.011 25.401 C 369.604 25.043,369.070 24.563,368.825 24.333 C 368.094 23.651,366.014 21.967,364.500 20.831 C 363.721 20.247,363.046 19.726,363.000 19.672 C 362.682 19.303,357.358 15.872,355.750 15.000 C 355.292 14.751,354.242 14.174,353.417 13.718 C 351.953 12.909,350.699 12.292,348.500 11.301 C 347.904 11.032,347.267 10.744,347.083 10.660 C 346.072 10.199,342.315 8.780,340.583 8.205 C 337.263 7.103,335.529 6.631,331.250 5.663 C 329.343 5.231,326.636 4.801,323.167 4.376 C 320.696 4.074,82.612 3.879,80.417 4.177 M318.390 16.341 C 323.550 16.784,326.307 17.173,329.667 17.929 C 330.770 18.177,330.917 18.215,333.250 18.849 C 334.743 19.255,337.407 20.095,337.917 20.320 C 338.100 20.401,338.737 20.637,339.333 20.844 C 339.929 21.051,340.492 21.275,340.583 21.340 C 340.675 21.406,340.937 21.517,341.165 21.587 C 342.400 21.967,347.081 24.281,349.917 25.913 C 352.017 27.122,358.029 31.265,358.500 31.828 C 358.546 31.883,358.954 32.225,359.406 32.589 C 361.994 34.669,366.972 39.670,368.690 41.917 C 368.900 42.192,369.120 42.454,369.179 42.500 C 369.299 42.593,371.778 45.910,372.167 46.497 C 372.304 46.704,372.495 46.959,372.591 47.062 C 372.686 47.165,373.057 47.737,373.415 48.333 C 373.773 48.929,374.126 49.442,374.200 49.472 C 374.273 49.503,374.333 49.604,374.333 49.696 C 374.333 49.789,374.475 50.064,374.647 50.308 C 375.670 51.750,378.700 57.803,379.665 60.333 C 379.858 60.837,380.124 61.486,380.258 61.775 C 380.391 62.064,380.500 62.384,380.500 62.486 C 380.500 62.588,380.568 62.801,380.652 62.961 C 380.846 63.330,381.207 64.416,381.664 66.000 C 381.863 66.688,382.086 67.438,382.162 67.667 C 382.303 68.095,382.634 69.433,383.071 71.333 C 383.763 74.342,384.302 78.250,384.507 81.750 C 384.752 85.937,384.621 319.102,384.372 320.750 C 384.275 321.392,384.082 322.704,383.942 323.667 C 383.559 326.303,383.268 327.736,382.430 331.125 C 382.299 331.652,382.074 332.477,381.930 332.958 C 381.785 333.440,381.563 334.190,381.437 334.625 C 381.227 335.351,380.028 338.632,379.686 339.417 C 379.606 339.600,379.256 340.425,378.907 341.250 C 377.330 344.983,373.301 352.091,371.637 354.075 C 371.557 354.171,371.091 354.792,370.603 355.455 C 369.668 356.725,368.752 357.888,368.333 358.336 C 368.196 358.484,367.671 359.085,367.167 359.674 C 360.909 366.975,351.348 373.896,342.083 377.830 C 341.167 378.219,340.192 378.635,339.917 378.754 C 339.642 378.873,339.004 379.101,338.500 379.261 C 337.996 379.420,337.508 379.606,337.417 379.673 C 337.325 379.740,336.990 379.851,336.672 379.919 C 336.354 379.987,335.979 380.099,335.839 380.168 C 333.793 381.177,325.411 382.863,320.083 383.337 C 317.935 383.528,83.655 383.530,81.417 383.339 C 79.168 383.147,76.928 382.878,75.917 382.679 C 75.458 382.589,74.633 382.429,74.083 382.323 C 71.578 381.843,70.804 381.675,69.167 381.256 C 68.204 381.009,67.267 380.749,67.083 380.678 C 66.900 380.607,65.850 380.260,64.750 379.907 C 63.650 379.554,62.675 379.219,62.583 379.161 C 62.492 379.104,62.042 378.922,61.583 378.756 C 61.125 378.591,60.413 378.311,60.000 378.135 C 59.587 377.959,59.100 377.752,58.917 377.674 C 56.266 376.550,49.688 373.019,49.528 372.634 C 49.497 372.560,49.371 372.500,49.248 372.500 C 49.125 372.500,48.925 372.403,48.804 372.285 C 48.682 372.167,48.283 371.889,47.917 371.667 C 47.550 371.444,47.165 371.185,47.062 371.090 C 46.959 370.994,46.707 370.804,46.502 370.667 C 45.935 370.286,42.595 367.789,42.500 367.675 C 42.454 367.620,41.936 367.164,41.348 366.662 C 39.746 365.295,38.114 363.755,36.516 362.103 C 34.439 359.956,34.313 359.819,33.582 358.917 C 33.216 358.466,32.804 357.976,32.667 357.827 C 31.964 357.069,30.008 354.478,29.084 353.083 C 28.719 352.533,28.380 352.046,28.330 352.000 C 28.193 351.875,26.673 349.434,25.952 348.181 C 25.294 347.036,22.747 341.906,22.263 340.750 C 22.109 340.383,21.912 339.953,21.825 339.794 C 21.738 339.635,21.666 339.410,21.666 339.294 C 21.665 339.178,21.553 338.870,21.417 338.609 C 21.153 338.103,19.872 334.359,19.440 332.833 C 18.914 330.973,18.651 329.973,18.485 329.205 C 17.577 324.999,17.324 323.272,16.842 317.990 C 16.600 315.331,16.595 84.510,16.837 81.917 C 17.279 77.183,17.508 75.395,17.986 72.917 C 18.233 71.639,19.137 67.879,19.329 67.333 C 19.409 67.104,19.636 66.354,19.833 65.667 C 20.029 64.979,20.252 64.267,20.328 64.083 C 20.403 63.900,20.708 63.075,21.004 62.250 C 21.301 61.425,21.684 60.435,21.855 60.051 C 22.026 59.666,22.167 59.315,22.167 59.271 C 22.167 58.961,24.519 54.151,25.458 52.539 C 25.848 51.870,26.167 51.251,26.167 51.162 C 26.167 51.073,26.242 51.000,26.333 51.000 C 26.425 51.000,26.500 50.904,26.500 50.787 C 26.500 50.410,31.091 43.703,31.830 43.000 C 31.879 42.954,32.359 42.365,32.898 41.690 C 35.274 38.715,39.765 34.297,42.917 31.836 C 43.558 31.335,44.121 30.882,44.167 30.829 C 44.212 30.777,44.512 30.554,44.833 30.333 C 45.154 30.113,45.454 29.892,45.500 29.841 C 45.762 29.554,48.822 27.500,48.988 27.500 C 49.071 27.500,49.164 27.439,49.194 27.365 C 49.267 27.188,52.079 25.500,52.301 25.500 C 52.395 25.500,52.497 25.444,52.528 25.375 C 52.682 25.027,58.837 22.056,61.083 21.244 C 61.542 21.078,61.992 20.891,62.083 20.827 C 62.362 20.635,66.302 19.350,68.417 18.762 C 69.858 18.361,70.438 18.218,71.750 17.940 C 76.218 16.991,76.542 16.944,82.750 16.355 C 85.017 16.140,315.892 16.126,318.390 16.341 M173.803 187.894 C 172.228 189.867,166.854 197.715,165.000 200.750 C 163.597 203.046,162.000 205.712,162.000 205.758 C 162.000 205.783,161.737 206.203,161.417 206.690 C 161.096 207.177,160.833 207.666,160.833 207.776 C 160.833 207.886,160.737 208.075,160.619 208.196 C 160.501 208.318,160.265 208.717,160.094 209.083 C 159.924 209.450,159.716 209.794,159.633 209.849 C 159.411 209.994,162.742 210.148,172.000 210.419 C 176.537 210.553,182.828 210.741,185.979 210.838 C 191.867 211.018,192.036 211.012,191.640 210.617 C 191.441 210.417,187.329 205.061,185.952 203.208 C 185.697 202.865,185.385 202.459,185.258 202.306 C 185.024 202.024,184.035 200.697,181.054 196.667 C 179.219 194.186,176.181 189.997,175.040 188.375 C 174.176 187.146,174.347 187.212,173.803 187.894 M198.034 195.590 C 198.084 195.639,198.903 196.079,199.854 196.566 C 202.060 197.696,203.330 198.388,204.164 198.915 C 204.528 199.145,204.874 199.333,204.931 199.333 C 205.165 199.333,210.466 202.611,213.083 204.374 C 215.869 206.250,219.860 209.180,222.407 211.220 L 223.563 212.146 224.073 211.398 C 224.354 210.987,225.021 210.048,225.556 209.311 C 226.721 207.708,229.667 203.368,229.667 203.256 C 229.667 203.124,230.741 201.587,230.875 201.528 C 230.944 201.497,231.000 201.398,231.000 201.308 C 231.000 201.217,231.225 200.816,231.500 200.417 C 231.775 200.017,232.000 199.655,232.000 199.612 C 232.000 199.526,233.071 197.867,233.327 197.556 C 233.415 197.449,233.532 197.179,233.589 196.955 L 233.691 196.548 230.220 196.446 C 223.029 196.235,209.740 195.827,205.083 195.674 C 199.363 195.486,197.913 195.469,198.034 195.590 " stroke="none" fill="#545b5c" fill-rule="evenodd"></path><path id="path2" d="M209.393 130.795 C 209.454 130.893,209.385 131.092,209.240 131.237 C 209.095 131.381,209.028 131.500,209.092 131.500 C 209.155 131.500,209.114 131.612,209.000 131.750 C 208.886 131.887,208.851 132.000,208.922 132.000 C 208.993 132.000,208.941 132.131,208.806 132.292 C 208.672 132.452,208.347 133.108,208.085 133.750 C 207.823 134.392,207.388 135.404,207.117 136.000 C 206.847 136.596,206.382 137.646,206.084 138.333 C 205.552 139.560,205.006 140.758,203.614 143.747 C 202.772 145.553,199.599 151.856,198.830 153.250 C 198.526 153.800,198.114 154.550,197.914 154.917 C 196.801 156.960,195.228 159.658,193.449 162.576 C 193.340 162.756,193.156 163.005,193.042 163.130 C 192.927 163.255,192.833 163.428,192.833 163.514 C 192.833 163.600,192.546 164.101,192.194 164.627 C 189.153 169.176,188.500 170.241,188.500 170.655 C 188.500 171.426,189.614 179.088,190.343 183.333 C 191.020 187.273,192.154 192.890,192.299 193.022 C 192.364 193.082,192.979 193.373,193.667 193.670 C 194.354 193.967,195.655 194.580,196.557 195.031 C 197.460 195.483,198.149 195.773,198.089 195.676 C 197.957 195.462,198.627 195.462,205.083 195.674 C 209.457 195.818,221.306 196.182,230.167 196.445 C 232.046 196.500,233.626 196.612,233.679 196.694 C 233.790 196.865,237.556 190.633,239.588 186.917 C 239.789 186.550,240.178 185.838,240.454 185.333 C 240.730 184.829,241.222 183.929,241.548 183.333 C 243.182 180.347,244.048 178.667,246.406 173.917 C 248.733 169.227,250.500 165.560,250.500 165.419 C 250.500 165.389,250.845 164.626,251.268 163.724 C 251.690 162.822,252.170 161.746,252.335 161.333 C 252.499 160.921,252.855 160.096,253.125 159.500 C 253.395 158.904,253.714 158.154,253.834 157.833 C 254.046 157.269,254.529 156.100,254.834 155.417 C 254.915 155.233,255.144 154.671,255.342 154.167 C 255.539 153.662,255.768 153.100,255.849 152.917 C 255.988 152.605,256.716 150.691,257.878 147.583 C 258.152 146.850,259.144 144.000,260.083 141.250 C 261.021 138.500,261.832 136.137,261.885 136.000 C 262.081 135.495,262.527 133.902,262.609 133.417 C 262.655 133.142,262.799 132.751,262.930 132.548 C 263.060 132.345,263.166 132.120,263.164 132.048 C 263.163 131.976,263.103 132.009,263.031 132.123 C 262.897 132.333,260.541 132.284,237.167 131.581 C 232.813 131.450,225.402 131.231,220.698 131.096 C 215.994 130.960,211.502 130.797,210.714 130.733 C 209.714 130.652,209.316 130.670,209.393 130.795 M159.303 210.433 C 159.186 210.699,159.051 210.954,159.003 211.000 C 158.630 211.358,153.691 220.925,152.202 224.172 C 151.930 224.765,151.323 226.056,150.854 227.041 C 150.384 228.027,150.000 228.870,150.000 228.916 C 150.000 228.962,149.781 229.468,149.514 230.041 C 148.750 231.678,146.317 237.515,145.674 239.250 C 145.471 239.800,145.237 240.400,145.154 240.583 C 144.840 241.284,143.501 244.925,143.499 245.083 C 143.499 245.175,143.393 245.451,143.265 245.697 C 143.136 245.943,142.977 246.391,142.911 246.692 C 142.845 246.993,142.726 247.354,142.648 247.495 C 142.505 247.748,140.680 253.213,140.363 254.333 C 140.272 254.654,139.933 255.779,139.608 256.833 C 139.284 257.887,138.943 259.050,138.850 259.417 C 138.757 259.783,138.561 260.496,138.414 261.000 C 138.267 261.504,138.122 262.029,138.090 262.167 C 138.058 262.304,137.789 263.317,137.492 264.417 C 136.669 267.457,136.668 267.441,137.717 267.570 C 138.193 267.628,142.558 267.788,147.417 267.925 C 157.431 268.209,169.991 268.583,177.500 268.821 C 185.821 269.086,186.925 269.080,186.868 268.766 C 186.841 268.620,186.900 268.500,187.000 268.500 C 187.100 268.500,187.166 268.406,187.147 268.292 C 187.115 268.096,187.215 267.807,187.736 266.586 C 187.854 266.309,188.117 265.633,188.320 265.083 C 188.523 264.533,188.760 263.953,188.845 263.794 C 188.930 263.635,189.000 263.424,189.000 263.326 C 189.000 263.229,189.137 262.834,189.304 262.449 C 189.471 262.065,189.745 261.412,189.913 261.000 C 190.081 260.587,190.394 259.861,190.609 259.385 C 190.824 258.910,191.000 258.480,191.000 258.431 C 191.000 258.382,191.215 257.871,191.478 257.296 C 191.741 256.721,192.124 255.875,192.329 255.417 C 195.010 249.423,199.445 241.688,203.885 235.260 C 204.814 233.915,205.012 233.517,204.937 233.146 C 204.827 232.595,203.026 227.707,201.659 224.250 L 200.671 221.750 198.043 218.500 C 196.597 216.713,194.658 214.292,193.733 213.122 L 192.052 210.994 187.734 210.913 C 185.360 210.868,182.884 210.792,182.234 210.744 C 181.583 210.696,177.121 210.548,172.317 210.413 C 167.513 210.279,162.668 210.120,161.550 210.060 L 159.516 209.950 159.303 210.433 " stroke="none" fill="#707578" fill-rule="evenodd"></path><path id="path3" d="M175.000 19.701 C 173.264 19.840,171.220 20.262,170.843 20.560 C 170.653 20.711,170.632 20.701,170.744 20.516 C 170.849 20.342,170.825 20.319,170.651 20.428 C 170.522 20.508,170.313 20.590,170.187 20.609 C 169.812 20.665,169.759 20.777,168.513 24.167 C 167.035 28.188,166.675 29.159,166.502 29.583 C 166.428 29.767,166.088 30.704,165.747 31.667 C 165.407 32.629,165.034 33.642,164.918 33.917 C 164.803 34.192,164.592 34.754,164.448 35.167 C 163.927 36.667,161.280 43.899,161.002 44.583 C 160.928 44.767,160.588 45.704,160.247 46.667 C 159.907 47.629,159.534 48.642,159.418 48.917 C 159.303 49.192,159.091 49.754,158.948 50.167 C 158.626 51.092,156.230 57.668,155.881 58.583 C 155.741 58.950,155.568 59.400,155.497 59.583 C 155.425 59.767,154.864 61.304,154.250 63.000 C 153.636 64.696,153.073 66.233,153.000 66.417 C 152.927 66.600,152.364 68.137,151.749 69.833 C 151.134 71.529,150.458 73.367,150.247 73.917 C 150.036 74.467,149.362 76.304,148.748 78.000 C 148.135 79.696,147.576 81.233,147.506 81.417 C 147.202 82.210,146.642 83.731,145.913 85.750 C 145.482 86.942,144.957 88.367,144.747 88.917 C 144.536 89.467,143.862 91.304,143.248 93.000 C 142.635 94.696,142.076 96.233,142.006 96.417 C 141.709 97.191,141.147 98.720,140.412 100.750 C 139.980 101.942,139.531 103.142,139.413 103.417 C 139.296 103.692,139.076 104.292,138.925 104.750 C 138.655 105.570,136.762 110.765,136.497 111.417 C 136.422 111.600,136.284 111.975,136.191 112.250 C 136.098 112.525,135.798 113.359,135.525 114.104 L 135.028 115.459 135.353 115.993 C 135.532 116.286,135.589 116.472,135.480 116.404 C 135.342 116.319,135.327 116.353,135.430 116.516 C 135.512 116.645,135.703 117.200,135.855 117.750 C 136.126 118.732,136.871 120.927,137.156 121.583 C 137.236 121.767,137.470 122.404,137.676 123.000 C 137.883 123.596,138.115 124.155,138.193 124.242 C 138.270 124.329,138.334 124.516,138.334 124.658 C 138.335 124.800,138.432 125.104,138.551 125.333 C 138.669 125.563,138.943 126.237,139.160 126.833 C 139.377 127.429,139.604 127.992,139.665 128.083 C 139.726 128.175,139.911 128.625,140.077 129.083 C 140.347 129.829,140.740 130.793,141.167 131.750 C 141.248 131.933,141.473 132.458,141.667 132.917 C 141.860 133.375,142.085 133.900,142.167 134.083 C 142.716 135.317,143.000 135.994,143.000 136.070 C 143.000 136.118,143.181 136.553,143.403 137.037 C 143.624 137.521,144.103 138.592,144.468 139.417 C 144.832 140.242,145.370 141.442,145.662 142.083 C 146.308 143.502,148.749 148.390,149.467 149.701 C 149.754 150.224,150.061 150.786,150.149 150.951 C 150.238 151.115,150.691 151.898,151.155 152.690 C 151.620 153.482,152.000 154.213,152.000 154.315 C 152.000 154.417,152.056 154.501,152.125 154.501 C 152.194 154.502,152.331 154.671,152.430 154.876 C 152.777 155.593,153.556 156.923,154.162 157.833 C 154.498 158.337,155.063 159.237,155.417 159.833 C 155.968 160.760,161.340 168.937,161.713 169.417 C 162.593 170.549,163.325 171.624,163.329 171.792 C 163.331 171.906,163.411 172.000,163.505 172.000 C 163.600 172.000,163.706 171.906,163.742 171.792 C 163.797 171.618,164.838 168.767,166.529 164.167 C 166.714 163.662,166.926 163.100,167.000 162.917 C 167.073 162.733,167.625 161.233,168.225 159.583 C 170.721 152.725,172.299 148.417,172.500 147.917 C 172.573 147.733,173.125 146.233,173.726 144.583 C 174.326 142.933,175.316 140.233,175.925 138.583 C 176.534 136.933,177.217 135.058,177.442 134.417 C 177.668 133.775,177.915 133.100,177.993 132.917 C 178.070 132.733,178.636 131.196,179.250 129.500 C 179.864 127.804,180.429 126.267,180.505 126.083 C 180.581 125.900,181.254 124.063,182.000 122.000 C 182.746 119.938,183.419 118.100,183.495 117.917 C 183.571 117.733,184.136 116.196,184.750 114.500 C 185.364 112.804,185.927 111.267,186.000 111.083 C 186.201 110.583,187.779 106.275,190.275 99.417 C 190.875 97.767,191.427 96.267,191.500 96.083 C 191.574 95.900,191.786 95.337,191.971 94.833 C 192.958 92.148,194.760 87.216,195.746 84.500 C 196.363 82.804,196.927 81.267,197.000 81.083 C 197.150 80.710,197.321 80.246,198.967 75.750 C 200.290 72.135,202.529 66.026,203.029 64.667 C 203.214 64.162,203.426 63.600,203.500 63.417 C 203.573 63.233,204.137 61.696,204.754 60.000 C 205.740 57.284,207.542 52.352,208.529 49.667 C 208.714 49.163,208.926 48.600,209.000 48.417 C 209.073 48.233,209.625 46.733,210.225 45.083 C 211.553 41.433,213.579 35.887,213.999 34.750 C 214.169 34.292,214.338 33.806,214.374 33.671 C 214.442 33.425,213.857 33.119,206.583 29.595 C 202.674 27.700,201.348 27.070,200.417 26.661 C 199.958 26.460,199.208 26.123,198.750 25.913 C 198.292 25.703,197.542 25.370,197.083 25.173 C 196.625 24.976,196.100 24.748,195.917 24.667 C 195.471 24.468,194.256 23.962,193.333 23.590 C 192.921 23.424,192.347 23.186,192.058 23.061 C 191.769 22.936,191.450 22.833,191.348 22.833 C 191.246 22.833,191.032 22.762,190.873 22.675 C 190.571 22.510,188.071 21.662,186.917 21.332 C 186.550 21.228,185.875 21.035,185.417 20.903 C 183.730 20.417,181.616 20.009,179.955 19.848 C 177.236 19.583,176.677 19.566,175.000 19.701 M210.592 203.153 C 210.545 203.229,210.272 204.369,209.985 205.687 C 209.698 207.005,209.358 208.533,209.229 209.083 C 209.101 209.633,208.879 210.608,208.737 211.250 C 208.594 211.892,208.376 212.867,208.253 213.417 C 208.129 213.967,207.904 214.979,207.753 215.667 C 207.601 216.354,207.374 217.367,207.247 217.917 C 207.120 218.467,206.893 219.479,206.742 220.167 C 206.590 220.854,206.365 221.867,206.242 222.417 C 206.118 222.967,205.901 223.942,205.761 224.583 C 205.620 225.225,205.400 226.200,205.272 226.750 C 205.144 227.300,204.883 228.451,204.690 229.308 L 204.341 230.866 204.690 231.892 C 204.882 232.455,205.173 233.442,205.338 234.083 C 205.503 234.725,205.876 236.000,206.168 236.917 C 206.460 237.833,206.759 238.808,206.834 239.083 C 207.201 240.441,207.680 242.177,207.914 243.000 C 208.812 246.163,209.876 251.476,210.407 255.449 C 210.543 256.475,210.694 257.487,210.741 257.699 C 211.317 260.293,211.319 273.065,210.744 275.001 C 210.703 275.140,210.558 276.002,210.422 276.918 C 210.000 279.749,208.731 285.120,208.177 286.417 C 208.099 286.600,207.905 287.125,207.746 287.583 C 206.808 290.281,205.466 293.468,204.341 295.667 C 203.255 297.791,202.745 298.755,202.667 298.833 C 202.502 298.998,201.978 299.923,201.887 300.208 C 201.836 300.369,201.728 300.500,201.647 300.500 C 201.566 300.500,201.500 300.597,201.500 300.715 C 201.500 300.901,198.270 305.839,197.712 306.505 C 197.599 306.640,196.887 307.537,196.129 308.500 C 195.372 309.462,194.676 310.333,194.584 310.435 C 194.492 310.537,194.004 311.100,193.500 311.685 C 190.919 314.682,184.648 320.833,184.172 320.833 C 184.117 320.833,184.063 320.965,184.054 321.125 C 184.037 321.392,183.917 321.963,183.253 324.917 C 183.129 325.467,182.904 326.479,182.753 327.167 C 182.601 327.854,182.374 328.867,182.247 329.417 C 182.120 329.967,181.901 330.942,181.761 331.583 C 181.620 332.225,181.391 333.237,181.253 333.833 C 181.114 334.429,180.889 335.442,180.753 336.083 C 180.616 336.725,180.399 337.700,180.271 338.250 C 180.142 338.800,179.795 340.337,179.500 341.667 C 179.205 342.996,178.858 344.533,178.729 345.083 C 178.601 345.633,178.384 346.608,178.247 347.250 C 178.111 347.892,177.886 348.904,177.747 349.500 C 177.514 350.504,177.333 351.311,176.756 353.917 C 176.634 354.467,176.405 355.479,176.247 356.167 C 175.942 357.494,175.676 358.688,175.263 360.583 C 175.123 361.225,174.941 362.024,174.859 362.358 C 174.685 363.065,174.794 363.313,175.323 363.415 C 175.533 363.455,175.790 363.589,175.894 363.712 C 176.161 364.026,180.727 366.679,184.472 368.694 C 184.991 368.973,185.492 369.261,185.583 369.333 C 185.675 369.405,186.500 369.855,187.417 370.333 C 188.333 370.811,189.158 371.258,189.250 371.327 C 190.218 372.052,198.553 376.159,201.832 377.528 C 202.704 377.892,203.567 378.256,203.750 378.337 C 208.922 380.625,217.792 381.806,222.500 380.832 C 226.123 380.082,225.624 380.509,226.254 377.625 C 226.772 375.254,227.004 374.213,227.247 373.167 C 227.386 372.571,227.611 371.558,227.747 370.917 C 227.884 370.275,228.101 369.300,228.229 368.750 C 228.358 368.200,228.705 366.662,229.000 365.333 C 229.295 364.004,229.633 362.504,229.750 362.000 C 229.867 361.496,230.205 359.996,230.500 358.667 C 230.795 357.337,231.142 355.800,231.271 355.250 C 231.399 354.700,231.616 353.725,231.753 353.083 C 231.889 352.442,232.114 351.429,232.253 350.833 C 232.391 350.238,232.616 349.244,232.752 348.625 C 232.888 348.006,233.112 346.994,233.248 346.375 C 233.384 345.756,233.609 344.762,233.747 344.167 C 233.886 343.571,234.111 342.558,234.247 341.917 C 234.384 341.275,234.601 340.300,234.729 339.750 C 234.858 339.200,235.205 337.662,235.500 336.333 C 235.795 335.004,236.133 333.504,236.250 333.000 C 236.367 332.496,236.705 330.996,237.000 329.667 C 237.295 328.337,237.642 326.800,237.771 326.250 C 238.000 325.267,238.213 324.315,238.759 321.833 C 238.910 321.146,239.135 320.133,239.258 319.583 C 239.382 319.033,239.599 318.058,239.739 317.417 C 239.880 316.775,240.109 315.762,240.247 315.167 C 240.386 314.571,240.611 313.558,240.747 312.917 C 240.884 312.275,241.100 311.300,241.227 310.750 C 241.355 310.200,241.815 308.175,242.251 306.250 C 242.687 304.325,243.147 302.300,243.274 301.750 C 243.400 301.200,243.616 300.225,243.753 299.583 C 243.889 298.942,244.114 297.929,244.253 297.333 C 244.391 296.737,244.616 295.744,244.752 295.125 C 245.292 292.676,245.543 291.541,245.758 290.583 C 245.882 290.033,246.099 289.058,246.239 288.417 C 246.380 287.775,246.601 286.800,246.729 286.250 C 246.858 285.700,247.205 284.162,247.500 282.833 C 247.795 281.504,248.133 280.004,248.250 279.500 C 248.367 278.996,248.705 277.496,249.000 276.167 C 249.295 274.837,249.642 273.300,249.771 272.750 C 249.899 272.200,250.116 271.225,250.253 270.583 C 250.389 269.942,250.614 268.929,250.753 268.333 C 250.891 267.737,251.116 266.744,251.252 266.125 C 251.388 265.506,251.612 264.494,251.748 263.875 C 251.884 263.256,252.109 262.262,252.247 261.667 C 252.386 261.071,252.611 260.058,252.747 259.417 C 252.884 258.775,253.101 257.800,253.229 257.250 C 253.448 256.315,254.234 252.795,254.774 250.336 C 254.904 249.742,255.077 249.189,255.158 249.108 C 255.307 248.960,255.089 248.496,254.246 247.161 C 254.005 246.779,253.614 246.119,253.377 245.694 C 253.140 245.269,252.845 244.822,252.723 244.699 C 252.600 244.576,252.500 244.369,252.500 244.238 C 252.500 244.107,252.442 244.000,252.372 244.000 C 252.301 244.000,252.059 243.662,251.833 243.250 C 251.608 242.838,251.366 242.500,251.295 242.500 C 251.224 242.500,251.167 242.428,251.167 242.340 C 251.167 242.191,249.621 239.818,249.250 239.397 C 249.158 239.293,248.971 239.038,248.833 238.831 C 247.184 236.346,242.884 230.998,239.667 227.432 C 234.867 222.112,225.997 213.762,223.185 211.917 C 222.906 211.733,221.231 210.487,219.464 209.147 C 215.212 205.924,210.745 202.905,210.592 203.153 " stroke="none" fill="#2dabc9" fill-rule="evenodd"></path><path id="path4" d="M217.322 35.625 C 217.229 35.877,217.048 36.383,216.920 36.750 C 216.792 37.117,216.152 38.879,215.498 40.667 C 213.802 45.297,213.650 45.711,213.500 46.083 C 213.427 46.267,212.875 47.767,212.275 49.417 C 209.779 56.275,208.201 60.583,208.000 61.083 C 207.927 61.267,207.364 62.804,206.750 64.500 C 206.136 66.196,205.571 67.733,205.495 67.917 C 205.419 68.100,204.746 69.938,204.000 72.000 C 203.254 74.063,202.581 75.900,202.505 76.083 C 202.429 76.267,201.864 77.804,201.250 79.500 C 200.636 81.196,200.073 82.733,200.000 82.917 C 199.799 83.417,198.221 87.725,195.725 94.583 C 195.125 96.233,194.573 97.733,194.500 97.917 C 194.299 98.417,192.721 102.725,190.225 109.583 C 189.625 111.233,189.073 112.733,189.000 112.917 C 188.850 113.290,188.679 113.754,187.033 118.250 C 185.710 121.865,183.471 127.974,182.971 129.333 C 182.786 129.837,182.574 130.400,182.500 130.583 C 182.427 130.767,181.863 132.304,181.246 134.000 C 180.260 136.716,178.458 141.648,177.471 144.333 C 177.286 144.837,177.074 145.400,177.000 145.583 C 176.927 145.767,176.375 147.267,175.775 148.917 C 173.279 155.775,171.701 160.083,171.500 160.583 C 171.427 160.767,170.875 162.267,170.274 163.917 C 169.674 165.567,168.683 168.267,168.072 169.917 C 167.462 171.567,166.745 173.538,166.479 174.297 L 165.996 175.678 166.373 176.081 C 166.995 176.746,167.151 176.961,167.069 177.042 C 167.027 177.084,167.106 177.214,167.246 177.330 C 167.386 177.446,167.500 177.638,167.500 177.757 C 167.500 177.875,167.556 177.997,167.625 178.028 C 167.694 178.058,168.050 178.532,168.417 179.080 C 168.783 179.629,169.143 180.154,169.216 180.247 C 169.361 180.432,170.867 182.559,171.207 183.059 C 171.322 183.229,171.832 183.941,172.339 184.642 C 172.846 185.343,173.433 186.197,173.644 186.541 C 173.854 186.884,174.118 187.221,174.230 187.291 C 174.343 187.360,174.626 187.679,174.859 188.000 C 175.093 188.321,176.396 190.121,177.756 192.000 C 184.503 201.324,200.170 221.553,200.437 221.285 C 200.470 221.252,200.265 220.593,199.981 219.821 C 194.643 205.323,189.357 182.708,188.413 170.333 C 188.375 169.829,188.227 168.517,188.085 167.417 C 186.221 153.020,186.215 140.186,188.065 129.083 C 188.405 127.044,188.771 125.148,189.093 123.750 C 189.242 123.108,189.426 122.281,189.503 121.911 C 189.580 121.542,189.805 120.642,190.002 119.911 C 190.945 116.424,191.310 115.061,191.408 114.667 C 191.442 114.529,191.589 114.042,191.735 113.583 C 191.881 113.125,192.109 112.375,192.243 111.917 C 192.737 110.216,194.216 105.744,194.336 105.583 C 194.405 105.492,194.516 105.154,194.583 104.833 C 194.650 104.513,194.761 104.175,194.830 104.083 C 194.898 103.992,195.002 103.715,195.061 103.469 C 195.120 103.222,195.393 102.535,195.667 101.942 C 195.942 101.348,196.167 100.824,196.167 100.776 C 196.167 100.684,196.933 98.955,197.581 97.583 C 197.798 97.125,198.135 96.412,198.330 96.000 C 199.039 94.503,201.146 90.691,201.831 89.667 C 201.984 89.438,202.479 88.688,202.930 88.000 C 203.817 86.648,205.317 84.561,205.995 83.737 C 206.227 83.454,206.679 82.901,207.000 82.506 C 209.594 79.317,213.577 75.432,216.938 72.811 C 217.568 72.320,218.158 71.858,218.250 71.784 C 218.342 71.710,218.798 71.372,219.264 71.033 C 219.731 70.694,220.443 70.166,220.848 69.859 C 228.546 64.028,243.645 58.938,255.356 58.227 C 256.352 58.166,257.167 58.072,257.166 58.017 C 257.166 57.827,249.072 52.560,245.083 50.155 C 244.258 49.657,243.558 49.194,243.528 49.125 C 243.497 49.056,243.384 49.000,243.276 49.000 C 243.167 49.000,242.689 48.737,242.213 48.417 C 241.736 48.096,241.269 47.833,241.173 47.833 C 241.078 47.833,241.000 47.758,241.000 47.667 C 241.000 47.575,240.917 47.500,240.816 47.500 C 240.714 47.500,239.833 47.020,238.857 46.434 C 237.882 45.848,236.802 45.211,236.458 45.018 C 236.115 44.825,235.552 44.506,235.208 44.311 C 234.865 44.115,234.096 43.693,233.500 43.373 C 232.904 43.053,232.342 42.736,232.250 42.669 C 232.158 42.602,231.521 42.246,230.833 41.877 C 230.146 41.509,229.058 40.924,228.417 40.577 C 225.873 39.202,218.500 35.502,218.500 35.600 C 218.500 35.658,218.315 35.584,218.089 35.436 C 217.549 35.082,217.520 35.089,217.322 35.625 M257.868 254.292 C 257.854 254.699,257.420 256.778,256.728 259.750 C 256.601 260.300,256.384 261.275,256.247 261.917 C 256.111 262.558,255.886 263.571,255.747 264.167 C 255.609 264.762,255.381 265.775,255.240 266.417 C 254.755 268.630,254.504 269.754,254.253 270.833 C 254.114 271.429,253.889 272.442,253.753 273.083 C 253.616 273.725,253.399 274.700,253.271 275.250 C 253.142 275.800,252.795 277.337,252.500 278.667 C 252.205 279.996,251.867 281.496,251.750 282.000 C 251.633 282.504,251.295 284.004,251.000 285.333 C 250.705 286.662,250.358 288.200,250.229 288.750 C 250.101 289.300,249.884 290.275,249.747 290.917 C 249.611 291.558,249.386 292.571,249.247 293.167 C 249.109 293.762,248.884 294.756,248.748 295.375 C 248.612 295.994,248.388 297.006,248.252 297.625 C 248.116 298.244,247.891 299.237,247.753 299.833 C 247.614 300.429,247.389 301.442,247.253 302.083 C 247.116 302.725,246.900 303.700,246.774 304.250 C 246.458 305.620,245.097 311.659,244.578 314.000 C 244.343 315.054,244.048 316.367,243.921 316.917 C 243.794 317.467,243.568 318.479,243.418 319.167 C 243.268 319.854,243.079 320.679,242.998 321.000 C 242.917 321.321,242.693 322.333,242.500 323.250 C 242.307 324.167,242.083 325.179,242.002 325.500 C 241.921 325.821,241.732 326.646,241.582 327.333 C 241.432 328.021,241.206 329.033,241.079 329.583 C 240.952 330.133,240.657 331.446,240.422 332.500 C 239.903 334.841,238.542 340.880,238.226 342.250 C 238.100 342.800,237.884 343.775,237.747 344.417 C 237.611 345.058,237.386 346.071,237.247 346.667 C 237.109 347.262,236.884 348.256,236.748 348.875 C 236.612 349.494,236.388 350.506,236.252 351.125 C 236.116 351.744,235.891 352.738,235.753 353.333 C 235.614 353.929,235.389 354.942,235.253 355.583 C 235.116 356.225,234.899 357.200,234.771 357.750 C 234.642 358.300,234.295 359.837,234.000 361.167 C 233.705 362.496,233.367 363.996,233.250 364.500 C 233.133 365.004,232.795 366.504,232.500 367.833 C 232.205 369.162,231.858 370.700,231.729 371.250 C 231.601 371.800,231.384 372.775,231.247 373.417 C 231.111 374.058,230.886 375.071,230.748 375.667 C 230.113 378.416,230.040 379.176,230.467 378.579 C 230.531 378.489,230.658 378.401,230.750 378.383 C 231.153 378.300,232.092 377.904,232.185 377.777 C 232.241 377.701,232.354 377.651,232.435 377.666 C 232.584 377.694,235.011 376.499,235.167 376.321 C 235.213 376.269,235.378 376.178,235.535 376.120 C 236.252 375.856,239.903 373.289,241.989 371.583 C 249.384 365.535,257.255 354.622,261.824 344.083 C 262.022 343.625,262.252 343.100,262.333 342.917 C 264.266 338.578,266.674 331.080,267.661 326.329 C 268.874 320.488,269.217 318.042,269.827 310.890 C 270.047 308.311,270.051 300.400,269.834 297.860 C 269.420 293.031,269.317 291.970,269.094 290.250 C 268.696 287.198,268.113 283.723,267.596 281.333 C 266.718 277.278,266.299 275.577,265.606 273.250 C 265.469 272.792,265.272 272.117,265.167 271.750 C 264.907 270.838,263.175 265.701,262.919 265.083 C 262.805 264.808,262.576 264.246,262.410 263.833 C 262.244 263.421,261.983 262.783,261.830 262.417 C 261.678 262.050,261.454 261.487,261.335 261.167 C 261.215 260.846,260.876 260.058,260.582 259.417 C 260.288 258.775,259.910 257.931,259.742 257.542 C 259.574 257.152,259.375 256.833,259.301 256.833 C 259.227 256.833,259.167 256.714,259.167 256.567 C 259.167 256.421,259.060 256.102,258.930 255.859 C 258.799 255.616,258.530 255.060,258.331 254.625 C 257.910 253.701,257.889 253.686,257.868 254.292 " stroke="none" fill="#4cbba8" fill-rule="evenodd"></path><path id="path5" d="M168.417 21.104 C 166.626 21.737,164.432 22.766,162.872 23.705 C 162.298 24.050,161.785 24.333,161.733 24.333 C 161.642 24.333,159.171 25.989,159.000 26.165 C 158.954 26.212,158.354 26.700,157.667 27.248 C 156.030 28.554,151.998 32.581,150.741 34.166 C 150.196 34.853,149.581 35.603,149.375 35.831 C 149.169 36.060,149.000 36.292,149.000 36.347 C 149.000 36.403,148.812 36.666,148.581 36.932 C 148.062 37.532,145.024 42.074,144.879 42.465 C 144.822 42.622,144.731 42.788,144.679 42.833 C 144.626 42.879,144.401 43.254,144.179 43.667 C 143.957 44.079,143.724 44.454,143.662 44.500 C 143.492 44.627,139.958 51.897,139.328 53.417 C 139.025 54.150,138.714 54.821,138.638 54.908 C 138.562 54.995,138.500 55.172,138.500 55.300 C 138.500 55.428,138.396 55.769,138.269 56.058 C 138.142 56.347,137.760 57.371,137.419 58.333 C 137.079 59.296,136.736 60.233,136.658 60.417 C 136.580 60.600,136.444 61.012,136.357 61.333 C 136.270 61.654,135.963 62.667,135.675 63.583 C 134.415 67.599,132.834 74.628,132.339 78.417 C 132.177 79.655,132.092 80.380,131.667 84.167 C 131.231 88.044,131.305 95.084,131.831 99.917 C 132.082 102.219,132.778 106.386,133.266 108.500 C 133.962 111.518,134.955 115.167,135.080 115.167 C 135.103 115.167,135.251 114.810,135.410 114.375 C 135.745 113.453,136.322 111.897,136.505 111.417 C 136.962 110.223,138.698 105.438,138.925 104.750 C 139.076 104.292,139.296 103.692,139.413 103.417 C 139.531 103.142,139.980 101.942,140.412 100.750 C 141.147 98.720,141.709 97.191,142.006 96.417 C 142.076 96.233,142.635 94.696,143.248 93.000 C 143.862 91.304,144.536 89.467,144.747 88.917 C 144.957 88.367,145.482 86.942,145.913 85.750 C 146.642 83.731,147.202 82.210,147.506 81.417 C 147.576 81.233,148.135 79.696,148.748 78.000 C 149.362 76.304,150.036 74.467,150.247 73.917 C 150.458 73.367,151.134 71.529,151.749 69.833 C 152.364 68.137,152.927 66.600,153.000 66.417 C 153.073 66.233,153.636 64.696,154.250 63.000 C 154.864 61.304,155.425 59.767,155.497 59.583 C 155.568 59.400,155.741 58.950,155.881 58.583 C 156.230 57.668,158.626 51.092,158.948 50.167 C 159.091 49.754,159.303 49.192,159.418 48.917 C 159.534 48.642,159.907 47.629,160.247 46.667 C 160.588 45.704,160.928 44.767,161.002 44.583 C 161.280 43.899,163.927 36.667,164.448 35.167 C 164.592 34.754,164.803 34.192,164.918 33.917 C 165.034 33.642,165.407 32.629,165.747 31.667 C 166.088 30.704,166.428 29.767,166.502 29.583 C 166.676 29.155,167.118 27.968,168.144 25.167 C 168.598 23.929,169.160 22.410,169.394 21.792 C 169.627 21.173,169.766 20.672,169.701 20.679 C 169.636 20.686,169.058 20.877,168.417 21.104 M192.333 193.301 C 192.333 193.523,193.018 196.429,193.832 199.667 C 195.843 207.658,198.941 217.244,202.045 225.083 C 202.735 226.825,203.535 228.922,203.824 229.744 C 204.113 230.566,204.395 231.278,204.451 231.327 C 204.507 231.376,204.507 231.287,204.450 231.129 C 204.357 230.870,204.534 229.929,205.272 226.750 C 205.400 226.200,205.619 225.225,205.760 224.583 C 206.288 222.173,206.872 219.559,207.239 217.958 C 207.370 217.385,207.601 216.354,207.753 215.667 C 207.904 214.979,208.129 213.967,208.253 213.417 C 208.376 212.867,208.594 211.892,208.737 211.250 C 208.879 210.608,209.101 209.633,209.229 209.083 C 209.358 208.533,209.692 207.032,209.972 205.746 C 210.252 204.461,210.524 203.298,210.576 203.162 C 210.786 202.616,201.422 197.323,194.833 194.263 C 192.257 193.066,192.333 193.095,192.333 193.301 M183.083 321.747 C 182.625 322.156,182.190 322.493,182.116 322.495 C 182.042 322.498,181.742 322.730,181.449 323.012 C 177.649 326.665,165.843 332.237,157.167 334.472 C 152.374 335.707,148.179 336.380,143.296 336.700 C 141.085 336.844,140.382 336.941,140.503 337.087 C 140.591 337.193,140.608 337.336,140.540 337.404 C 140.472 337.472,140.505 337.503,140.613 337.472 C 140.720 337.442,141.097 337.717,141.450 338.083 C 141.803 338.450,142.759 339.350,143.575 340.083 C 144.391 340.817,145.180 341.529,145.329 341.667 C 145.478 341.804,146.308 342.511,147.175 343.237 C 148.041 343.963,148.825 344.638,148.917 344.737 C 149.008 344.836,150.021 345.667,151.167 346.583 C 152.313 347.500,153.287 348.298,153.333 348.358 C 153.424 348.476,161.385 354.427,161.996 354.833 C 162.203 354.971,162.532 355.205,162.728 355.353 C 163.335 355.814,169.199 359.709,170.476 360.500 C 171.143 360.912,172.367 361.684,173.198 362.216 C 174.028 362.747,174.749 363.140,174.798 363.091 C 174.848 363.041,174.847 363.000,174.795 363.000 C 174.744 363.000,174.771 362.719,174.855 362.375 C 174.939 362.031,175.123 361.225,175.263 360.583 C 175.676 358.688,175.942 357.494,176.247 356.167 C 176.405 355.479,176.634 354.467,176.756 353.917 C 177.333 351.311,177.514 350.504,177.747 349.500 C 177.886 348.904,178.111 347.892,178.247 347.250 C 178.384 346.608,178.601 345.633,178.729 345.083 C 178.858 344.533,179.205 342.996,179.500 341.667 C 179.795 340.337,180.142 338.800,180.271 338.250 C 180.399 337.700,180.616 336.725,180.753 336.083 C 180.889 335.442,181.114 334.429,181.253 333.833 C 181.391 333.237,181.620 332.225,181.761 331.583 C 181.901 330.942,182.120 329.967,182.247 329.417 C 182.374 328.867,182.601 327.854,182.753 327.167 C 182.904 326.479,183.129 325.467,183.253 324.917 C 183.376 324.367,183.589 323.392,183.725 322.750 C 183.861 322.108,184.024 321.452,184.088 321.292 C 184.274 320.818,183.970 320.956,183.083 321.747 " stroke="none" fill="#4c84c3" fill-rule="evenodd"></path><path id="path6" d="M214.333 33.728 C 214.333 33.853,214.188 34.322,214.011 34.769 C 213.706 35.539,212.728 38.203,210.225 45.083 C 209.625 46.733,209.073 48.233,209.000 48.417 C 208.926 48.600,208.714 49.163,208.529 49.667 C 207.542 52.352,205.740 57.284,204.754 60.000 C 204.137 61.696,203.573 63.233,203.500 63.417 C 203.426 63.600,203.214 64.162,203.029 64.667 C 202.529 66.026,200.290 72.135,198.967 75.750 C 197.321 80.246,197.150 80.710,197.000 81.083 C 196.927 81.267,196.363 82.804,195.746 84.500 C 194.760 87.216,192.958 92.148,191.971 94.833 C 191.786 95.337,191.574 95.900,191.500 96.083 C 191.427 96.267,190.875 97.767,190.275 99.417 C 187.779 106.275,186.201 110.583,186.000 111.083 C 185.927 111.267,185.364 112.804,184.750 114.500 C 184.136 116.196,183.571 117.733,183.495 117.917 C 183.419 118.100,182.746 119.938,182.000 122.000 C 181.254 124.063,180.581 125.900,180.505 126.083 C 180.429 126.267,179.864 127.804,179.250 129.500 C 178.636 131.196,178.070 132.733,177.993 132.917 C 177.915 133.100,177.668 133.775,177.442 134.417 C 177.217 135.058,176.534 136.933,175.925 138.583 C 175.316 140.233,174.326 142.933,173.726 144.583 C 173.125 146.233,172.573 147.733,172.500 147.917 C 172.299 148.417,170.721 152.725,168.225 159.583 C 167.625 161.233,167.073 162.733,167.000 162.917 C 166.846 163.300,166.635 163.872,165.004 168.333 C 164.350 170.121,163.744 171.715,163.656 171.875 C 163.553 172.065,163.556 172.167,163.665 172.167 C 163.758 172.167,163.833 172.268,163.833 172.391 C 163.833 172.515,163.965 172.773,164.125 172.966 C 164.285 173.159,164.754 173.805,165.167 174.401 C 166.055 175.686,166.031 175.676,166.288 174.851 C 166.400 174.494,167.096 172.563,167.837 170.559 C 168.577 168.556,169.674 165.567,170.275 163.917 C 170.875 162.267,171.427 160.767,171.500 160.583 C 171.701 160.083,173.279 155.775,175.775 148.917 C 176.375 147.267,176.927 145.767,177.000 145.583 C 177.074 145.400,177.286 144.837,177.471 144.333 C 178.458 141.648,180.260 136.716,181.246 134.000 C 181.863 132.304,182.427 130.767,182.500 130.583 C 182.574 130.400,182.786 129.837,182.971 129.333 C 183.471 127.974,185.710 121.865,187.033 118.250 C 188.679 113.754,188.850 113.290,189.000 112.917 C 189.073 112.733,189.625 111.233,190.225 109.583 C 192.721 102.725,194.299 98.417,194.500 97.917 C 194.573 97.733,195.125 96.233,195.725 94.583 C 198.221 87.725,199.799 83.417,200.000 82.917 C 200.073 82.733,200.636 81.196,201.250 79.500 C 201.864 77.804,202.429 76.267,202.505 76.083 C 202.581 75.900,203.254 74.063,204.000 72.000 C 204.746 69.938,205.419 68.100,205.495 67.917 C 205.571 67.733,206.136 66.196,206.750 64.500 C 207.364 62.804,207.927 61.267,208.000 61.083 C 208.201 60.583,209.779 56.275,212.275 49.417 C 212.875 47.767,213.427 46.267,213.500 46.083 C 213.649 45.714,213.796 45.314,215.467 40.750 C 216.105 39.008,216.798 37.096,217.006 36.500 C 217.215 35.904,217.446 35.347,217.521 35.263 C 217.600 35.174,216.982 34.769,216.059 34.304 C 214.251 33.395,214.333 33.422,214.333 33.728 M255.094 249.149 C 255.044 249.231,254.898 249.774,254.770 250.357 C 254.216 252.877,253.445 256.327,253.229 257.250 C 253.101 257.800,252.884 258.775,252.747 259.417 C 252.611 260.058,252.386 261.071,252.247 261.667 C 252.109 262.262,251.884 263.256,251.748 263.875 C 251.612 264.494,251.388 265.506,251.252 266.125 C 251.116 266.744,250.891 267.737,250.753 268.333 C 250.614 268.929,250.389 269.942,250.253 270.583 C 250.116 271.225,249.899 272.200,249.771 272.750 C 249.642 273.300,249.295 274.837,249.000 276.167 C 248.705 277.496,248.367 278.996,248.250 279.500 C 248.133 280.004,247.795 281.504,247.500 282.833 C 247.205 284.162,246.858 285.700,246.729 286.250 C 246.601 286.800,246.380 287.775,246.239 288.417 C 246.099 289.058,245.882 290.033,245.758 290.583 C 245.543 291.541,245.292 292.676,244.752 295.125 C 244.616 295.744,244.391 296.737,244.253 297.333 C 244.114 297.929,243.889 298.942,243.753 299.583 C 243.616 300.225,243.400 301.200,243.274 301.750 C 243.147 302.300,242.687 304.325,242.251 306.250 C 241.815 308.175,241.355 310.200,241.227 310.750 C 241.100 311.300,240.884 312.275,240.747 312.917 C 240.611 313.558,240.386 314.571,240.247 315.167 C 240.109 315.762,239.884 316.756,239.748 317.375 C 239.208 319.824,238.957 320.959,238.742 321.917 C 238.618 322.467,238.401 323.442,238.261 324.083 C 238.120 324.725,237.899 325.700,237.771 326.250 C 237.642 326.800,237.295 328.337,237.000 329.667 C 236.705 330.996,236.367 332.496,236.250 333.000 C 236.133 333.504,235.795 335.004,235.500 336.333 C 235.205 337.662,234.858 339.200,234.729 339.750 C 234.601 340.300,234.384 341.275,234.247 341.917 C 234.111 342.558,233.886 343.571,233.747 344.167 C 233.609 344.762,233.381 345.775,233.240 346.417 C 232.755 348.630,232.504 349.754,232.253 350.833 C 232.114 351.429,231.889 352.442,231.753 353.083 C 231.616 353.725,231.399 354.700,231.271 355.250 C 231.142 355.800,230.795 357.337,230.500 358.667 C 230.205 359.996,229.867 361.496,229.750 362.000 C 229.633 362.504,229.295 364.004,229.000 365.333 C 228.705 366.662,228.358 368.200,228.229 368.750 C 228.101 369.300,227.884 370.275,227.747 370.917 C 227.611 371.558,227.386 372.571,227.247 373.167 C 226.937 374.503,226.575 376.144,226.264 377.625 C 226.134 378.244,225.990 378.863,225.944 379.000 C 225.640 379.914,225.661 380.137,226.042 380.049 C 226.849 379.864,228.450 379.346,229.083 379.066 C 229.450 378.903,229.822 378.766,229.910 378.760 C 229.998 378.755,230.158 378.337,230.266 377.833 C 230.374 377.329,230.591 376.354,230.748 375.667 C 230.905 374.979,231.138 373.929,231.265 373.333 C 231.392 372.738,231.601 371.800,231.729 371.250 C 231.858 370.700,232.205 369.162,232.500 367.833 C 232.795 366.504,233.133 365.004,233.250 364.500 C 233.367 363.996,233.705 362.496,234.000 361.167 C 234.295 359.837,234.642 358.300,234.771 357.750 C 234.899 357.200,235.116 356.225,235.253 355.583 C 235.389 354.942,235.614 353.929,235.753 353.333 C 235.891 352.738,236.116 351.744,236.252 351.125 C 236.388 350.506,236.612 349.494,236.748 348.875 C 236.884 348.256,237.109 347.262,237.247 346.667 C 237.386 346.071,237.611 345.058,237.747 344.417 C 237.884 343.775,238.100 342.800,238.226 342.250 C 238.542 340.880,239.903 334.841,240.422 332.500 C 240.657 331.446,240.952 330.133,241.079 329.583 C 241.206 329.033,241.432 328.021,241.582 327.333 C 241.732 326.646,241.921 325.821,242.002 325.500 C 242.083 325.179,242.307 324.167,242.500 323.250 C 242.693 322.333,242.917 321.321,242.998 321.000 C 243.079 320.679,243.268 319.854,243.418 319.167 C 243.568 318.479,243.794 317.467,243.921 316.917 C 244.048 316.367,244.343 315.054,244.578 314.000 C 245.097 311.659,246.458 305.620,246.774 304.250 C 246.900 303.700,247.116 302.725,247.253 302.083 C 247.389 301.442,247.614 300.429,247.753 299.833 C 247.891 299.237,248.116 298.244,248.252 297.625 C 248.388 297.006,248.612 295.994,248.748 295.375 C 248.884 294.756,249.109 293.762,249.247 293.167 C 249.386 292.571,249.611 291.558,249.747 290.917 C 249.884 290.275,250.101 289.300,250.229 288.750 C 250.358 288.200,250.705 286.662,251.000 285.333 C 251.295 284.004,251.633 282.504,251.750 282.000 C 251.867 281.496,252.205 279.996,252.500 278.667 C 252.795 277.337,253.142 275.800,253.271 275.250 C 253.399 274.700,253.616 273.725,253.753 273.083 C 253.889 272.442,254.114 271.429,254.253 270.833 C 254.504 269.754,254.755 268.630,255.240 266.417 C 255.381 265.775,255.609 264.762,255.747 264.167 C 255.886 263.571,256.111 262.558,256.247 261.917 C 256.384 261.275,256.601 260.300,256.728 259.750 C 257.974 254.396,258.060 253.794,257.643 253.346 C 257.473 253.164,257.333 252.936,257.333 252.841 C 257.333 252.614,256.033 250.161,255.732 249.820 C 255.605 249.675,255.500 249.432,255.500 249.279 C 255.500 248.982,255.247 248.901,255.094 249.149 " stroke="none" fill="#44a7be" fill-rule="evenodd"></path><path id="path7" d="M141.875 336.782 C 142.035 336.823,142.298 336.823,142.458 336.782 C 142.619 336.740,142.487 336.705,142.167 336.705 C 141.846 336.705,141.715 336.740,141.875 336.782 M140.667 337.417 C 140.978 337.737,141.270 338.000,141.315 338.000 C 141.361 338.000,141.144 337.737,140.833 337.417 C 140.522 337.096,140.230 336.833,140.185 336.833 C 140.139 336.833,140.356 337.096,140.667 337.417 " stroke="none" fill="#6690bf" fill-rule="evenodd"></path><path id="path8" d="" stroke="none" fill="#5480a2" fill-rule="evenodd"></path></g></svg>