<?xml version="1.0" encoding="UTF-8"?>
<!DOCTYPE svg PUBLIC "-//W3C//DTD SVG 1.1//EN" "http://www.w3.org/Graphics/SVG/1.1/DTD/svg11.dtd">
<svg xmlns="http://www.w3.org/2000/svg" version="1.1" width="1920px" height="1080px" style="shape-rendering:geometricPrecision; text-rendering:geometricPrecision; image-rendering:optimizeQuality; fill-rule:evenodd; clip-rule:evenodd" xmlns:xlink="http://www.w3.org/1999/xlink">
<g><path style="opacity:0.975" fill="#52585d" d="M 93.5,188.5 C 670.833,188.333 1248.17,188.5 1825.5,189C 1871.23,198.066 1898.07,225.566 1906,271.5C 1906.67,436.833 1906.67,602.167 1906,767.5C 1899.13,810.039 1874.96,837.206 1833.5,849C 1828.86,849.83 1824.19,850.497 1819.5,851C 1246.17,851.667 672.833,851.667 99.5,851C 55.761,845.596 27.5943,821.763 15,779.5C 14.1473,775.531 13.4807,771.531 13,767.5C 12.3333,602.167 12.3333,436.833 13,271.5C 21.1153,225.553 47.9486,197.886 93.5,188.5 Z M 102.5,213.5 C 673.833,213.333 1245.17,213.5 1816.5,214C 1851.4,218.561 1872.56,238.061 1880,272.5C 1880.67,437.167 1880.67,601.833 1880,766.5C 1872.96,799.544 1852.79,819.044 1819.5,825C 1246.17,825.667 672.833,825.667 99.5,825C 66.2114,819.044 46.0448,799.544 39,766.5C 38.3333,601.833 38.3333,437.167 39,272.5C 46.611,238.05 67.7776,218.383 102.5,213.5 Z M 245.5,325.5 C 245.5,328.5 245.5,331.5 245.5,334.5C 245.54,342.187 245.207,349.854 244.5,357.5C 243.275,364.516 241.942,371.516 240.5,378.5C 238.677,384.791 237.011,391.124 235.5,397.5C 232.925,403.668 230.591,410.001 228.5,416.5C 224.655,424.007 220.989,431.674 217.5,439.5C 212.007,450.49 206.007,461.157 199.5,471.5C 199.167,471.5 198.833,471.5 198.5,471.5C 197.479,467.02 196.813,462.353 196.5,457.5C 196.002,452.848 195.669,448.181 195.5,443.5C 195.575,430.754 196.575,418.087 198.5,405.5C 202.691,388.267 208.691,371.6 216.5,355.5C 222.107,347.32 228.44,339.654 235.5,332.5C 238.851,330.141 242.185,327.808 245.5,325.5 Z M 678.5,333.5 C 708.764,333.1 723.097,348.1 721.5,378.5C 693.833,378.5 666.167,378.5 638.5,378.5C 640.392,359.845 649.392,346.012 665.5,337C 669.919,335.648 674.252,334.481 678.5,333.5 Z M 1177.5,403.5 C 1179.5,403.5 1181.5,403.5 1183.5,403.5C 1183.67,416.837 1183.5,430.171 1183,443.5C 1163.6,456.643 1142.44,461.143 1119.5,457C 1112.43,453.404 1108.76,447.571 1108.5,439.5C 1111.35,426.145 1119.35,417.312 1132.5,413C 1147.27,408.099 1162.27,404.932 1177.5,403.5 Z M 222.5,571.5 C 224.654,577.117 226.654,582.784 228.5,588.5C 230.894,601.047 231.894,613.714 231.5,626.5C 230.466,634.635 228.8,642.635 226.5,650.5C 221.473,662.217 215.14,673.217 207.5,683.5C 202.5,689.167 197.167,694.5 191.5,699.5C 190.395,700.6 189.062,701.267 187.5,701.5C 186.014,684.483 186.347,667.483 188.5,650.5C 191.028,639.389 194.028,628.389 197.5,617.5C 202.634,605.232 208.301,593.232 214.5,581.5C 217.167,578.167 219.833,574.833 222.5,571.5 Z M 854.5,597.5 C 866.876,597.157 879.209,597.657 891.5,599C 909.789,604.398 917.289,616.565 914,635.5C 912.586,644.23 908.086,650.73 900.5,655C 894.151,657.92 887.485,659.587 880.5,660C 871.84,660.5 863.173,660.666 854.5,660.5C 854.5,639.5 854.5,618.5 854.5,597.5 Z"/></g>
<g><path style="opacity:0.96" fill="#52585d" d="M 1605.5,227.5 C 1625.96,227.79 1635.46,238.124 1634,258.5C 1630.37,270.319 1622.37,276.653 1610,277.5C 1589.89,273.284 1582.56,261.284 1588,241.5C 1592.24,234.755 1598.07,230.088 1605.5,227.5 Z"/></g>
<g><path style="opacity:0.991" fill="#3398d7" d="M 181.5,247.5 C 162.366,300.903 143.032,354.236 123.5,407.5C 120.932,402.475 118.932,397.141 117.5,391.5C 135.405,344.46 152.738,297.127 169.5,249.5C 173.394,248.407 177.394,247.74 181.5,247.5 Z"/></g>
<g><path style="opacity:0.989" fill="#309dd5" d="M 181.5,247.5 C 183.099,247.232 184.432,247.566 185.5,248.5C 164.987,302.883 144.987,357.549 125.5,412.5C 124.463,411.07 123.796,409.403 123.5,407.5C 143.032,354.236 162.366,300.903 181.5,247.5 Z"/></g>
<g><path style="opacity:0.994" fill="#2ea0d3" d="M 185.5,248.5 C 187.735,248.205 189.735,248.539 191.5,249.5C 171.068,306.806 150.068,363.806 128.5,420.5C 127.108,417.993 126.108,415.327 125.5,412.5C 144.987,357.549 164.987,302.883 185.5,248.5 Z"/></g>
<g><path style="opacity:0.994" fill="#2ca3d1" d="M 191.5,249.5 C 192.791,249.263 193.791,249.596 194.5,250.5C 173.734,308.806 152.401,366.806 130.5,424.5C 129.655,423.329 128.989,421.995 128.5,420.5C 150.068,363.806 171.068,306.806 191.5,249.5 Z"/></g>
<g><path style="opacity:0.987" fill="#3793da" d="M 169.5,249.5 C 152.738,297.127 135.405,344.46 117.5,391.5C 116.629,388.888 115.963,386.221 115.5,383.5C 132.47,339.928 148.47,295.928 163.5,251.5C 165.421,250.637 167.421,249.971 169.5,249.5 Z"/></g>
<g><path style="opacity:0.993" fill="#2aa6cf" d="M 194.5,250.5 C 197.152,250.41 199.485,251.076 201.5,252.5C 178.929,312.662 156.595,372.995 134.5,433.5C 132.796,430.744 131.463,427.744 130.5,424.5C 152.401,366.806 173.734,308.806 194.5,250.5 Z"/></g>
<g><path style="opacity:0.985" fill="#3991dc" d="M 163.5,251.5 C 148.47,295.928 132.47,339.928 115.5,383.5C 114.583,380.583 113.916,377.583 113.5,374.5C 128.931,335.217 143.598,295.55 157.5,255.5C 159.118,253.684 161.118,252.351 163.5,251.5 Z"/></g>
<g><path style="opacity:0.994" fill="#27aacd" d="M 201.5,252.5 C 203.403,252.796 205.07,253.463 206.5,254.5C 184.208,317.049 161.541,379.383 138.5,441.5C 136.659,439.151 135.326,436.485 134.5,433.5C 156.595,372.995 178.929,312.662 201.5,252.5 Z"/></g>
<g><path style="opacity:0.993" fill="#24adcb" d="M 206.5,254.5 C 207.609,254.557 208.609,254.89 209.5,255.5C 186.5,318.833 163.5,382.167 140.5,445.5C 139.326,444.486 138.66,443.153 138.5,441.5C 161.541,379.383 184.208,317.049 206.5,254.5 Z"/></g>
<g><path style="opacity:0.964" fill="#3d8cdf" d="M 157.5,255.5 C 143.598,295.55 128.931,335.217 113.5,374.5C 109.195,336.384 118.029,301.717 140,270.5C 145.137,264.518 150.97,259.518 157.5,255.5 Z"/></g>
<g><path style="opacity:0.994" fill="#21b1c8" d="M 209.5,255.5 C 213.151,256.659 216.485,258.326 219.5,260.5C 195.775,326.279 171.775,391.946 147.5,457.5C 144.677,453.864 142.344,449.864 140.5,445.5C 163.5,382.167 186.5,318.833 209.5,255.5 Z"/></g>
<g><path style="opacity:0.995" fill="#1db8c4" d="M 219.5,260.5 C 222.744,261.463 225.744,262.796 228.5,264.5C 203.441,332.009 178.774,399.675 154.5,467.5C 151.687,464.554 149.354,461.221 147.5,457.5C 171.775,391.946 195.775,326.279 219.5,260.5 Z"/></g>
<g><path style="opacity:0.995" fill="#19bcc2" d="M 228.5,264.5 C 230.153,264.66 231.486,265.326 232.5,266.5C 207.504,335.083 182.504,403.749 157.5,472.5C 156.11,471.101 155.11,469.434 154.5,467.5C 178.774,399.675 203.441,332.009 228.5,264.5 Z"/></g>
<g><path style="opacity:0.995" fill="#17bfc0" d="M 232.5,266.5 C 234.153,266.66 235.486,267.326 236.5,268.5C 211.68,338.117 186.347,407.45 160.5,476.5C 159.026,475.564 158.026,474.23 157.5,472.5C 182.504,403.749 207.504,335.083 232.5,266.5 Z"/></g>
<g><path style="opacity:0.979" fill="#52585d" d="M 1500.5,266.5 C 1501.5,266.5 1502.5,266.5 1503.5,266.5C 1503.5,281.5 1503.5,296.5 1503.5,311.5C 1522.84,311.333 1542.17,311.5 1561.5,312C 1560.05,320.781 1558.71,329.615 1557.5,338.5C 1539.5,338.5 1521.5,338.5 1503.5,338.5C 1503.33,370.835 1503.5,403.168 1504,435.5C 1507.65,456.261 1519.82,463.761 1540.5,458C 1545.51,456.555 1550.34,454.721 1555,452.5C 1558.45,460.353 1561.62,468.353 1564.5,476.5C 1559.97,480.603 1554.63,483.436 1548.5,485C 1533.98,488.754 1519.31,489.421 1504.5,487C 1484.36,480.861 1472.86,467.361 1470,446.5C 1469.5,410.502 1469.33,374.502 1469.5,338.5C 1457.83,338.5 1446.17,338.5 1434.5,338.5C 1434.5,329.5 1434.5,320.5 1434.5,311.5C 1446.17,311.5 1457.83,311.5 1469.5,311.5C 1469.5,298.167 1469.5,284.833 1469.5,271.5C 1480.05,270.353 1490.38,268.686 1500.5,266.5 Z"/></g>
<g><path style="opacity:0.994" fill="#14c4bd" d="M 236.5,268.5 C 240.151,269.659 243.485,271.326 246.5,273.5C 235.987,300.549 225.987,327.883 216.5,355.5C 208.691,371.6 202.691,388.267 198.5,405.5C 188.167,432.833 177.833,460.167 167.5,487.5C 164.745,484.083 162.412,480.417 160.5,476.5C 186.347,407.45 211.68,338.117 236.5,268.5 Z"/></g>
<g><path style="opacity:0.969" fill="#0fcbb9" d="M 246.5,273.5 C 249.992,274.41 252.992,276.076 255.5,278.5C 248.32,296.215 241.653,314.215 235.5,332.5C 228.44,339.654 222.107,347.32 216.5,355.5C 225.987,327.883 235.987,300.549 246.5,273.5 Z"/></g>
<g><path style="opacity:0.987" fill="#0cd3b4" d="M 255.5,278.5 C 259.783,279.975 263.783,281.975 267.5,284.5C 263.742,294.605 260.075,304.772 256.5,315C 256.836,316.03 257.503,316.53 258.5,316.5C 253.644,318.76 249.311,321.76 245.5,325.5C 242.185,327.808 238.851,330.141 235.5,332.5C 241.653,314.215 248.32,296.215 255.5,278.5 Z"/></g>
<g><path style="opacity:0.967" fill="#0cd7b1" d="M 267.5,284.5 C 279.044,290.765 290.044,297.765 300.5,305.5C 286.062,307.126 272.062,310.793 258.5,316.5C 257.503,316.53 256.836,316.03 256.5,315C 260.075,304.772 263.742,294.605 267.5,284.5 Z"/></g>
<g><path style="opacity:0.968" fill="#52585d" d="M 495.5,306.5 C 517.258,304.844 538.258,308.011 558.5,316C 564.186,318.506 569.519,321.506 574.5,325C 570.449,333.543 565.783,341.709 560.5,349.5C 541.172,337.335 520.172,332.501 497.5,335C 484.231,337.414 478.064,345.248 479,358.5C 480.431,361.927 482.598,364.76 485.5,367C 491.848,370.45 498.515,373.116 505.5,375C 522.917,378.519 539.583,384.186 555.5,392C 576.238,404.323 584.405,422.489 580,446.5C 573.227,469.832 557.727,483.332 533.5,487C 506.602,491.351 480.602,488.351 455.5,478C 448.122,474.652 441.455,470.318 435.5,465C 440.286,456.596 445.452,448.43 451,440.5C 474.823,458.749 501.323,464.582 530.5,458C 545.207,451.551 549.04,441.051 542,426.5C 536.74,420.45 530.24,416.284 522.5,414C 512.007,410.392 501.341,407.392 490.5,405C 474.971,401.49 461.805,393.99 451,382.5C 442.629,368.198 441.296,353.198 447,337.5C 453.062,325.209 462.562,316.709 475.5,312C 482.142,309.581 488.809,307.748 495.5,306.5 Z"/></g>
<g><path style="opacity:0.976" fill="#52585d" d="M 671.5,306.5 C 692.893,303.948 712.56,308.448 730.5,320C 749.001,336.815 757.335,357.815 755.5,383C 755.419,389.859 755.085,396.693 754.5,403.5C 715.167,403.5 675.833,403.5 636.5,403.5C 637.41,445.574 658.744,463.74 700.5,458C 713.664,455.224 725.997,450.391 737.5,443.5C 742.641,451.101 747.308,459.101 751.5,467.5C 720.441,488.486 686.774,493.986 650.5,484C 624.901,474.983 609.401,457.15 604,430.5C 599.37,405.373 601.036,380.707 609,356.5C 620.861,328.458 641.695,311.792 671.5,306.5 Z M 678.5,333.5 C 674.252,334.481 669.919,335.648 665.5,337C 649.392,346.012 640.392,359.845 638.5,378.5C 666.167,378.5 693.833,378.5 721.5,378.5C 723.097,348.1 708.764,333.1 678.5,333.5 Z"/></g>
<g><path style="opacity:0.969" fill="#52585d" d="M 871.5,306.5 C 879.174,306.334 886.841,306.5 894.5,307C 907.151,308.573 917.317,314.407 925,324.5C 941.758,315.37 959.591,309.537 978.5,307C 992.828,304.878 1006.49,306.878 1019.5,313C 1033.55,323.088 1040.38,336.921 1040,354.5C 1040.5,397.832 1040.67,441.165 1040.5,484.5C 1028.83,484.5 1017.17,484.5 1005.5,484.5C 1005.97,441.466 1005.47,398.466 1004,355.5C 1000.62,342.127 991.952,335.793 978,336.5C 962.155,337.45 947.155,341.45 933,348.5C 932.5,393.832 932.333,439.165 932.5,484.5C 921.167,484.5 909.833,484.5 898.5,484.5C 898.949,442.142 898.449,399.809 897,357.5C 894.665,342.843 885.998,335.843 871,336.5C 855.494,337.543 840.827,341.543 827,348.5C 826.5,393.832 826.333,439.165 826.5,484.5C 814.833,484.5 803.167,484.5 791.5,484.5C 791.5,426.5 791.5,368.5 791.5,310.5C 803.159,309.427 814.826,308.427 826.5,307.5C 826.334,312.511 826.501,317.511 827,322.5C 841.047,314.654 855.88,309.32 871.5,306.5 Z"/></g>
<g><path style="opacity:0.969" fill="#52585d" d="M 1144.5,306.5 C 1159.46,305.429 1174.13,306.929 1188.5,311C 1199.88,315.043 1208.04,322.543 1213,333.5C 1215.81,340.571 1217.48,347.904 1218,355.5C 1218.5,398.499 1218.67,441.499 1218.5,484.5C 1207.83,484.5 1197.17,484.5 1186.5,484.5C 1186.25,479.481 1185.75,474.481 1185,469.5C 1159.27,487.646 1131.1,492.813 1100.5,485C 1076.33,473.218 1067.49,454.052 1074,427.5C 1079.24,412.931 1088.74,402.097 1102.5,395C 1119.22,386.76 1136.89,381.76 1155.5,380C 1164.83,379.024 1174.16,378.191 1183.5,377.5C 1186.57,343.178 1171.24,330.012 1137.5,338C 1122.18,341.657 1108.01,347.824 1095,356.5C 1094.23,356.355 1093.56,356.022 1093,355.5C 1088.12,348.232 1083.62,340.732 1079.5,333C 1091.29,323.432 1104.63,316.432 1119.5,312C 1127.87,309.696 1136.2,307.862 1144.5,306.5 Z M 1177.5,403.5 C 1162.27,404.932 1147.27,408.099 1132.5,413C 1119.35,417.312 1111.35,426.145 1108.5,439.5C 1108.76,447.571 1112.43,453.404 1119.5,457C 1142.44,461.143 1163.6,456.643 1183,443.5C 1183.5,430.171 1183.67,416.837 1183.5,403.5C 1181.5,403.5 1179.5,403.5 1177.5,403.5 Z"/></g>
<g><path style="opacity:0.971" fill="#52585d" d="M 1349.5,306.5 C 1362.05,305.702 1374.38,306.869 1386.5,310C 1403.13,317.414 1412.3,330.247 1414,348.5C 1414.5,393.832 1414.67,439.165 1414.5,484.5C 1403.17,484.5 1391.83,484.5 1380.5,484.5C 1380.96,442.14 1380.46,399.806 1379,357.5C 1377.36,347.194 1371.53,340.694 1361.5,338C 1340.55,335.756 1320.55,339.256 1301.5,348.5C 1300.5,393.828 1300.17,439.162 1300.5,484.5C 1288.83,484.5 1277.17,484.5 1265.5,484.5C 1265.33,426.832 1265.5,369.166 1266,311.5C 1277.39,309.549 1288.89,308.216 1300.5,307.5C 1300.17,312.544 1300.51,317.544 1301.5,322.5C 1316.75,314.527 1332.75,309.194 1349.5,306.5 Z"/></g>
<g><path style="opacity:0.969" fill="#52585d" d="M 1738.5,306.5 C 1762.3,304.49 1784.3,309.657 1804.5,322C 1800.83,331.172 1796.5,340.005 1791.5,348.5C 1773.28,337.686 1753.95,334.186 1733.5,338C 1717.27,344.566 1707.11,356.399 1703,373.5C 1698.07,392.938 1698.41,412.271 1704,431.5C 1709.42,444.585 1718.92,453.085 1732.5,457C 1746.12,459.653 1759.46,458.653 1772.5,454C 1779.88,450.892 1787.05,447.392 1794,443.5C 1795.77,444.34 1797.1,445.673 1798,447.5C 1801.33,453.5 1804.67,459.5 1808,465.5C 1808.68,466.784 1808.52,467.951 1807.5,469C 1776.78,489.436 1743.78,494.103 1708.5,483C 1686.38,473.882 1672.54,457.715 1667,434.5C 1661.34,408.443 1662.67,382.776 1671,357.5C 1684.22,328.103 1706.72,311.103 1738.5,306.5 Z"/></g>
<g><path style="opacity:0.986" fill="#52585d" d="M 1618.5,307.5 C 1621.5,307.5 1624.5,307.5 1627.5,307.5C 1627.5,366.5 1627.5,425.5 1627.5,484.5C 1616.17,484.5 1604.83,484.5 1593.5,484.5C 1593.5,426.5 1593.5,368.5 1593.5,310.5C 1602.05,310.144 1610.38,309.144 1618.5,307.5 Z"/></g>
<g><path style="opacity:0.987" fill="#9b9f9f" d="M 300.5,305.5 C 305.815,308.65 309.981,312.983 313,318.5C 315.753,324.591 317.587,330.924 318.5,337.5C 294.228,336.36 269.895,335.36 245.5,334.5C 245.5,331.5 245.5,328.5 245.5,325.5C 249.311,321.76 253.644,318.76 258.5,316.5C 272.062,310.793 286.062,307.126 300.5,305.5 Z"/></g>
<g><path style="opacity:0.994" fill="#949899" d="M 245.5,334.5 C 269.895,335.36 294.228,336.36 318.5,337.5C 320.255,344.923 320.921,352.589 320.5,360.5C 295.094,359.832 269.761,358.832 244.5,357.5C 245.207,349.854 245.54,342.187 245.5,334.5 Z"/></g>
<g><path style="opacity:0.988" fill="#8e9293" d="M 244.5,357.5 C 269.761,358.832 295.094,359.832 320.5,360.5C 320.609,367.196 320.276,373.863 319.5,380.5C 293.173,379.604 266.84,378.938 240.5,378.5C 241.942,371.516 243.275,364.516 244.5,357.5 Z"/></g>
<g><path style="opacity:0.989" fill="#878c8d" d="M 240.5,378.5 C 266.84,378.938 293.173,379.604 319.5,380.5C 318.326,387.398 316.659,394.065 314.5,400.5C 287.992,399.933 261.659,398.933 235.5,397.5C 237.011,391.124 238.677,384.791 240.5,378.5 Z"/></g>
<g><path style="opacity:0.988" fill="#818688" d="M 235.5,397.5 C 261.659,398.933 287.992,399.933 314.5,400.5C 313.303,406.956 311.636,413.289 309.5,419.5C 282.331,418.808 255.331,417.808 228.5,416.5C 230.591,410.001 232.925,403.668 235.5,397.5 Z"/></g>
<g><path style="opacity:0.973" fill="#0fcbb9" d="M 198.5,405.5 C 196.575,418.087 195.575,430.754 195.5,443.5C 188.5,461.5 181.5,479.5 174.5,497.5C 172.167,494.167 169.833,490.833 167.5,487.5C 177.833,460.167 188.167,432.833 198.5,405.5 Z"/></g>
<g><path style="opacity:0.988" fill="#7b7f82" d="M 228.5,416.5 C 255.331,417.808 282.331,418.808 309.5,419.5C 306.833,427.167 304.167,434.833 301.5,442.5C 273.426,441.873 245.426,440.873 217.5,439.5C 220.989,431.674 224.655,424.007 228.5,416.5 Z"/></g>
<g><path style="opacity:0.981" fill="#0cd0b6" d="M 195.5,443.5 C 195.669,448.181 196.002,452.848 196.5,457.5C 190.32,472.548 184.653,487.882 179.5,503.5C 178.527,501.861 177.194,500.527 175.5,499.5C 175.167,498.833 174.833,498.167 174.5,497.5C 181.5,479.5 188.5,461.5 195.5,443.5 Z"/></g>
<g><path style="opacity:0.986" fill="#717679" d="M 217.5,439.5 C 245.426,440.873 273.426,441.873 301.5,442.5C 297.347,453.465 292.68,464.131 287.5,474.5C 258.342,473.005 229.009,472.005 199.5,471.5C 206.007,461.157 212.007,450.49 217.5,439.5 Z"/></g>
<g><path style="opacity:0.991" fill="#6b7074" d="M 198.5,471.5 C 198.833,471.5 199.167,471.5 199.5,471.5C 229.009,472.005 258.342,473.005 287.5,474.5C 284.594,481.981 280.928,488.981 276.5,495.5C 251.489,495.187 226.489,494.52 201.5,493.5C 199.572,486.332 198.572,478.999 198.5,471.5 Z"/></g>
<g><path style="opacity:1" fill="#0dd4b1" d="M 196.5,457.5 C 196.813,462.353 197.479,467.02 198.5,471.5C 198.572,478.999 199.572,486.332 201.5,493.5C 201.739,498.769 202.739,503.769 204.5,508.5C 206.584,520.833 209.917,532.833 214.5,544.5C 215.167,546.833 215.833,549.167 216.5,551.5C 215.061,549.64 213.395,547.973 211.5,546.5C 200.59,532.345 189.923,518.012 179.5,503.5C 184.653,487.882 190.32,472.548 196.5,457.5 Z"/></g>
<g><path style="opacity:1" fill="#3d8ddd" d="M 204.5,508.5 C 210.112,510.639 215.446,513.306 220.5,516.5C 219.119,526.082 217.119,535.415 214.5,544.5C 209.917,532.833 206.584,520.833 204.5,508.5 Z"/></g>
<g><path style="opacity:0.982" fill="#61666b" d="M 201.5,493.5 C 226.489,494.52 251.489,495.187 276.5,495.5C 269.385,509.94 261.051,523.607 251.5,536.5C 248.167,534.5 244.833,532.5 241.5,530.5C 238.403,527.112 234.736,524.445 230.5,522.5C 227.202,520.515 223.869,518.515 220.5,516.5C 215.446,513.306 210.112,510.639 204.5,508.5C 202.739,503.769 201.739,498.769 201.5,493.5 Z"/></g>
<g><path style="opacity:1" fill="#3892da" d="M 220.5,516.5 C 223.869,518.515 227.202,520.515 230.5,522.5C 228.119,536.417 225.119,550.084 221.5,563.5C 219.321,559.797 217.655,555.797 216.5,551.5C 215.833,549.167 215.167,546.833 214.5,544.5C 217.119,535.415 219.119,526.082 220.5,516.5 Z"/></g>
<g><path style="opacity:0.984" fill="#3498d7" d="M 230.5,522.5 C 234.736,524.445 238.403,527.112 241.5,530.5C 237.657,550.06 233.324,569.394 228.5,588.5C 226.654,582.784 224.654,577.117 222.5,571.5C 222.425,568.794 222.092,566.127 221.5,563.5C 225.119,550.084 228.119,536.417 230.5,522.5 Z"/></g>
<g><path style="opacity:0.99" fill="#737576" d="M 175.5,499.5 C 177.194,500.527 178.527,501.861 179.5,503.5C 189.923,518.012 200.59,532.345 211.5,546.5C 190.451,545.681 169.451,544.681 148.5,543.5C 156.707,528.305 165.707,513.638 175.5,499.5 Z"/></g>
<g><path style="opacity:0.983" fill="#2f9fd3" d="M 241.5,530.5 C 244.833,532.5 248.167,534.5 251.5,536.5C 251.5,536.833 251.5,537.167 251.5,537.5C 245.579,567.451 238.913,597.118 231.5,626.5C 231.894,613.714 230.894,601.047 228.5,588.5C 233.324,569.394 237.657,550.06 241.5,530.5 Z"/></g>
<g><path style="opacity:0.982" fill="#2ca3d1" d="M 251.5,537.5 C 252.872,538.512 254.205,539.512 255.5,540.5C 237.39,619.284 219.724,698.284 202.5,777.5C 200.847,777.34 199.514,776.674 198.5,775.5C 208.276,734.05 217.61,692.383 226.5,650.5C 228.8,642.635 230.466,634.635 231.5,626.5C 238.913,597.118 245.579,567.451 251.5,537.5 Z"/></g>
<g><path style="opacity:0.995" fill="#2aa6cf" d="M 255.5,540.5 C 257.833,542.167 259.833,544.167 261.5,546.5C 243.833,624.5 226.167,702.5 208.5,780.5C 206.181,780.008 204.181,779.008 202.5,777.5C 219.724,698.284 237.39,619.284 255.5,540.5 Z"/></g>
<g><path style="opacity:0.996" fill="#27aacd" d="M 261.5,546.5 C 263.833,548.167 265.833,550.167 267.5,552.5C 250.244,629.782 233.244,707.115 216.5,784.5C 213.515,783.674 210.849,782.341 208.5,780.5C 226.167,702.5 243.833,624.5 261.5,546.5 Z"/></g>
<g><path style="opacity:0.996" fill="#24adcb" d="M 267.5,552.5 C 268.833,553.167 269.833,554.167 270.5,555.5C 253.191,632.073 236.191,708.739 219.5,785.5C 218.209,785.737 217.209,785.404 216.5,784.5C 233.244,707.115 250.244,629.782 267.5,552.5 Z"/></g>
<g><path style="opacity:0.977" fill="#52585d" d="M 502.5,554.5 C 535.899,551.808 566.233,559.974 593.5,579C 586.464,590.235 579.298,601.402 572,612.5C 555.59,601.086 537.423,594.752 517.5,593.5C 506.514,592.945 497.014,596.278 489,603.5C 484.544,612.522 486.044,620.356 493.5,627C 509.888,635.692 526.888,643.026 544.5,649C 557.222,653.525 568.889,659.859 579.5,668C 595.453,684.283 601.287,703.783 597,726.5C 593.529,744.287 584.029,757.787 568.5,767C 550.662,776.269 531.662,780.769 511.5,780.5C 488.77,780.321 467.103,775.488 446.5,766C 439.738,762.389 433.404,758.223 427.5,753.5C 434.531,742.967 441.364,732.301 448,721.5C 448.561,720.978 449.228,720.645 450,720.5C 471.606,735.193 495.44,741.36 521.5,739C 528.656,738.059 535.323,735.726 541.5,732C 550.063,722.567 550.73,712.567 543.5,702C 538.327,697.91 532.66,694.577 526.5,692C 505.633,684.157 485.3,675.157 465.5,665C 443.869,651.564 434.702,632.064 438,606.5C 440.466,589.071 449.299,575.904 464.5,567C 476.596,560.69 489.263,556.523 502.5,554.5 Z"/></g>
<g><path style="opacity:0.977" fill="#52585d" d="M 1369.5,554.5 C 1400.72,551.389 1429.72,557.889 1456.5,574C 1450.53,586.106 1444.2,597.94 1437.5,609.5C 1417.58,596.604 1395.91,592.104 1372.5,596C 1353.27,601.564 1341.1,614.064 1336,633.5C 1330.81,657.027 1331.47,680.36 1338,703.5C 1345.63,723.137 1359.8,734.637 1380.5,738C 1401.43,740.435 1420.76,735.935 1438.5,724.5C 1445.58,734.975 1451.91,745.975 1457.5,757.5C 1426.07,778.63 1391.74,785.13 1354.5,777C 1323.93,770.092 1302.93,752.092 1291.5,723C 1280.87,689.86 1279.7,656.36 1288,622.5C 1300.23,581.816 1327.4,559.149 1369.5,554.5 Z"/></g>
<g><path style="opacity:0.977" fill="#52585d" d="M 1716.5,554.5 C 1749.95,551.61 1780.28,559.777 1807.5,579C 1800.96,590.574 1793.8,601.741 1786,612.5C 1769.77,600.702 1751.61,594.369 1731.5,593.5C 1721.98,593.212 1713.31,595.712 1705.5,601C 1697.15,613.115 1699.49,622.782 1712.5,630C 1731.6,638.552 1750.94,646.552 1770.5,654C 1807.72,670.925 1820.22,699.091 1808,738.5C 1798.96,757.112 1784.46,769.279 1764.5,775C 1725.83,784.786 1688.83,780.453 1653.5,762C 1649.19,759.682 1645.52,756.682 1642.5,753C 1648.82,741.493 1655.99,730.659 1664,720.5C 1681.99,732.551 1701.82,738.884 1723.5,739.5C 1735,740.31 1745.66,737.81 1755.5,732C 1765.64,721.968 1765.97,711.634 1756.5,701C 1738.91,691.132 1720.58,682.799 1701.5,676C 1686.01,670.512 1672.84,661.679 1662,649.5C 1647.7,626.233 1648.03,603.233 1663,580.5C 1669.7,573.126 1677.54,567.292 1686.5,563C 1696.36,559.207 1706.36,556.373 1716.5,554.5 Z"/></g>
<g><path style="opacity:0.996" fill="#22b1c9" d="M 270.5,555.5 C 273.903,557.9 276.57,560.9 278.5,564.5C 262.142,639.262 245.475,713.929 228.5,788.5C 225.084,788.472 222.084,787.472 219.5,785.5C 236.191,708.739 253.191,632.073 270.5,555.5 Z"/></g>
<g><path style="opacity:0.97" fill="#52585d" d="M 627.5,558.5 C 675.5,558.5 723.5,558.5 771.5,558.5C 771.5,571.833 771.5,585.167 771.5,598.5C 739.5,598.5 707.5,598.5 675.5,598.5C 675.5,614.167 675.5,629.833 675.5,645.5C 703.167,645.5 730.833,645.5 758.5,645.5C 756.553,658.463 754.886,671.463 753.5,684.5C 727.5,684.5 701.5,684.5 675.5,684.5C 675.5,701.5 675.5,718.5 675.5,735.5C 708.167,735.5 740.833,735.5 773.5,735.5C 773.5,748.833 773.5,762.167 773.5,775.5C 724.833,775.5 676.167,775.5 627.5,775.5C 627.5,703.167 627.5,630.833 627.5,558.5 Z"/></g>
<g><path style="opacity:0.977" fill="#52585d" d="M 806.5,558.5 C 833.502,558.333 860.502,558.5 887.5,559C 908.908,559.134 927.908,565.801 944.5,579C 962.752,598.939 968.252,622.106 961,648.5C 954.326,669.174 940.826,683.341 920.5,691C 938.544,716.921 956.71,742.754 975,768.5C 976.202,770.677 976.702,773.011 976.5,775.5C 958.821,775.833 941.154,775.5 923.5,774.5C 906.167,748.833 888.833,723.167 871.5,697.5C 865.872,696.505 860.206,696.171 854.5,696.5C 854.5,722.833 854.5,749.167 854.5,775.5C 838.5,775.5 822.5,775.5 806.5,775.5C 806.5,703.167 806.5,630.833 806.5,558.5 Z M 854.5,597.5 C 854.5,618.5 854.5,639.5 854.5,660.5C 863.173,660.666 871.84,660.5 880.5,660C 887.485,659.587 894.151,657.92 900.5,655C 908.086,650.73 912.586,644.23 914,635.5C 917.289,616.565 909.789,604.398 891.5,599C 879.209,597.657 866.876,597.157 854.5,597.5 Z"/></g>
<g><path style="opacity:0.975" fill="#52585d" d="M 971.5,558.5 C 988.18,558.167 1004.85,558.501 1021.5,559.5C 1039.44,614.313 1057.77,668.98 1076.5,723.5C 1094.96,668.953 1113.13,614.287 1131,559.5C 1147.42,558.508 1163.92,558.175 1180.5,558.5C 1180.19,561.947 1179.35,565.28 1178,568.5C 1152.33,637.344 1127.16,706.344 1102.5,775.5C 1084.59,775.826 1066.76,775.492 1049,774.5C 1023.33,704.833 997.667,635.167 972,565.5C 971.503,563.19 971.337,560.857 971.5,558.5 Z"/></g>
<g><path style="opacity:0.994" fill="#52585d" d="M 1203.5,558.5 C 1219.17,558.5 1234.83,558.5 1250.5,558.5C 1250.5,630.833 1250.5,703.167 1250.5,775.5C 1234.83,775.5 1219.17,775.5 1203.5,775.5C 1203.5,703.167 1203.5,630.833 1203.5,558.5 Z"/></g>
<g><path style="opacity:0.973" fill="#52585d" d="M 1480.5,558.5 C 1528.5,558.5 1576.5,558.5 1624.5,558.5C 1624.5,571.833 1624.5,585.167 1624.5,598.5C 1592.5,598.5 1560.5,598.5 1528.5,598.5C 1528.5,614.167 1528.5,629.833 1528.5,645.5C 1556.17,645.167 1583.84,645.5 1611.5,646.5C 1609.45,659.021 1607.45,671.521 1605.5,684C 1579.84,684.5 1554.17,684.667 1528.5,684.5C 1528.5,701.5 1528.5,718.5 1528.5,735.5C 1560.83,735.5 1593.17,735.5 1625.5,735.5C 1625.5,748.833 1625.5,762.167 1625.5,775.5C 1577.17,775.5 1528.83,775.5 1480.5,775.5C 1480.5,703.167 1480.5,630.833 1480.5,558.5 Z"/></g>
<g><path style="opacity:0.994" fill="#1fb4c7" d="M 278.5,564.5 C 279.833,565.167 280.833,566.167 281.5,567.5C 264.216,641.238 247.55,715.238 231.5,789.5C 230.209,789.737 229.209,789.404 228.5,788.5C 245.475,713.929 262.142,639.262 278.5,564.5 Z"/></g>
<g><path style="opacity:0.986" fill="#6a6d70" d="M 148.5,543.5 C 169.451,544.681 190.451,545.681 211.5,546.5C 213.395,547.973 215.061,549.64 216.5,551.5C 217.655,555.797 219.321,559.797 221.5,563.5C 222.092,566.127 222.425,568.794 222.5,571.5C 219.833,574.833 217.167,578.167 214.5,581.5C 187.489,580.601 160.489,579.601 133.5,578.5C 137.67,566.491 142.67,554.825 148.5,543.5 Z"/></g>
<g><path style="opacity:0.995" fill="#1db8c4" d="M 281.5,567.5 C 284.898,570.627 287.565,574.293 289.5,578.5C 273.579,649.107 257.912,719.774 242.5,790.5C 238.731,790.756 235.064,790.423 231.5,789.5C 247.55,715.238 264.216,641.238 281.5,567.5 Z"/></g>
<g><path style="opacity:0.995" fill="#19bcc2" d="M 289.5,578.5 C 291.326,580.147 292.66,582.147 293.5,584.5C 277.566,652.915 262.233,721.582 247.5,790.5C 245.833,790.5 244.167,790.5 242.5,790.5C 257.912,719.774 273.579,649.107 289.5,578.5 Z"/></g>
<g><path style="opacity:0.994" fill="#17bfc0" d="M 293.5,584.5 C 295.4,586.619 297.066,588.953 298.5,591.5C 283.01,657.27 268.01,723.27 253.5,789.5C 251.5,789.833 249.5,790.167 247.5,790.5C 262.233,721.582 277.566,652.915 293.5,584.5 Z"/></g>
<g><path style="opacity:0.993" fill="#14c4bd" d="M 298.5,591.5 C 301.437,597.041 304.104,602.708 306.5,608.5C 293.349,666.773 280.349,725.106 267.5,783.5C 263.14,786.069 258.473,788.069 253.5,789.5C 268.01,723.27 283.01,657.27 298.5,591.5 Z"/></g>
<g><path style="opacity:0.988" fill="#63666a" d="M 133.5,578.5 C 160.489,579.601 187.489,580.601 214.5,581.5C 208.301,593.232 202.634,605.232 197.5,617.5C 172.16,617.055 146.827,616.389 121.5,615.5C 124.327,602.688 128.327,590.355 133.5,578.5 Z"/></g>
<g><path style="opacity:0.989" fill="#0fcbb9" d="M 306.5,608.5 C 309.602,614.802 311.936,621.469 313.5,628.5C 302.604,676.666 292.271,724.666 282.5,772.5C 278.348,777.318 273.348,780.985 267.5,783.5C 280.349,725.106 293.349,666.773 306.5,608.5 Z"/></g>
<g><path style="opacity:0.987" fill="#5c6065" d="M 121.5,615.5 C 146.827,616.389 172.16,617.055 197.5,617.5C 194.028,628.389 191.028,639.389 188.5,650.5C 163.828,650.015 139.161,649.348 114.5,648.5C 115.959,637.197 118.292,626.197 121.5,615.5 Z"/></g>
<g><path style="opacity:0.983" fill="#0bd0b6" d="M 313.5,628.5 C 315.579,633.878 316.913,639.544 317.5,645.5C 308.009,684.608 299.009,723.941 290.5,763.5C 288.547,767.12 285.881,770.12 282.5,772.5C 292.271,724.666 302.604,676.666 313.5,628.5 Z"/></g>
<g><path style="opacity:0.978" fill="#2e9fd3" d="M 226.5,650.5 C 217.61,692.383 208.276,734.05 198.5,775.5C 195.193,773.847 191.86,772.18 188.5,770.5C 194.961,741.528 201.294,712.528 207.5,683.5C 215.14,673.217 221.473,662.217 226.5,650.5 Z"/></g>
<g><path style="opacity:0.964" fill="#08d5b3" d="M 317.5,645.5 C 324.454,682.111 318.954,716.778 301,749.5C 297.723,754.414 294.223,759.08 290.5,763.5C 299.009,723.941 308.009,684.608 317.5,645.5 Z"/></g>
<g><path style="opacity:0.987" fill="#555a60" d="M 114.5,648.5 C 139.161,649.348 163.828,650.015 188.5,650.5C 186.347,667.483 186.014,684.483 187.5,701.5C 184.168,704.825 180.501,707.825 176.5,710.5C 160.216,718.152 143.216,722.819 125.5,724.5C 118.716,717.599 114.549,709.266 113,699.5C 111.133,682.441 111.633,665.441 114.5,648.5 Z"/></g>
<g><path style="opacity:0.982" fill="#3399d7" d="M 207.5,683.5 C 201.294,712.528 194.961,741.528 188.5,770.5C 184.628,768.403 180.961,766.069 177.5,763.5C 182.167,742.167 186.833,720.833 191.5,699.5C 197.167,694.5 202.5,689.167 207.5,683.5 Z"/></g>
<g><path style="opacity:0.988" fill="#3991db" d="M 191.5,699.5 C 186.833,720.833 182.167,742.167 177.5,763.5C 173.827,762 170.494,760 167.5,757.5C 170.766,742.671 174.1,727.838 177.5,713C 177.472,711.93 177.139,711.097 176.5,710.5C 180.501,707.825 184.168,704.825 187.5,701.5C 189.062,701.267 190.395,700.6 191.5,699.5 Z"/></g>
<g><path style="opacity:0.976" fill="#3d8bde" d="M 176.5,710.5 C 177.139,711.097 177.472,711.93 177.5,713C 174.1,727.838 170.766,742.671 167.5,757.5C 152.328,747.995 138.328,736.995 125.5,724.5C 143.216,722.819 160.216,718.152 176.5,710.5 Z"/></g>
</svg>
