<svg id="svg" version="1.1" xmlns="http://www.w3.org/2000/svg" xmlns:xlink="http://www.w3.org/1999/xlink" width="400" height="225" viewBox="0, 0, 400,225"><g id="svgg"><path id="path0" d="M41.721 52.681 C 41.464 52.848,28.061 89.564,28.082 90.045 C 28.132 91.168,34.611 101.728,36.503 103.770 C 36.770 104.059,37.776 105.368,38.738 106.679 C 40.651 109.286,44.980 114.792,45.117 114.792 C 45.164 114.792,45.025 114.343,44.809 113.794 C 44.593 113.245,44.028 111.393,43.554 109.679 C 43.081 107.965,42.605 106.281,42.498 105.938 C 42.198 104.980,41.481 100.604,41.363 99.018 C 41.305 98.240,41.150 96.479,41.018 95.104 C 39.962 84.104,43.670 74.026,51.042 67.861 C 53.251 66.013,58.845 63.958,61.665 63.958 C 62.111 63.958,62.528 63.874,62.591 63.771 C 63.090 62.963,42.630 52.091,41.721 52.681 M54.064 114.214 C 53.615 116.107,43.333 162.395,43.333 162.526 C 43.333 162.618,44.013 163.017,44.844 163.415 C 50.872 166.295,56.542 164.631,61.089 158.645 C 70.172 146.690,68.351 128.256,56.898 116.208 C 54.606 113.797,54.227 113.530,54.064 114.214 " stroke="none" fill="#1cbac4" fill-rule="evenodd"></path><path id="path1" d="M18.357 39.696 C 11.013 41.292,5.712 46.235,3.398 53.646 L 2.813 55.521 2.813 108.229 L 2.813 160.938 3.291 162.708 C 5.359 170.354,11.664 176.037,19.366 177.198 C 22.367 177.650,377.633 177.650,380.634 177.198 C 388.336 176.037,394.641 170.354,396.709 162.708 L 397.188 160.938 397.188 108.229 L 397.188 55.521 396.602 53.646 C 394.466 46.804,389.874 42.151,383.187 40.054 L 381.354 39.479 200.521 39.443 C 46.985 39.413,19.487 39.451,18.357 39.696 M381.146 45.069 C 385.401 46.351,388.682 49.109,390.524 52.953 C 391.991 56.013,391.892 51.789,391.829 108.958 L 391.771 160.521 391.128 162.316 C 389.405 167.129,385.223 170.804,380.373 171.765 C 377.924 172.251,22.076 172.251,19.627 171.765 C 14.777 170.804,10.595 167.129,8.872 162.316 L 8.229 160.521 8.171 108.958 C 8.107 51.757,8.008 56.016,9.485 52.934 C 11.587 48.547,15.674 45.501,20.389 44.806 C 23.141 44.401,379.791 44.660,381.146 45.069 M333.801 47.834 C 331.096 48.830,329.683 52.317,330.957 54.847 C 333.414 59.723,340.616 58.127,340.616 52.708 C 340.616 49.161,337.075 46.628,333.801 47.834 M309.531 56.207 L 306.250 56.740 306.250 60.870 L 306.250 65.000 302.604 65.000 L 298.958 65.000 298.958 67.813 L 298.958 70.625 302.594 70.625 L 306.231 70.625 306.297 82.344 C 306.370 95.293,306.330 94.884,307.796 97.386 C 310.473 101.954,318.064 103.303,324.614 100.374 C 326.283 99.628,326.254 99.759,325.288 97.260 C 324.874 96.189,324.459 95.113,324.365 94.868 L 324.196 94.424 322.462 95.040 C 318.246 96.537,315.552 95.952,314.167 93.241 L 313.438 91.814 313.375 81.219 L 313.312 70.625 318.938 70.625 L 324.564 70.625 324.685 69.948 C 324.751 69.576,324.926 68.310,325.074 67.135 L 325.344 65.000 319.338 65.000 L 313.333 65.000 313.333 60.313 C 313.333 56.688,313.274 55.631,313.073 55.650 C 312.930 55.663,311.336 55.914,309.531 56.207 M102.083 64.261 C 96.012 65.560,92.495 69.262,92.502 74.345 C 92.511 80.115,95.488 82.648,105.360 85.289 C 111.768 87.002,114.002 88.764,113.704 91.867 C 113.184 97.278,102.581 97.646,95.003 92.516 C 93.893 91.765,94.079 91.622,92.219 94.650 C 90.536 97.389,90.498 96.983,92.552 98.275 C 96.881 101.000,101.169 102.016,107.492 101.818 C 116.583 101.532,121.240 97.566,121.003 90.313 C 120.811 84.415,117.480 81.459,108.229 78.975 C 101.176 77.080,99.571 76.056,99.846 73.622 C 100.352 69.127,107.854 68.399,115.282 72.123 C 116.182 72.574,116.943 72.914,116.973 72.878 C 117.226 72.580,119.792 67.930,119.792 67.771 C 119.792 67.213,114.353 65.046,111.250 64.369 C 109.483 63.983,103.701 63.915,102.083 64.261 M138.750 64.258 C 130.752 65.944,125.819 72.724,125.476 82.500 C 125.103 93.120,128.855 99.169,137.188 101.383 C 139.416 101.976,145.903 101.933,148.248 101.311 C 151.044 100.569,155.734 98.503,156.611 97.625 C 156.736 97.501,154.093 92.510,153.900 92.504 C 153.811 92.502,152.686 93.014,151.400 93.643 C 141.449 98.509,132.743 94.604,132.712 85.260 L 132.708 84.167 144.974 84.167 L 157.240 84.167 157.370 83.516 C 157.870 81.017,157.373 75.082,156.461 72.655 C 154.009 66.127,146.584 62.607,138.750 64.258 M180.000 64.368 C 177.903 64.819,175.639 65.617,173.698 66.591 L 172.292 67.297 172.292 65.732 C 172.292 64.382,172.241 64.166,171.927 64.161 C 171.727 64.158,170.086 64.318,168.281 64.516 L 165.000 64.877 165.000 82.959 L 165.000 101.042 168.644 101.042 L 172.289 101.042 172.342 86.823 L 172.396 72.604 174.063 71.935 C 179.429 69.779,184.276 69.782,185.924 71.943 C 187.138 73.535,187.151 73.691,187.238 87.969 L 187.317 101.042 190.845 101.042 L 194.372 101.042 194.426 86.839 L 194.479 72.637 195.938 72.036 C 201.080 69.918,206.018 69.744,207.968 71.612 C 209.481 73.061,209.472 72.971,209.540 87.760 L 209.601 101.042 213.251 101.042 L 216.901 101.042 216.824 86.615 C 216.741 70.910,216.763 71.203,215.521 68.639 C 212.862 63.147,204.228 62.386,194.766 66.809 L 192.761 67.747 191.767 66.684 C 189.422 64.177,184.969 63.300,180.000 64.368 M237.400 64.191 C 233.390 64.774,225.000 68.312,225.000 69.419 C 225.000 69.754,227.907 74.375,228.118 74.375 C 228.213 74.375,228.928 73.988,229.707 73.515 C 233.335 71.310,236.381 70.370,240.000 70.337 C 244.878 70.291,246.431 71.733,246.627 76.491 L 246.719 78.714 245.599 78.830 C 244.983 78.894,243.729 79.004,242.813 79.074 C 229.039 80.130,221.518 86.502,223.854 95.134 C 225.856 102.528,237.704 104.326,246.174 98.520 L 247.036 97.930 247.181 99.486 L 247.327 101.042 250.653 101.042 L 253.980 101.042 253.908 86.927 C 253.830 71.486,253.857 71.850,252.558 69.169 C 250.584 65.096,244.625 63.138,237.400 64.191 M279.708 64.293 C 277.731 64.650,274.914 65.572,272.765 66.565 C 271.899 66.965,271.158 67.292,271.116 67.292 C 271.075 67.292,271.042 66.589,271.042 65.729 L 271.042 64.167 270.365 64.178 C 269.992 64.184,268.375 64.348,266.771 64.543 L 263.854 64.896 263.801 82.969 L 263.748 101.042 267.395 101.042 L 271.042 101.042 271.042 86.890 L 271.042 72.739 272.754 72.078 C 278.704 69.784,283.848 69.675,285.976 71.799 C 287.608 73.430,287.578 73.137,287.659 87.969 L 287.731 101.042 291.261 101.042 L 294.792 101.042 294.788 87.031 C 294.784 71.918,294.753 71.423,293.668 69.051 C 291.766 64.897,286.432 63.079,279.708 64.293 M361.284 64.192 C 350.152 66.043,344.136 77.776,347.524 91.030 C 350.250 101.695,363.332 105.259,375.260 98.587 C 377.190 97.507,377.156 97.847,375.612 95.078 C 373.968 92.129,374.256 92.270,372.139 93.378 C 360.890 99.259,352.778 93.572,354.366 80.917 C 355.424 72.487,360.458 68.685,368.002 70.619 C 369.382 70.973,370.333 71.337,373.246 72.626 C 373.445 72.714,376.042 67.585,376.042 67.105 C 376.042 66.901,372.780 65.445,371.141 64.918 C 368.367 64.026,364.149 63.715,361.284 64.192 M334.740 64.542 L 332.083 64.858 332.083 82.950 L 332.083 101.042 335.625 101.042 L 339.167 101.042 339.167 82.604 L 339.167 64.167 338.281 64.197 C 337.794 64.213,336.201 64.369,334.740 64.542 M145.850 70.190 C 148.674 71.255,150.417 74.167,150.417 77.823 L 150.417 78.958 141.771 78.958 C 134.992 78.958,133.126 78.902,133.127 78.698 C 133.142 77.211,134.832 73.551,136.112 72.234 C 138.489 69.788,142.534 68.939,145.850 70.190 M246.619 88.385 L 246.563 92.604 244.395 93.688 C 236.348 97.713,228.725 95.317,231.619 89.673 C 233.112 86.761,238.768 84.623,246.098 84.200 L 246.675 84.167 246.619 88.385 M47.604 108.471 C 48.292 108.897,49.555 109.768,50.411 110.405 C 51.268 111.041,52.084 111.635,52.225 111.724 C 52.455 111.869,55.173 108.206,54.965 108.032 C 54.927 108.000,52.974 107.911,50.625 107.834 L 46.354 107.695 47.604 108.471 M103.403 115.933 C 94.863 117.483,90.284 123.002,91.434 130.360 C 92.285 135.807,95.244 138.421,104.902 142.258 C 112.965 145.462,114.375 146.517,114.375 149.345 C 114.375 155.092,103.274 155.944,94.969 150.834 C 93.594 149.988,93.837 149.798,91.370 153.645 C 88.764 157.710,88.894 157.066,90.469 158.086 C 99.677 164.050,113.502 164.200,120.565 158.412 C 125.282 154.547,126.079 145.808,122.168 140.831 C 120.184 138.305,117.635 136.850,110.480 134.161 C 103.281 131.456,101.461 130.183,101.459 127.854 C 101.456 123.256,108.940 122.383,116.335 126.119 L 119.304 127.619 121.527 124.272 C 124.145 120.331,124.067 120.711,122.444 119.759 C 116.445 116.239,109.458 114.835,103.403 115.933 M283.854 115.947 C 272.781 118.011,267.435 125.594,267.413 139.271 C 267.389 153.834,273.589 161.477,286.253 162.500 C 291.839 162.951,295.984 162.113,301.286 159.459 C 304.121 158.040,304.064 158.445,301.972 154.582 C 299.791 150.554,300.264 150.830,297.675 152.082 C 285.228 158.103,275.866 149.987,277.911 134.950 C 279.302 124.720,287.983 120.900,297.888 126.158 C 298.846 126.667,299.666 127.083,299.710 127.083 C 299.754 127.083,300.628 125.409,301.652 123.363 L 303.514 119.643 301.705 118.697 C 296.594 116.025,289.390 114.915,283.854 115.947 M355.856 116.065 C 347.938 117.727,343.601 122.733,344.278 129.429 C 344.886 135.442,347.756 138.167,357.708 142.179 C 365.101 145.160,366.788 146.232,367.275 148.264 C 368.800 154.620,357.643 156.323,348.462 151.136 C 347.559 150.626,346.756 150.208,346.678 150.208 C 346.411 150.208,342.259 156.905,342.360 157.170 C 342.897 158.570,349.747 161.449,354.373 162.221 C 368.232 164.531,378.294 158.268,377.615 147.754 C 377.188 141.134,374.262 138.290,363.750 134.274 C 355.764 131.223,354.175 130.068,354.423 127.490 C 354.878 122.756,363.528 122.533,371.177 127.058 L 372.251 127.693 374.375 124.470 C 377.048 120.411,376.989 120.690,375.376 119.758 C 368.964 116.054,362.098 114.755,355.856 116.065 M130.833 139.063 L 130.833 161.667 146.042 161.667 L 161.250 161.667 161.250 157.500 L 161.250 153.333 151.042 153.333 L 140.833 153.333 140.833 148.021 L 140.833 142.708 148.916 142.708 L 156.998 142.708 157.478 139.219 C 157.742 137.299,158.007 135.471,158.067 135.156 L 158.177 134.583 149.505 134.583 L 140.833 134.583 140.833 129.688 L 140.833 124.792 150.833 124.792 L 160.833 124.792 160.833 120.625 L 160.833 116.458 145.833 116.458 L 130.833 116.458 130.833 139.063 M168.125 139.063 L 168.125 161.667 173.125 161.667 L 178.125 161.667 178.125 153.438 L 178.125 145.208 179.848 145.208 L 181.571 145.208 187.087 153.429 L 192.604 161.649 198.097 161.658 L 203.589 161.667 203.498 161.094 C 203.448 160.779,201.440 157.708,199.036 154.271 C 196.633 150.833,194.035 147.112,193.263 146.002 L 191.861 143.982 193.378 143.223 C 202.651 138.584,203.633 124.926,195.087 119.459 C 191.123 116.924,188.183 116.458,176.124 116.458 L 168.125 116.458 168.125 139.063 M202.503 117.031 C 202.505 117.346,206.148 127.495,210.600 139.583 L 218.693 161.563 224.194 161.618 L 229.695 161.673 237.875 139.326 C 242.373 127.035,246.051 116.860,246.048 116.715 C 246.043 116.508,244.943 116.463,240.920 116.507 L 235.799 116.563 230.151 133.698 C 227.044 143.122,224.445 150.833,224.374 150.833 C 224.304 150.833,221.690 143.099,218.567 133.646 L 212.888 116.458 207.694 116.458 L 202.500 116.458 202.503 117.031 M250.833 139.063 L 250.833 161.667 255.729 161.667 L 260.625 161.667 260.625 139.063 L 260.625 116.458 255.729 116.458 L 250.833 116.458 250.833 139.063 M308.542 139.063 L 308.542 161.667 323.646 161.667 L 338.750 161.667 338.750 157.500 L 338.750 153.333 328.646 153.333 L 318.542 153.333 318.542 148.023 L 318.542 142.713 326.610 142.659 L 334.679 142.604 335.132 139.275 C 335.382 137.444,335.636 135.639,335.697 135.265 L 335.807 134.583 327.174 134.583 L 318.542 134.583 318.542 129.688 L 318.542 124.792 328.542 124.792 L 338.542 124.792 338.542 120.625 L 338.542 116.458 323.542 116.458 L 308.542 116.458 308.542 139.063 M186.746 125.203 C 189.456 126.248,190.521 127.866,190.521 130.938 C 190.521 135.774,188.300 137.429,181.510 137.654 L 178.125 137.767 178.125 131.149 L 178.125 124.532 181.823 124.631 C 185.016 124.717,185.688 124.795,186.746 125.203 M26.042 126.198 C 26.042 126.341,26.050 126.518,26.059 126.591 C 26.069 126.664,25.989 126.782,25.882 126.852 C 25.774 126.922,25.445 127.964,25.151 129.167 C 22.666 139.323,22.858 147.264,25.665 150.439 L 26.146 150.983 28.663 150.612 C 32.267 150.082,36.559 148.494,38.438 146.996 L 39.026 146.527 38.978 142.690 C 38.915 137.685,39.586 133.506,41.140 129.225 C 41.419 128.456,41.609 127.790,41.563 127.743 C 41.516 127.697,41.614 127.523,41.781 127.356 C 42.538 126.599,42.215 126.508,38.281 126.371 C 36.190 126.298,32.581 126.170,30.260 126.088 C 26.944 125.970,26.041 125.993,26.042 126.198 " stroke="none" fill="#545c5c" fill-rule="evenodd"></path><path id="path2" d="M36.042 51.883 C 27.651 53.635,21.249 69.195,24.258 80.521 C 25.003 83.326,28.109 91.116,28.079 90.104 C 28.063 89.572,41.449 52.858,41.724 52.679 C 42.437 52.217,37.652 51.546,36.042 51.883 M42.708 106.430 C 42.708 107.007,44.229 112.216,45.119 114.688 C 49.478 126.791,49.393 133.381,44.789 140.370 C 40.792 146.437,34.663 150.248,28.066 150.768 C 25.992 150.932,25.995 150.887,27.954 152.604 C 31.648 155.843,36.200 158.922,41.473 161.748 L 43.258 162.705 48.623 138.592 C 54.743 111.082,54.125 113.705,54.442 113.879 C 55.008 114.191,53.315 112.619,52.276 111.868 C 47.445 108.378,42.708 105.686,42.708 106.430 " stroke="none" fill="#3795da" fill-rule="evenodd"></path><path id="path3" d="M61.354 63.989 C 58.229 64.387,53.787 65.930,51.902 67.273 L 51.309 67.695 51.190 71.087 C 51.067 74.597,50.754 76.781,49.902 80.062 C 49.628 81.114,49.452 82.022,49.510 82.079 C 49.567 82.137,53.182 82.292,57.542 82.424 C 63.025 82.590,65.514 82.737,65.616 82.902 C 66.062 83.624,66.875 78.516,66.875 74.991 C 66.875 71.176,66.219 67.986,65.035 66.042 C 64.661 65.427,63.088 63.738,62.925 63.776 C 62.863 63.791,62.156 63.886,61.354 63.989 " stroke="none" fill="#8f9394" fill-rule="evenodd"></path><path id="path4" d="M43.877 94.642 C 43.717 94.896,43.093 95.899,42.491 96.870 L 41.396 98.637 41.632 100.412 C 41.762 101.389,42.022 103.012,42.209 104.021 L 42.549 105.854 44.415 106.791 L 46.281 107.728 50.712 107.846 L 55.142 107.965 56.467 105.701 C 59.000 101.372,61.890 95.362,61.586 95.058 C 61.506 94.978,57.679 94.796,53.082 94.653 C 48.484 94.510,44.598 94.345,44.445 94.287 C 44.293 94.228,44.037 94.388,43.877 94.642 M33.431 109.177 C 30.613 113.641,25.570 125.277,26.202 125.856 C 26.350 125.992,42.089 126.546,42.168 126.419 C 42.189 126.383,42.612 125.557,43.107 124.583 C 43.870 123.084,45.452 120.384,46.299 119.138 C 46.869 118.299,45.373 115.423,42.451 111.740 L 39.748 108.333 36.856 108.333 L 33.964 108.333 33.431 109.177 " stroke="none" fill="#6f7275" fill-rule="evenodd"></path><path id="path5" d="M49.257 82.493 C 49.187 82.669,48.851 83.594,48.511 84.548 C 48.171 85.503,47.533 87.113,47.094 88.127 C 46.654 89.141,46.401 89.932,46.533 89.886 C 46.664 89.840,50.521 89.924,55.104 90.072 C 60.517 90.248,63.485 90.271,63.574 90.139 C 63.730 89.906,65.510 84.542,65.694 83.748 C 65.960 82.608,67.047 82.723,51.411 82.236 C 49.744 82.184,49.362 82.230,49.257 82.493 " stroke="none" fill="#7a8484" fill-rule="evenodd"></path><path id="path6" d="M46.319 90.044 C 46.206 90.192,45.710 91.109,45.216 92.083 C 44.721 93.057,44.238 93.956,44.141 94.080 C 43.924 94.358,43.025 94.303,52.292 94.577 C 56.589 94.705,60.487 94.882,60.955 94.972 L 61.805 95.134 62.685 92.857 C 63.169 91.604,63.508 90.522,63.439 90.453 C 63.369 90.383,61.044 90.261,58.271 90.180 C 55.498 90.100,51.720 89.976,49.876 89.905 C 47.262 89.804,46.478 89.834,46.319 90.044 M35.658 105.721 C 35.067 106.568,34.583 107.361,34.583 107.484 C 34.583 107.607,34.484 107.708,34.363 107.708 C 34.241 107.708,34.195 107.794,34.260 107.899 C 34.325 108.004,34.260 108.134,34.116 108.189 C 33.972 108.244,35.232 108.322,36.915 108.363 C 39.965 108.437,39.975 108.436,39.597 108.021 C 39.388 107.792,38.658 106.834,37.975 105.893 L 36.732 104.182 35.658 105.721 " stroke="none" fill="#7b7b84" fill-rule="evenodd"></path><path id="path7" d="" stroke="none" fill="#3ca894" fill-rule="evenodd"></path><path id="path8" d="" stroke="none" fill="#44749c" fill-rule="evenodd"></path></g></svg>