<svg id="svg" version="1.1" xmlns="http://www.w3.org/2000/svg" xmlns:xlink="http://www.w3.org/1999/xlink" width="100" height="100" viewBox="0, 0, 350,350"><g id="svgg"><path id="path0" d="M145.400 101.992 C 127.830 103.606,113.619 117.607,111.580 135.314 C 111.294 137.796,111.199 156.575,111.291 192.800 L 111.426 246.600 112.325 250.000 C 115.891 263.494,126.540 274.145,140.000 277.680 L 143.400 278.574 196.800 278.709 C 253.492 278.853,254.965 278.813,260.886 276.957 C 276.014 272.214,285.865 259.593,287.233 243.200 C 288.020 233.766,287.499 135.232,286.643 131.600 C 283.218 117.068,272.118 105.967,257.600 102.552 C 254.397 101.799,153.014 101.293,145.400 101.992 M257.000 113.139 C 266.540 116.340,273.127 122.995,276.063 132.400 L 277.000 135.400 277.000 190.200 C 277.000 251.793,277.234 246.922,273.972 253.200 C 270.297 260.273,264.470 265.058,256.600 267.466 C 254.321 268.163,251.418 268.200,199.200 268.200 L 144.200 268.200 141.000 267.110 C 132.304 264.149,125.851 257.696,122.890 249.000 L 121.800 245.800 121.684 191.800 C 121.602 153.606,121.698 137.042,122.012 135.209 C 123.872 124.342,132.802 114.917,143.200 112.846 C 144.410 112.605,145.760 112.334,146.200 112.245 C 146.640 112.155,171.120 112.108,200.600 112.141 L 254.200 112.200 257.000 113.139 M186.710 186.758 C 186.111 187.606,184.837 189.627,183.881 191.250 L 182.141 194.200 188.505 194.326 C 193.805 194.430,194.813 194.360,194.534 193.905 C 193.493 192.202,188.283 185.201,188.062 185.209 C 187.918 185.213,187.310 185.911,186.710 186.758 M201.800 190.188 C 203.120 190.997,205.137 192.366,206.283 193.229 C 208.921 195.219,208.705 195.270,210.735 192.162 C 212.867 188.896,213.244 189.140,205.718 188.911 L 199.400 188.718 201.800 190.188 " stroke="none" fill="#545b5c" fill-rule="evenodd"></path><path id="path1" d="M185.670 141.550 C 180.792 154.932,176.800 166.169,176.800 166.521 C 176.800 168.025,186.183 183.302,188.149 185.000 C 188.404 185.220,189.595 186.750,190.796 188.400 C 193.445 192.038,199.200 199.389,199.200 199.134 C 199.200 199.033,198.664 197.365,198.010 195.428 C 196.672 191.472,194.994 184.223,194.576 180.600 C 194.424 179.280,194.225 177.840,194.134 177.400 C 193.544 174.537,193.554 164.719,194.150 161.311 C 197.241 143.659,205.483 134.560,220.597 132.116 L 222.593 131.794 218.997 129.545 C 211.649 124.952,198.350 118.088,195.570 117.455 C 194.542 117.220,194.534 117.240,185.670 141.550 M203.867 229.300 C 195.690 265.943,196.368 261.720,198.500 262.749 C 218.494 272.399,234.966 241.219,223.827 214.808 C 221.278 208.764,213.172 197.600,211.333 197.600 C 211.118 197.600,207.758 211.865,203.867 229.300 " stroke="none" fill="#1cbac4" fill-rule="evenodd"></path><path id="path2" d="M218.495 132.444 C 215.565 132.932,211.774 134.254,209.360 135.628 L 207.321 136.790 207.051 141.227 C 206.719 146.706,205.678 152.159,203.964 157.400 C 203.245 159.600,202.623 161.580,202.581 161.800 C 202.533 162.057,206.478 162.239,213.595 162.310 L 224.684 162.420 225.362 160.265 C 228.755 149.478,228.180 137.841,224.030 133.298 C 222.751 131.897,222.247 131.819,218.495 132.444 M172.389 219.800 C 169.809 231.741,170.187 241.948,173.336 245.381 C 174.902 247.087,182.524 245.592,188.200 242.465 L 191.000 240.922 190.901 237.761 C 190.759 233.220,191.466 226.791,192.589 222.413 C 193.123 220.331,193.524 218.599,193.480 218.565 C 193.436 218.531,188.770 218.345,183.111 218.151 L 172.822 217.800 172.389 219.800 " stroke="none" fill="#909495" fill-rule="evenodd"></path><path id="path3" d="M185.881 116.577 C 176.959 119.759,170.269 133.476,170.906 147.277 C 171.149 152.537,171.693 154.733,174.484 161.728 L 176.529 166.856 177.111 165.135 C 177.431 164.188,181.512 152.949,186.179 140.160 L 194.665 116.906 192.702 116.453 C 190.140 115.862,187.765 115.905,185.881 116.577 M196.262 189.516 C 196.579 190.772,197.722 194.500,198.801 197.800 C 204.264 214.506,204.527 220.822,200.125 229.581 C 195.481 238.822,185.179 246.000,176.560 246.000 C 174.057 246.000,174.113 246.483,176.898 248.905 C 183.455 254.609,196.779 262.913,196.817 261.320 C 196.826 260.924,200.031 246.334,203.937 228.899 L 211.041 197.197 210.020 196.273 C 209.459 195.765,208.619 195.091,208.153 194.775 C 207.687 194.459,205.977 193.280,204.353 192.155 C 202.729 191.031,200.114 189.463,198.542 188.672 L 195.684 187.232 196.262 189.516 " stroke="none" fill="#3795da" fill-rule="evenodd"></path><path id="path4" d="M202.640 162.066 C 202.731 162.212,202.649 162.392,202.458 162.466 C 202.267 162.540,201.125 164.670,199.921 167.200 C 198.717 169.730,196.921 173.120,195.932 174.734 C 193.938 177.983,193.966 177.574,195.246 184.717 C 195.910 188.425,196.627 188.712,205.753 188.928 L 212.814 189.095 215.089 185.047 C 219.047 178.005,224.808 164.184,224.197 163.196 C 224.086 163.016,224.221 162.777,224.498 162.666 C 224.774 162.554,223.290 162.427,221.200 162.384 C 219.110 162.340,214.042 162.191,209.937 162.052 C 205.833 161.913,202.549 161.920,202.640 162.066 M194.632 194.051 C 194.837 194.383,193.280 194.426,188.736 194.213 C 183.779 193.980,182.473 194.030,182.115 194.462 C 179.696 197.378,172.205 216.734,173.136 217.664 C 173.281 217.810,178.010 218.057,183.644 218.215 L 193.888 218.502 194.172 217.351 C 194.595 215.635,197.669 209.279,199.337 206.671 C 200.142 205.413,200.800 204.204,200.800 203.984 C 200.800 202.748,198.605 198.528,196.773 196.241 C 194.855 193.848,193.906 192.877,194.632 194.051 " stroke="none" fill="#6f7478" fill-rule="evenodd"></path></g></svg>