<?xml version="1.0" encoding="UTF-8"?>
<!DOCTYPE svg PUBLIC "-//W3C//DTD SVG 1.1//EN" "http://www.w3.org/Graphics/SVG/1.1/DTD/svg11.dtd">
<svg xmlns="http://www.w3.org/2000/svg" version="1.1" width="1000px" height="1000px" style="shape-rendering:geometricPrecision; text-rendering:geometricPrecision; image-rendering:optimizeQuality; fill-rule:evenodd; clip-rule:evenodd" xmlns:xlink="http://www.w3.org/1999/xlink">
<g><path style="opacity:0.962" fill="#52585d" d="M 370.5,253.5 C 459.517,253.031 548.517,253.531 637.5,255C 675.593,262.091 701.093,283.924 714,320.5C 716.526,329.321 717.859,338.321 718,347.5C 718.667,432.5 718.667,517.5 718,602.5C 714.891,650.267 690.391,680.767 644.5,694C 639.877,694.958 635.21,695.625 630.5,696C 542.167,696.667 453.833,696.667 365.5,696C 325.391,691.706 297.891,670.873 283,633.5C 280.308,625.372 278.641,617.038 278,608.5C 277.023,516.479 277.356,424.479 279,332.5C 287.536,291.631 312.036,266.131 352.5,256C 358.634,255.088 364.634,254.255 370.5,253.5 Z M 366.5,279.5 C 453.834,279.333 541.167,279.5 628.5,280C 655.872,283.378 675.372,297.544 687,322.5C 689.769,329.242 691.435,336.242 692,343.5C 692.667,431.5 692.667,519.5 692,607.5C 686.718,642.781 666.552,663.614 631.5,670C 542.5,670.667 453.5,670.667 364.5,670C 330.333,663.833 310.167,643.667 304,609.5C 303.333,519.833 303.333,430.167 304,340.5C 310.633,305.463 331.467,285.129 366.5,279.5 Z M 517.5,342.5 C 517.5,344.833 517.5,347.167 517.5,349.5C 516.902,354.813 516.569,360.146 516.5,365.5C 515.182,371.076 513.848,376.742 512.5,382.5C 510.365,390.238 508.031,397.905 505.5,405.5C 502.603,410.167 500.27,415.167 498.5,420.5C 495.849,425.131 493.182,429.798 490.5,434.5C 488.833,437.167 487.167,439.833 485.5,442.5C 484.121,436.383 483.454,430.05 483.5,423.5C 483.327,414.759 483.994,406.093 485.5,397.5C 488.644,385.069 492.977,373.069 498.5,361.5C 502.431,356.23 506.764,351.23 511.5,346.5C 513.772,345.559 515.772,344.226 517.5,342.5 Z M 501.5,511.5 C 502.833,515.167 504.167,518.833 505.5,522.5C 507.006,531.093 507.673,539.76 507.5,548.5C 506.64,554.939 505.307,561.272 503.5,567.5C 499.933,574.406 495.933,581.073 491.5,587.5C 487.5,590.833 483.833,594.5 480.5,598.5C 479.5,599.167 478.5,599.833 477.5,600.5C 477.677,596.766 477.344,593.099 476.5,589.5C 476.866,581.469 477.533,573.469 478.5,565.5C 480.037,558.349 482.037,551.349 484.5,544.5C 487.424,535.319 491.424,526.652 496.5,518.5C 497.811,515.865 499.478,513.531 501.5,511.5 Z"/></g>
<g><path style="opacity:0.99" fill="#3398d7" d="M 473.5,289.5 C 460.935,326.204 447.601,362.537 433.5,398.5C 432.101,395.301 431.101,391.968 430.5,388.5C 442.174,355.823 453.84,323.156 465.5,290.5C 468.096,289.735 470.763,289.401 473.5,289.5 Z"/></g>
<g><path style="opacity:0.993" fill="#2f9fd3" d="M 473.5,289.5 C 475.903,289.448 478.236,289.781 480.5,290.5C 466.734,329.806 452.401,368.806 437.5,407.5C 435.928,404.682 434.594,401.682 433.5,398.5C 447.601,362.537 460.935,326.204 473.5,289.5 Z"/></g>
<g><path style="opacity:0.99" fill="#2aa5d0" d="M 480.5,290.5 C 482.698,290.875 484.698,291.542 486.5,292.5C 471.875,334.049 456.875,375.383 441.5,416.5C 439.796,413.744 438.463,410.744 437.5,407.5C 452.401,368.806 466.734,329.806 480.5,290.5 Z"/></g>
<g><path style="opacity:0.986" fill="#3892db" d="M 465.5,290.5 C 453.84,323.156 442.174,355.823 430.5,388.5C 428.755,384.8 427.755,380.8 427.5,376.5C 437.674,349.318 447.674,321.985 457.5,294.5C 459.849,292.659 462.515,291.326 465.5,290.5 Z"/></g>
<g><path style="opacity:0.991" fill="#26abcc" d="M 486.5,292.5 C 488.579,292.971 490.579,293.637 492.5,294.5C 477.394,338.043 461.728,381.376 445.5,424.5C 443.659,422.151 442.326,419.485 441.5,416.5C 456.875,375.383 471.875,334.049 486.5,292.5 Z"/></g>
<g><path style="opacity:0.948" fill="#3d8cdf" d="M 457.5,294.5 C 447.674,321.985 437.674,349.318 427.5,376.5C 423.794,347.79 431.127,322.29 449.5,300C 452.047,297.946 454.714,296.113 457.5,294.5 Z"/></g>
<g><path style="opacity:0.992" fill="#21b1c8" d="M 492.5,294.5 C 495.328,295.655 497.995,296.989 500.5,298.5C 483.461,343.276 466.794,388.276 450.5,433.5C 448.583,430.669 446.917,427.669 445.5,424.5C 461.728,381.376 477.394,338.043 492.5,294.5 Z"/></g>
<g><path style="opacity:0.993" fill="#1db8c4" d="M 500.5,298.5 C 502.284,298.893 503.95,299.559 505.5,300.5C 489.068,347.139 472.068,393.472 454.5,439.5C 452.808,437.795 451.475,435.795 450.5,433.5C 466.794,388.276 483.461,343.276 500.5,298.5 Z"/></g>
<g><path style="opacity:0.993" fill="#18bec0" d="M 505.5,300.5 C 507.5,301.5 509.5,302.5 511.5,303.5C 494.165,351.172 476.832,398.838 459.5,446.5C 457.478,444.469 455.811,442.135 454.5,439.5C 472.068,393.472 489.068,347.139 505.5,300.5 Z"/></g>
<g><path style="opacity:0.991" fill="#14c4bd" d="M 511.5,303.5 C 514.032,304.596 516.365,305.929 518.5,307.5C 511.262,325.205 504.595,343.205 498.5,361.5C 492.977,373.069 488.644,385.069 485.5,397.5C 478.128,415.941 471.128,434.608 464.5,453.5C 462.1,451.704 460.433,449.37 459.5,446.5C 476.832,398.838 494.165,351.172 511.5,303.5 Z"/></g>
<g><path style="opacity:0.963" fill="#0fcbb9" d="M 518.5,307.5 C 520.819,307.992 522.819,308.992 524.5,310.5C 519.398,322.132 515.065,334.132 511.5,346.5C 506.764,351.23 502.431,356.23 498.5,361.5C 504.595,343.205 511.262,325.205 518.5,307.5 Z"/></g>
<g><path style="opacity:0.95" fill="#0cd5b2" d="M 524.5,310.5 C 535.631,315.651 545.964,321.984 555.5,329.5C 541.343,329.885 528.676,334.218 517.5,342.5C 515.772,344.226 513.772,345.559 511.5,346.5C 515.065,334.132 519.398,322.132 524.5,310.5 Z"/></g>
<g><path style="opacity:0.99" fill="#9b9f9f" d="M 555.5,329.5 C 558.305,330.741 560.471,332.741 562,335.5C 564.332,340.332 566.166,345.332 567.5,350.5C 550.833,350.167 534.167,349.833 517.5,349.5C 517.5,347.167 517.5,344.833 517.5,342.5C 528.676,334.218 541.343,329.885 555.5,329.5 Z"/></g>
<g><path style="opacity:0.985" fill="#949899" d="M 517.5,349.5 C 534.167,349.833 550.833,350.167 567.5,350.5C 568.275,355.797 568.608,361.13 568.5,366.5C 551.169,366.072 533.836,365.738 516.5,365.5C 516.569,360.146 516.902,354.813 517.5,349.5 Z"/></g>
<g><path style="opacity:0.982" fill="#8d9192" d="M 516.5,365.5 C 533.836,365.738 551.169,366.072 568.5,366.5C 568.73,372.645 568.064,378.645 566.5,384.5C 548.53,383.531 530.53,382.864 512.5,382.5C 513.848,376.742 515.182,371.076 516.5,365.5 Z"/></g>
<g><path style="opacity:0.981" fill="#838789" d="M 512.5,382.5 C 530.53,382.864 548.53,383.531 566.5,384.5C 565.277,392.391 563.277,400.058 560.5,407.5C 542.19,406.551 523.856,405.884 505.5,405.5C 508.031,397.905 510.365,390.238 512.5,382.5 Z"/></g>
<g><path style="opacity:0.958" fill="#0fcbb9" d="M 485.5,397.5 C 483.994,406.093 483.327,414.759 483.5,423.5C 478.696,435.913 473.696,448.247 468.5,460.5C 466.902,458.302 465.569,455.969 464.5,453.5C 471.128,434.608 478.128,415.941 485.5,397.5 Z"/></g>
<g><path style="opacity:0.984" fill="#7b7f82" d="M 505.5,405.5 C 523.856,405.884 542.19,406.551 560.5,407.5C 559.029,412.579 557.363,417.579 555.5,422.5C 536.315,422.602 517.315,421.935 498.5,420.5C 500.27,415.167 502.603,410.167 505.5,405.5 Z"/></g>
<g><path style="opacity:0.981" fill="#74787c" d="M 498.5,420.5 C 517.315,421.935 536.315,422.602 555.5,422.5C 554.012,427.467 552.012,432.134 549.5,436.5C 529.824,436.021 510.157,435.354 490.5,434.5C 493.182,429.798 495.849,425.131 498.5,420.5 Z"/></g>
<g><path style="opacity:0.986" fill="#6d7276" d="M 490.5,434.5 C 510.157,435.354 529.824,436.021 549.5,436.5C 547.714,442.072 545.381,447.405 542.5,452.5C 526.167,451.896 509.834,451.229 493.5,450.5C 490.975,450.503 488.641,450.837 486.5,451.5C 485.523,448.713 485.19,445.713 485.5,442.5C 487.167,439.833 488.833,437.167 490.5,434.5 Z"/></g>
<g><path style="opacity:1" fill="#0ed3b1" d="M 483.5,423.5 C 483.454,430.05 484.121,436.383 485.5,442.5C 485.19,445.713 485.523,448.713 486.5,451.5C 486.957,457.72 487.957,463.72 489.5,469.5C 490.891,477.004 492.891,484.338 495.5,491.5C 496.363,493.421 497.029,495.421 497.5,497.5C 488.167,485.833 478.833,474.167 469.5,462.5C 469.167,461.833 468.833,461.167 468.5,460.5C 473.696,448.247 478.696,435.913 483.5,423.5 Z"/></g>
<g><path style="opacity:0.985" fill="#64696e" d="M 542.5,452.5 C 536.255,464.664 529.255,476.331 521.5,487.5C 518.991,486.079 516.657,484.412 514.5,482.5C 512.343,480.588 510.009,478.921 507.5,477.5C 505.167,476.167 502.833,474.833 500.5,473.5C 497.193,471.847 493.86,470.18 490.5,468.5C 489.893,468.624 489.56,468.957 489.5,469.5C 487.957,463.72 486.957,457.72 486.5,451.5C 488.641,450.837 490.975,450.503 493.5,450.5C 509.834,451.229 526.167,451.896 542.5,452.5 Z"/></g>
<g><path style="opacity:1" fill="#3c8dde" d="M 500.5,473.5 C 499.528,479.192 498.361,484.859 497,490.5C 496.617,491.056 496.117,491.389 495.5,491.5C 492.891,484.338 490.891,477.004 489.5,469.5C 489.56,468.957 489.893,468.624 490.5,468.5C 493.86,470.18 497.193,471.847 500.5,473.5 Z"/></g>
<g><path style="opacity:1" fill="#3892da" d="M 500.5,473.5 C 502.833,474.833 505.167,476.167 507.5,477.5C 505.531,487.366 503.198,497.033 500.5,506.5C 500.672,505.508 500.338,504.842 499.5,504.5C 499.122,502.079 498.455,499.746 497.5,497.5C 497.029,495.421 496.363,493.421 495.5,491.5C 496.117,491.389 496.617,491.056 497,490.5C 498.361,484.859 499.528,479.192 500.5,473.5 Z"/></g>
<g><path style="opacity:0.978" fill="#3498d6" d="M 507.5,477.5 C 510.009,478.921 512.343,480.588 514.5,482.5C 512.101,496.085 509.101,509.419 505.5,522.5C 504.167,518.833 502.833,515.167 501.5,511.5C 501.634,509.708 501.301,508.042 500.5,506.5C 503.198,497.033 505.531,487.366 507.5,477.5 Z"/></g>
<g><path style="opacity:0.971" fill="#2f9fd3" d="M 514.5,482.5 C 516.657,484.412 518.991,486.079 521.5,487.5C 522.167,487.5 522.5,487.833 522.5,488.5C 517.501,508.495 512.501,528.495 507.5,548.5C 507.673,539.76 507.006,531.093 505.5,522.5C 509.101,509.419 512.101,496.085 514.5,482.5 Z"/></g>
<g><path style="opacity:0.979" fill="#2ca3d1" d="M 522.5,488.5 C 523.5,488.833 524.167,489.5 524.5,490.5C 511.676,544.27 499.343,598.27 487.5,652.5C 486.5,652.167 485.833,651.5 485.5,650.5C 491.755,622.892 497.755,595.226 503.5,567.5C 505.307,561.272 506.64,554.939 507.5,548.5C 512.501,528.495 517.501,508.495 522.5,488.5 Z"/></g>
<g><path style="opacity:0.994" fill="#2aa6cf" d="M 524.5,490.5 C 526.167,491.5 527.5,492.833 528.5,494.5C 515.899,547.581 503.899,600.915 492.5,654.5C 490.716,654.107 489.05,653.441 487.5,652.5C 499.343,598.27 511.676,544.27 524.5,490.5 Z"/></g>
<g><path style="opacity:0.992" fill="#26abcc" d="M 528.5,494.5 C 531.5,495.5 533.5,497.5 534.5,500.5C 522.366,552.704 510.7,605.037 499.5,657.5C 496.759,657.293 494.426,656.293 492.5,654.5C 503.899,600.915 515.899,547.581 528.5,494.5 Z"/></g>
<g><path style="opacity:0.993" fill="#656b6f" d="M 469.5,462.5 C 478.833,474.167 488.167,485.833 497.5,497.5C 498.455,499.746 499.122,502.079 499.5,504.5C 481.864,503.522 464.197,502.855 446.5,502.5C 452.544,488.149 460.21,474.816 469.5,462.5 Z"/></g>
<g><path style="opacity:0.995" fill="#21b1c8" d="M 534.5,500.5 C 537.573,502.569 539.906,505.236 541.5,508.5C 529.858,559.071 518.525,609.738 507.5,660.5C 504.603,659.871 501.936,658.871 499.5,657.5C 510.7,605.037 522.366,552.704 534.5,500.5 Z"/></g>
<g><path style="opacity:0.992" fill="#1db8c4" d="M 541.5,508.5 C 544.471,510.443 546.471,513.109 547.5,516.5C 536.388,564.716 525.388,613.049 514.5,661.5C 512.139,661.326 509.806,660.993 507.5,660.5C 518.525,609.738 529.858,559.071 541.5,508.5 Z"/></g>
<g><path style="opacity:0.983" fill="#6e7377" d="M 446.5,502.5 C 464.197,502.855 481.864,503.522 499.5,504.5C 500.338,504.842 500.672,505.508 500.5,506.5C 501.301,508.042 501.634,509.708 501.5,511.5C 499.478,513.531 497.811,515.865 496.5,518.5C 477.839,517.732 459.173,517.066 440.5,516.5C 441.935,511.51 443.935,506.844 446.5,502.5 Z"/></g>
<g><path style="opacity:0.993" fill="#18bec1" d="M 547.5,516.5 C 550.231,518.946 552.231,521.946 553.5,525.5C 542.724,570.28 532.391,615.28 522.5,660.5C 519.833,660.833 517.167,661.167 514.5,661.5C 525.388,613.049 536.388,564.716 547.5,516.5 Z"/></g>
<g><path style="opacity:0.99" fill="#14c4bd" d="M 553.5,525.5 C 555.957,528.751 557.624,532.418 558.5,536.5C 549.516,576.436 540.849,616.436 532.5,656.5C 529.246,658.029 525.913,659.362 522.5,660.5C 532.391,615.28 542.724,570.28 553.5,525.5 Z"/></g>
<g><path style="opacity:0.98" fill="#797d80" d="M 440.5,516.5 C 459.173,517.066 477.839,517.732 496.5,518.5C 491.424,526.652 487.424,535.319 484.5,544.5C 467.124,544.135 449.791,543.469 432.5,542.5C 434.188,533.442 436.855,524.775 440.5,516.5 Z"/></g>
<g><path style="opacity:0.985" fill="#0fcbb9" d="M 558.5,536.5 C 561.254,540.695 562.921,545.362 563.5,550.5C 556.092,583.42 549.092,616.086 542.5,648.5C 539.48,651.516 536.146,654.183 532.5,656.5C 540.849,616.436 549.516,576.436 558.5,536.5 Z"/></g>
<g><path style="opacity:0.976" fill="#0bd0b6" d="M 563.5,550.5 C 564.945,553.937 565.945,557.603 566.5,561.5C 559.882,587.911 553.882,614.577 548.5,641.5C 547.219,644.447 545.219,646.781 542.5,648.5C 549.092,616.086 556.092,583.42 563.5,550.5 Z"/></g>
<g><path style="opacity:0.984" fill="#84898b" d="M 432.5,542.5 C 449.791,543.469 467.124,544.135 484.5,544.5C 482.037,551.349 480.037,558.349 478.5,565.5C 461.52,564.632 444.52,563.965 427.5,563.5C 428.798,556.325 430.465,549.325 432.5,542.5 Z"/></g>
<g><path style="opacity:0.971" fill="#2e9fd3" d="M 503.5,567.5 C 497.755,595.226 491.755,622.892 485.5,650.5C 483.046,649.773 480.713,648.773 478.5,647.5C 482.833,627.5 487.167,607.5 491.5,587.5C 495.933,581.073 499.933,574.406 503.5,567.5 Z"/></g>
<g><path style="opacity:0.943" fill="#08d5b3" d="M 566.5,561.5 C 571.453,588.234 566.953,613.234 553,636.5C 551.483,638.24 549.983,639.906 548.5,641.5C 553.882,614.577 559.882,587.911 566.5,561.5 Z"/></g>
<g><path style="opacity:0.992" fill="#909495" d="M 427.5,563.5 C 444.52,563.965 461.52,564.632 478.5,565.5C 477.533,573.469 476.866,581.469 476.5,589.5C 459.528,588.592 442.528,587.925 425.5,587.5C 426.319,579.518 426.986,571.518 427.5,563.5 Z"/></g>
<g><path style="opacity:0.966" fill="#3399d7" d="M 491.5,587.5 C 487.167,607.5 482.833,627.5 478.5,647.5C 475.797,645.819 473.131,644.153 470.5,642.5C 473.956,627.888 477.29,613.221 480.5,598.5C 483.833,594.5 487.5,590.833 491.5,587.5 Z"/></g>
<g><path style="opacity:0.989" fill="#3992db" d="M 480.5,598.5 C 477.29,613.221 473.956,627.888 470.5,642.5C 468.205,641.525 466.205,640.192 464.5,638.5C 466.451,627.414 468.784,616.414 471.5,605.5C 473.5,603.833 475.5,602.167 477.5,600.5C 478.5,599.833 479.5,599.167 480.5,598.5 Z"/></g>
<g><path style="opacity:0.979" fill="#9ca1a1" d="M 425.5,587.5 C 442.528,587.925 459.528,588.592 476.5,589.5C 477.344,593.099 477.677,596.766 477.5,600.5C 475.5,602.167 473.5,603.833 471.5,605.5C 459.978,611.044 447.978,614.377 435.5,615.5C 432.376,613.276 430.209,610.276 429,606.5C 427.048,600.315 425.881,593.982 425.5,587.5 Z"/></g>
<g><path style="opacity:0.962" fill="#3f8cde" d="M 471.5,605.5 C 468.784,616.414 466.451,627.414 464.5,638.5C 453.914,632.035 444.248,624.368 435.5,615.5C 447.978,614.377 459.978,611.044 471.5,605.5 Z"/></g>
</svg>
