<svg id="svg" version="1.1" xmlns="http://www.w3.org/2000/svg" xmlns:xlink="http://www.w3.org/1999/xlink" width="100" height="100" viewBox="0, 0, 400,225"><g id="svgg"><path id="path0" d="M18.357 39.696 C 11.013 41.292,5.712 46.235,3.398 53.646 L 2.813 55.521 2.813 108.229 L 2.813 160.938 3.291 162.708 C 5.359 170.354,11.664 176.037,19.366 177.198 C 22.367 177.650,377.633 177.650,380.634 177.198 C 388.336 176.037,394.641 170.354,396.709 162.708 L 397.188 160.938 397.188 108.229 L 397.188 55.521 396.602 53.646 C 394.466 46.804,389.874 42.151,383.187 40.054 L 381.354 39.479 200.521 39.443 C 46.985 39.413,19.487 39.451,18.357 39.696 M380.946 44.897 C 386.326 46.256,390.690 50.772,391.760 56.085 C 392.235 58.445,392.246 158.454,391.772 160.729 C 390.692 165.905,386.357 170.387,381.042 171.822 C 378.934 172.391,21.066 172.391,18.958 171.822 C 13.643 170.387,9.308 165.905,8.228 160.729 C 7.754 158.454,7.765 58.445,8.240 56.085 C 9.301 50.816,13.633 46.300,18.958 44.910 C 20.739 44.445,379.107 44.432,380.946 44.897 M333.646 48.087 C 330.364 49.631,329.646 53.609,332.187 56.166 C 335.441 59.440,340.618 57.046,340.382 52.376 C 340.211 48.990,336.606 46.694,333.646 48.087 M309.323 56.408 L 306.250 56.935 306.250 60.968 L 306.250 65.000 302.708 65.000 L 299.167 65.000 299.167 67.708 L 299.167 70.417 302.694 70.417 L 306.221 70.417 306.305 81.823 C 306.397 94.393,306.394 94.362,307.761 96.938 C 310.336 101.788,317.586 103.222,324.504 100.248 C 325.406 99.860,325.914 99.526,325.873 99.347 C 325.838 99.191,325.427 98.070,324.960 96.857 L 324.111 94.652 322.316 95.278 C 318.997 96.436,315.904 96.111,314.612 94.468 C 313.248 92.734,313.232 92.586,313.231 81.042 L 313.229 70.521 318.867 70.465 L 324.506 70.410 324.771 68.174 C 324.916 66.944,325.085 65.727,325.145 65.469 L 325.254 65.000 319.189 65.000 L 313.125 65.000 313.125 60.417 C 313.125 56.181,313.097 55.835,312.760 55.857 C 312.560 55.870,311.013 56.118,309.323 56.408 M101.458 64.584 C 95.709 66.010,92.813 69.290,92.813 74.375 C 92.813 80.118,95.648 82.588,105.025 85.011 C 112.651 86.981,115.282 89.605,113.385 93.347 C 111.181 97.695,101.846 97.241,94.557 92.430 L 94.009 92.069 92.522 94.486 C 90.817 97.258,90.796 96.979,92.811 98.235 C 100.338 102.926,112.395 103.027,117.636 98.442 C 121.501 95.061,122.111 88.564,118.941 84.561 C 117.030 82.149,113.885 80.691,105.729 78.437 C 101.105 77.159,99.702 76.084,99.702 73.818 C 99.702 69.138,107.205 68.129,114.937 71.770 C 116.332 72.426,116.905 72.606,117.042 72.430 C 117.319 72.073,119.583 67.979,119.583 67.835 C 119.583 67.585,115.881 65.865,114.202 65.336 C 110.307 64.107,104.714 63.777,101.458 64.584 M138.450 64.510 C 130.617 66.189,125.947 72.921,125.681 82.917 C 125.371 94.587,130.113 100.619,140.430 101.678 C 145.380 102.186,152.168 100.527,155.841 97.911 L 156.463 97.469 155.175 95.034 L 153.887 92.599 151.687 93.702 C 148.397 95.351,147.257 95.657,143.943 95.780 C 136.921 96.040,133.162 92.723,132.572 85.747 L 132.439 84.167 144.865 84.167 L 157.292 84.167 157.290 80.260 C 157.288 74.027,156.342 71.121,153.339 68.121 C 149.890 64.675,144.162 63.286,138.450 64.510 M170.625 64.378 C 169.995 64.467,168.518 64.654,167.344 64.793 L 165.208 65.047 165.208 82.940 L 165.208 100.833 168.646 100.833 L 172.083 100.833 172.083 86.682 L 172.083 72.530 173.802 71.866 C 180.608 69.236,185.183 69.627,186.692 72.967 L 187.188 74.063 187.247 87.448 L 187.306 100.833 190.736 100.833 L 194.167 100.833 194.167 86.758 L 194.167 72.682 195.514 72.071 C 200.551 69.787,206.064 69.551,208.046 71.533 C 209.689 73.175,209.661 72.913,209.743 87.760 L 209.815 100.833 213.251 100.833 L 216.688 100.833 216.616 86.406 C 216.540 70.830,216.549 70.970,215.398 68.714 C 212.652 63.330,204.155 62.586,194.954 66.923 L 192.721 67.976 191.798 66.949 C 188.478 63.257,180.990 63.150,173.911 66.694 C 173.025 67.137,172.252 67.500,172.192 67.500 C 172.132 67.500,172.083 66.750,172.083 65.833 C 172.083 64.917,172.013 64.178,171.927 64.192 C 171.841 64.206,171.255 64.290,170.625 64.378 M236.650 64.479 C 233.249 65.119,229.984 66.393,226.778 68.329 L 225.021 69.390 226.492 71.726 C 227.301 73.011,228.001 74.103,228.048 74.153 C 228.095 74.203,228.483 74.034,228.910 73.777 C 235.500 69.814,242.425 68.897,245.260 71.612 C 246.195 72.507,246.710 74.179,246.825 76.692 L 246.926 78.905 244.869 79.045 C 229.818 80.073,222.022 85.736,223.828 94.328 C 225.501 102.290,237.307 104.415,246.132 98.343 L 247.051 97.711 247.163 98.282 C 247.225 98.597,247.337 99.299,247.412 99.844 L 247.547 100.833 250.649 100.833 L 253.750 100.833 253.750 87.414 C 253.750 70.905,253.609 69.892,250.936 67.219 C 248.296 64.579,242.262 63.422,236.650 64.479 M267.813 64.615 C 266.208 64.807,264.685 64.973,264.427 64.982 L 263.958 65.000 263.958 82.917 L 263.958 100.833 267.394 100.833 L 270.830 100.833 270.884 86.735 L 270.938 72.637 272.396 72.036 C 278.364 69.578,284.497 69.599,286.483 72.083 C 287.746 73.664,287.779 74.040,287.866 88.073 L 287.945 100.833 291.383 100.833 L 294.820 100.833 294.737 86.719 C 294.636 69.800,294.542 69.187,291.627 66.566 C 287.876 63.194,279.511 63.336,272.468 66.891 C 270.842 67.712,270.858 67.722,270.790 65.883 L 270.729 64.266 267.813 64.615 M335.938 64.591 C 334.333 64.796,332.810 64.973,332.552 64.982 L 332.083 65.000 332.083 82.917 L 332.083 100.833 335.521 100.833 L 338.958 100.833 338.958 82.500 C 338.958 72.417,338.935 64.178,338.906 64.192 C 338.878 64.205,337.542 64.385,335.938 64.591 M361.056 64.381 C 355.121 65.622,350.517 69.399,348.362 74.795 C 346.108 80.438,346.491 90.065,349.154 94.707 C 352.987 101.390,363.036 103.749,371.979 100.066 C 373.351 99.501,376.665 97.675,376.666 97.484 C 376.667 97.224,374.123 92.708,373.975 92.708 C 373.888 92.708,372.888 93.181,371.752 93.760 C 368.574 95.378,367.239 95.729,364.271 95.729 C 357.289 95.727,354.136 92.040,354.117 83.854 C 354.090 71.922,360.927 67.104,371.450 71.641 L 373.365 72.466 374.635 69.874 C 376.098 66.887,376.171 67.153,373.582 66.037 C 369.850 64.428,364.325 63.698,361.056 64.381 M145.559 69.906 C 148.449 70.724,150.275 73.437,150.565 77.344 L 150.685 78.958 141.801 78.958 C 136.914 78.958,132.917 78.886,132.917 78.798 C 132.917 78.308,133.834 75.446,134.260 74.605 C 136.419 70.345,140.748 68.544,145.559 69.906 M246.875 88.330 L 246.875 92.701 244.735 93.746 C 238.829 96.631,232.768 96.594,231.439 93.666 C 229.273 88.897,234.429 85.151,244.479 84.193 C 245.510 84.095,246.471 84.002,246.615 83.986 C 246.816 83.965,246.875 84.956,246.875 88.330 M41.863 98.248 C 41.356 99.069,41.416 100.061,42.225 104.243 L 42.553 105.938 44.645 106.970 C 46.576 107.923,50.019 110.103,51.600 111.373 L 52.262 111.905 53.704 109.755 C 55.919 106.454,60.437 98.255,60.169 98.026 C 60.089 97.958,45.639 97.494,43.715 97.497 C 42.346 97.500,42.319 97.511,41.863 98.248 M30.464 115.159 C 23.731 129.111,21.466 145.207,25.563 149.992 L 26.330 150.889 27.905 150.766 C 31.027 150.521,34.906 149.234,37.813 147.479 L 38.854 146.850 38.862 142.123 C 38.875 134.070,41.041 126.786,45.395 120.150 L 46.458 118.529 45.818 116.869 C 45.427 115.854,44.766 114.689,44.119 113.872 L 43.059 112.536 40.957 112.420 C 39.800 112.357,37.300 112.256,35.400 112.197 L 31.945 112.089 30.464 115.159 M105.276 115.835 C 95.405 116.857,90.009 123.022,91.758 131.277 C 92.749 135.952,95.899 138.491,105.417 142.292 C 113.135 145.374,114.591 146.485,114.579 149.285 C 114.553 155.149,103.636 156.200,95.164 151.153 C 94.485 150.748,93.864 150.417,93.786 150.417 C 93.623 150.417,89.314 157.093,89.414 157.191 C 91.559 159.312,98.246 161.752,103.438 162.308 C 117.160 163.777,126.231 156.723,124.302 146.084 C 123.297 140.540,120.210 137.952,110.104 134.183 C 102.813 131.464,101.002 130.056,101.307 127.347 C 101.786 123.101,109.250 122.402,116.378 125.937 C 117.881 126.682,119.157 127.292,119.213 127.292 C 119.584 127.292,123.573 120.810,123.360 120.553 C 122.908 120.008,118.223 117.748,116.242 117.119 C 112.549 115.947,108.632 115.488,105.276 115.835 M285.833 115.842 C 273.683 117.107,267.602 124.961,267.613 139.375 C 267.625 155.073,275.638 163.282,290.114 162.425 C 294.490 162.166,301.689 159.839,303.413 158.127 C 303.563 157.978,300.135 151.250,299.909 151.250 C 299.874 151.250,298.872 151.714,297.683 152.282 C 290.273 155.817,282.640 154.246,279.610 148.561 C 276.341 142.427,276.875 132.024,280.706 127.227 C 283.815 123.334,291.267 122.695,297.500 125.787 C 298.589 126.327,299.546 126.799,299.627 126.836 C 299.930 126.976,303.332 119.841,303.065 119.626 C 299.914 117.089,291.535 115.249,285.833 115.842 M358.259 115.842 C 349.315 116.848,344.446 121.305,344.497 128.438 C 344.544 135.077,347.192 137.758,358.021 142.125 C 366.155 145.406,367.500 146.417,367.500 149.249 C 367.500 155.452,356.855 156.222,347.357 150.706 C 346.992 150.494,346.654 150.365,346.605 150.421 C 346.278 150.794,342.500 156.899,342.500 157.055 C 342.500 158.525,351.133 161.774,356.458 162.308 C 369.489 163.616,378.010 157.729,377.437 147.816 C 377.048 141.104,374.106 138.319,363.021 134.168 C 355.817 131.471,353.759 129.843,354.249 127.231 C 355.035 123.040,362.331 122.439,369.375 125.985 L 372.188 127.401 374.409 124.065 L 376.630 120.729 375.555 120.039 C 370.661 116.899,363.755 115.223,358.259 115.842 M131.042 139.063 L 131.042 161.458 146.042 161.458 L 161.042 161.458 161.042 157.500 L 161.042 153.542 150.830 153.542 L 140.618 153.542 140.674 148.073 L 140.729 142.604 148.802 142.550 C 153.242 142.520,156.875 142.464,156.875 142.427 C 156.875 142.389,157.109 140.679,157.396 138.627 C 157.682 136.575,157.916 134.873,157.917 134.846 C 157.917 134.819,154.049 134.772,149.323 134.742 L 140.729 134.688 140.673 129.635 L 140.618 124.583 150.621 124.583 L 160.625 124.583 160.625 120.625 L 160.625 116.667 145.833 116.667 L 131.042 116.667 131.042 139.063 M168.333 139.063 L 168.333 161.458 173.125 161.458 L 177.917 161.458 177.917 153.333 L 177.917 145.208 179.847 145.208 L 181.777 145.208 187.252 153.333 L 192.727 161.458 198.134 161.458 C 201.394 161.458,203.542 161.380,203.542 161.261 C 203.542 161.153,200.872 157.239,197.610 152.563 C 194.347 147.888,191.676 144.016,191.674 143.958 C 191.672 143.901,192.443 143.483,193.387 143.029 C 201.386 139.185,203.319 127.574,196.997 121.354 C 192.930 117.354,189.964 116.668,176.719 116.667 L 168.333 116.667 168.333 139.063 M202.571 117.132 C 202.638 117.392,206.324 127.473,210.762 139.535 L 218.830 161.465 224.233 161.410 L 229.635 161.354 237.731 139.271 C 242.184 127.125,245.829 117.070,245.830 116.927 C 245.833 116.726,244.705 116.667,240.876 116.667 L 235.919 116.667 230.203 134.063 C 227.060 143.630,224.439 151.457,224.379 151.455 C 224.320 151.454,221.689 143.649,218.534 134.112 L 212.798 116.771 207.624 116.715 L 202.449 116.659 202.571 117.132 M250.833 139.063 L 250.833 161.458 255.729 161.458 L 260.625 161.458 260.625 139.063 L 260.625 116.667 255.729 116.667 L 250.833 116.667 250.833 139.063 M308.750 139.063 L 308.750 161.458 323.750 161.458 L 338.750 161.458 338.750 157.500 L 338.750 153.542 328.538 153.542 L 318.326 153.542 318.382 148.073 L 318.438 142.604 326.478 142.550 L 334.518 142.495 334.977 139.112 C 335.229 137.252,335.480 135.518,335.534 135.260 L 335.633 134.792 326.983 134.792 L 318.333 134.792 318.333 129.688 L 318.333 124.583 328.333 124.583 L 338.333 124.583 338.333 120.625 L 338.333 116.667 323.542 116.667 L 308.750 116.667 308.750 139.063 M186.386 124.889 C 189.783 125.912,191.426 128.956,190.635 132.763 C 189.897 136.322,187.198 137.743,181.092 137.789 L 178.021 137.813 177.966 131.356 C 177.935 127.805,177.961 124.767,178.024 124.605 C 178.181 124.195,184.832 124.421,186.386 124.889 " stroke="none" fill="#536063" fill-rule="evenodd"></path><path id="path1" d="M19.896 44.895 C 14.733 45.868,10.621 49.389,8.787 54.409 L 8.229 55.938 8.171 107.708 C 8.119 154.575,8.145 159.623,8.448 160.997 C 9.493 165.747,13.485 169.986,18.333 171.493 L 19.896 171.979 200.000 171.979 L 380.104 171.979 381.667 171.493 C 386.515 169.986,390.506 165.748,391.552 160.997 C 391.855 159.623,391.881 154.589,391.829 107.708 L 391.771 55.938 391.213 54.409 C 389.543 49.839,385.892 46.446,381.146 45.054 C 379.473 44.564,22.489 44.406,19.896 44.895 M337.065 47.826 C 339.225 48.468,340.774 50.729,340.584 52.963 C 340.224 57.207,335.530 59.262,332.340 56.572 C 328.122 53.015,331.774 46.255,337.065 47.826 M41.563 52.520 C 47.354 54.446,62.525 62.872,64.350 65.177 C 70.067 72.396,65.460 92.168,54.009 109.560 L 52.447 111.932 54.519 113.865 C 62.719 121.513,66.756 130.413,66.753 140.833 C 66.749 155.108,57.288 166.938,47.843 164.478 C 41.524 162.832,26.947 153.072,24.733 149.005 C 20.625 141.458,25.973 119.936,35.342 106.302 C 36.952 103.960,36.962 104.349,35.230 101.905 C 23.133 84.844,20.703 73.208,26.669 60.908 C 30.343 53.332,35.415 50.476,41.563 52.520 M313.333 60.313 L 313.333 65.000 319.333 65.000 L 325.332 65.000 324.964 67.760 C 324.762 69.279,324.593 70.544,324.590 70.573 C 324.586 70.602,322.047 70.625,318.948 70.625 L 313.312 70.625 313.381 81.198 C 313.459 93.040,313.452 92.982,314.974 94.580 C 316.343 96.018,319.101 96.218,322.376 95.118 C 324.317 94.466,324.127 94.333,325.192 97.083 C 326.265 99.852,326.309 99.642,324.501 100.394 C 317.259 103.409,309.863 101.778,307.435 96.630 C 306.292 94.205,306.256 93.763,306.253 81.719 L 306.250 70.625 302.604 70.625 L 298.958 70.625 298.958 67.813 L 298.958 65.000 302.600 65.000 L 306.241 65.000 306.298 60.890 L 306.354 56.780 309.583 56.226 C 311.359 55.921,312.930 55.661,313.073 55.648 C 313.274 55.630,313.333 56.689,313.333 60.313 M110.209 64.259 C 112.589 64.618,115.133 65.397,117.394 66.458 C 120.114 67.736,120.033 67.445,118.451 70.214 C 117.700 71.529,117.060 72.680,117.028 72.773 C 116.997 72.865,116.551 72.708,116.038 72.424 C 108.527 68.266,99.913 69.028,99.900 73.853 C 99.893 76.104,101.180 77.079,105.808 78.330 C 117.730 81.554,121.042 84.246,121.042 90.713 C 121.042 95.130,119.060 98.306,115.111 100.217 C 108.746 103.298,96.793 101.942,91.515 97.540 L 90.842 96.979 92.410 94.438 L 93.978 91.896 95.454 92.851 C 102.010 97.092,111.511 97.306,113.351 93.253 C 114.996 89.632,112.550 87.192,105.313 85.234 C 95.393 82.551,92.604 80.170,92.604 74.385 C 92.604 66.919,99.924 62.709,110.209 64.259 M146.415 64.277 C 154.270 65.834,158.625 73.251,157.408 82.996 L 157.262 84.167 144.985 84.167 L 132.708 84.167 132.708 85.299 C 132.708 94.776,141.783 98.656,151.855 93.487 C 152.933 92.934,153.883 92.556,153.966 92.647 C 154.205 92.908,156.693 97.545,156.624 97.601 C 152.439 101.041,142.526 102.878,136.875 101.261 C 129.423 99.128,125.779 93.890,125.474 84.875 C 124.992 70.640,133.970 61.809,146.415 64.277 M187.125 64.189 C 188.984 64.576,190.718 65.524,191.788 66.737 L 192.755 67.834 194.555 66.949 C 203.782 62.412,212.674 63.109,215.439 68.586 C 216.770 71.223,216.765 71.154,216.768 86.771 L 216.771 100.938 213.229 100.938 L 209.688 100.938 209.575 87.708 C 209.463 74.414,209.441 74.037,208.682 72.571 C 207.221 69.744,201.889 69.532,195.818 72.060 L 194.271 72.704 194.326 86.873 L 194.381 101.042 190.836 101.042 L 187.292 101.042 187.292 89.109 C 187.292 74.418,187.169 73.159,185.577 71.514 C 183.861 69.741,179.617 69.874,174.116 71.876 L 172.295 72.538 172.241 86.738 L 172.188 100.938 168.646 100.938 L 165.104 100.938 165.104 82.917 L 165.104 64.896 168.021 64.543 C 169.625 64.348,171.242 64.184,171.615 64.178 L 172.292 64.167 172.292 65.729 C 172.292 66.589,172.326 67.292,172.369 67.292 C 172.412 67.292,173.419 66.828,174.609 66.261 C 178.799 64.265,183.644 63.463,187.125 64.189 M246.771 64.655 C 250.448 65.844,252.398 67.889,253.475 71.683 C 253.825 72.917,253.854 74.105,253.854 86.979 L 253.854 100.938 250.625 100.938 L 247.396 100.938 247.214 99.456 L 247.032 97.974 245.665 98.804 C 235.520 104.968,223.919 101.799,223.576 92.770 C 223.282 85.027,230.543 79.910,243.021 79.068 C 244.052 78.998,245.294 78.892,245.781 78.833 L 246.667 78.724 246.667 76.928 C 246.667 71.884,244.666 70.001,239.592 70.270 C 236.289 70.445,233.339 71.382,229.918 73.344 C 228.899 73.929,228.008 74.323,227.939 74.221 C 227.149 73.059,225.000 69.552,225.000 69.427 C 225.000 68.902,230.100 66.276,233.008 65.303 C 237.471 63.809,243.307 63.534,246.771 64.655 M287.586 64.370 C 290.548 65.128,292.278 66.448,293.504 68.889 C 294.771 71.412,294.792 71.699,294.792 87.072 L 294.792 101.042 291.261 101.042 L 287.731 101.042 287.659 87.969 C 287.578 73.121,287.605 73.384,285.963 71.741 C 283.910 69.689,277.955 69.871,272.396 72.156 L 271.146 72.670 271.042 86.804 L 270.938 100.938 267.396 100.938 L 263.854 100.938 263.854 82.919 L 263.854 64.900 266.771 64.551 C 268.375 64.359,269.992 64.194,270.365 64.184 L 271.042 64.167 271.042 65.729 C 271.042 66.589,271.084 67.292,271.136 67.292 C 271.189 67.292,272.061 66.926,273.076 66.480 C 278.391 64.141,283.681 63.372,287.586 64.370 M369.690 64.537 C 371.992 65.161,376.042 66.837,376.042 67.166 C 376.042 67.435,373.468 72.500,373.331 72.500 C 373.238 72.500,372.380 72.164,371.425 71.753 C 360.998 67.266,354.270 72.016,354.281 83.854 C 354.292 94.564,361.351 98.633,371.439 93.743 C 372.849 93.059,374.032 92.500,374.069 92.500 C 374.521 92.500,376.869 97.563,376.533 97.813 C 370.371 102.405,360.014 103.200,353.804 99.558 C 345.111 94.460,344.023 77.571,351.844 69.124 C 355.791 64.861,363.540 62.869,369.690 64.537 M339.167 82.604 L 339.167 101.042 335.625 101.042 L 332.083 101.042 332.083 82.955 L 332.083 64.868 334.844 64.545 C 336.362 64.368,337.956 64.210,338.385 64.195 L 339.167 64.167 339.167 82.604 M49.725 68.915 C 43.386 74.220,40.011 85.034,41.112 96.510 C 41.329 98.772,41.371 98.769,42.835 96.406 C 48.179 87.782,51.428 77.520,51.210 69.957 L 51.146 67.726 49.725 68.915 M140.453 69.792 C 136.825 70.562,133.149 74.926,133.128 78.490 L 133.125 78.958 141.800 78.958 L 150.474 78.958 150.365 77.135 C 150.037 71.696,145.906 68.636,140.453 69.792 M244.792 84.305 C 235.118 85.251,230.396 88.143,231.231 92.611 C 231.955 96.488,238.810 96.864,245.260 93.380 L 246.667 92.621 246.667 88.394 L 246.667 84.167 246.094 84.200 C 245.779 84.218,245.193 84.265,244.792 84.305 M112.144 115.936 C 115.940 116.598,122.913 119.440,123.645 120.623 C 123.779 120.840,119.433 127.500,119.157 127.500 C 119.051 127.500,118.507 127.219,117.948 126.874 C 111.009 122.605,101.935 122.822,101.508 127.269 C 101.235 130.106,102.503 131.115,109.912 133.963 C 118.612 137.306,121.583 139.233,123.307 142.655 C 125.108 146.227,125.070 151.469,123.218 154.993 C 118.644 163.697,101.624 165.312,90.571 158.089 L 89.162 157.169 91.276 153.845 C 92.439 152.017,93.460 150.443,93.546 150.347 C 93.631 150.252,94.345 150.536,95.132 150.978 C 99.007 153.159,101.654 153.954,105.548 154.110 C 111.535 154.349,114.271 152.833,114.271 149.275 C 114.271 146.373,113.283 145.620,105.104 142.291 C 94.277 137.883,91.233 134.778,91.254 128.159 C 91.280 119.547,100.826 113.962,112.144 115.936 M293.557 115.955 C 296.793 116.500,303.333 119.069,303.333 119.796 C 303.333 120.063,299.823 127.083,299.689 127.083 C 299.635 127.083,299.143 126.810,298.597 126.476 C 292.834 122.948,284.873 123.156,281.197 126.929 C 277.344 130.885,276.454 142.000,279.504 148.069 C 282.556 154.141,290.421 155.807,298.015 151.990 C 299.043 151.473,299.948 151.119,300.027 151.202 C 300.189 151.373,303.750 157.899,303.750 158.025 C 303.750 158.192,300.999 159.633,299.133 160.443 C 290.191 164.323,278.846 162.912,273.403 157.244 C 264.478 147.949,265.385 126.948,275.026 119.701 C 279.611 116.255,286.753 114.811,293.557 115.955 M367.292 116.410 C 370.654 117.287,376.008 119.728,376.573 120.642 C 376.672 120.803,373.999 125.132,372.345 127.488 C 372.310 127.539,371.259 127.044,370.010 126.387 C 362.439 122.408,354.375 123.088,354.375 127.705 C 354.375 130.066,356.185 131.480,361.979 133.643 C 373.475 137.934,376.372 140.270,377.430 146.099 C 379.553 157.802,367.971 165.220,352.765 161.898 C 348.814 161.035,342.292 158.051,342.292 157.106 C 342.292 156.968,346.155 150.763,346.553 150.263 C 346.575 150.235,347.805 150.823,349.286 151.568 C 358.379 156.142,368.270 154.551,367.386 148.656 C 367.031 146.285,365.709 145.376,358.229 142.355 C 347.025 137.831,344.295 135.038,344.319 128.125 C 344.352 118.802,355.218 113.261,367.292 116.410 M160.729 120.625 L 160.729 124.688 150.781 124.742 L 140.833 124.796 140.833 129.690 L 140.833 134.583 149.502 134.583 L 158.170 134.583 158.059 135.052 C 157.998 135.310,157.736 137.138,157.477 139.115 L 157.006 142.708 148.919 142.708 L 140.833 142.708 140.833 148.019 L 140.833 153.329 150.990 153.383 L 161.146 153.438 161.146 157.500 L 161.146 161.563 146.042 161.563 L 130.938 161.563 130.884 139.271 C 130.854 127.010,130.875 116.861,130.930 116.717 C 131.009 116.510,134.110 116.467,145.879 116.509 L 160.729 116.563 160.729 120.625 M186.067 116.669 C 195.360 117.550,200.844 122.727,200.830 130.606 C 200.820 136.242,198.124 140.882,193.606 143.039 C 192.557 143.540,191.933 143.956,191.986 144.118 C 192.034 144.264,194.654 148.082,197.807 152.603 C 200.961 157.123,203.542 161.014,203.542 161.248 C 203.542 161.667,203.459 161.673,198.098 161.618 L 192.655 161.563 187.130 153.385 L 181.605 145.208 179.865 145.208 L 178.125 145.208 178.125 153.438 L 178.125 161.667 173.125 161.667 L 168.125 161.667 168.125 139.201 C 168.125 126.845,168.188 116.674,168.264 116.597 C 168.485 116.376,183.624 116.437,186.067 116.669 M218.542 133.798 C 221.693 143.278,224.320 151.036,224.379 151.038 C 224.439 151.040,225.019 149.424,225.669 147.448 C 226.318 145.471,228.878 137.690,231.356 130.156 L 235.863 116.458 240.836 116.458 C 243.951 116.458,245.857 116.537,245.938 116.668 C 246.038 116.829,231.195 157.806,229.883 160.990 L 229.605 161.667 224.200 161.667 C 219.246 161.667,218.783 161.636,218.651 161.302 C 216.994 157.110,202.500 117.310,202.500 116.954 L 202.500 116.451 207.656 116.507 L 212.813 116.563 218.542 133.798 M260.625 139.063 L 260.625 161.667 255.729 161.667 L 250.833 161.667 250.833 139.063 L 250.833 116.458 255.729 116.458 L 260.625 116.458 260.625 139.063 M338.438 120.625 L 338.438 124.688 328.490 124.742 L 318.542 124.796 318.542 129.690 L 318.542 134.583 327.083 134.583 L 335.625 134.583 335.625 135.106 C 335.625 135.660,334.859 141.446,334.681 142.240 L 334.575 142.708 326.559 142.708 L 318.542 142.708 318.542 148.021 L 318.542 153.333 328.646 153.333 L 338.750 153.333 338.750 157.500 L 338.750 161.667 323.646 161.667 L 308.542 161.667 308.542 139.201 C 308.542 126.845,308.605 116.673,308.682 116.596 C 308.759 116.519,315.486 116.480,323.630 116.509 L 338.438 116.563 338.438 120.625 M45.132 120.885 C 41.115 127.298,39.202 133.645,39.024 141.146 C 38.885 147.029,38.849 146.963,41.041 144.879 C 46.048 140.117,48.195 135.348,48.207 128.958 C 48.215 125.201,48.122 124.521,47.075 120.641 C 46.515 118.565,46.592 118.555,45.132 120.885 M178.125 131.150 L 178.125 137.762 181.510 137.649 C 188.539 137.412,190.879 135.552,190.583 130.434 C 190.336 126.170,188.279 124.809,181.823 124.636 L 178.125 124.537 178.125 131.150 " stroke="none" fill="#fbfbfb" fill-rule="evenodd"></path><path id="path2" d="M35.754 52.095 C 28.790 53.833,22.712 66.164,23.741 76.463 C 24.147 80.516,25.918 85.813,28.757 91.458 C 31.069 96.054,37.013 104.760,43.125 112.500 C 46.746 117.085,48.941 124.495,48.433 130.417 C 47.530 140.936,38.497 149.946,28.028 150.771 L 26.368 150.902 27.819 152.241 C 32.602 156.651,41.694 162.278,46.955 164.085 C 58.291 167.978,69.085 151.814,66.263 135.171 C 64.264 123.379,55.988 112.629,44.546 106.961 L 42.529 105.962 42.207 104.179 C 40.071 92.340,40.421 85.461,43.557 77.626 C 46.696 69.783,52.962 64.987,61.354 64.005 L 62.813 63.835 60.729 62.472 C 55.946 59.341,45.693 54.064,41.784 52.721 C 39.548 51.953,37.269 51.716,35.754 52.095 " stroke="none" fill="#17c2bf" fill-rule="evenodd"></path><path id="path3" d="M105.260 64.110 C 105.690 64.155,106.393 64.155,106.823 64.110 C 107.253 64.065,106.901 64.028,106.042 64.028 C 105.182 64.028,104.831 64.065,105.260 64.110 M141.818 64.109 C 142.188 64.155,142.844 64.155,143.277 64.110 C 143.709 64.065,143.406 64.028,142.604 64.027 C 141.802 64.026,141.448 64.063,141.818 64.109 M183.490 64.109 C 183.862 64.155,184.471 64.155,184.844 64.109 C 185.216 64.063,184.911 64.025,184.167 64.025 C 183.422 64.025,183.117 64.063,183.490 64.109 M205.781 64.109 C 206.154 64.155,206.763 64.155,207.135 64.109 C 207.508 64.063,207.203 64.025,206.458 64.025 C 205.714 64.025,205.409 64.063,205.781 64.109 M240.469 64.110 C 240.898 64.155,241.602 64.155,242.031 64.110 C 242.461 64.065,242.109 64.028,241.250 64.028 C 240.391 64.028,240.039 64.065,240.469 64.110 M283.068 64.109 C 283.438 64.155,284.094 64.155,284.527 64.110 C 284.959 64.065,284.656 64.028,283.854 64.027 C 283.052 64.026,282.698 64.063,283.068 64.109 M364.115 64.109 C 364.487 64.155,365.096 64.155,365.469 64.109 C 365.841 64.063,365.536 64.025,364.792 64.025 C 364.047 64.025,363.742 64.063,364.115 64.109 M339.058 82.500 C 339.058 92.641,339.083 96.789,339.115 91.719 C 339.146 86.648,339.146 78.352,339.115 73.281 C 339.083 68.211,339.058 72.359,339.058 82.500 M142.242 69.522 C 142.501 69.572,142.876 69.570,143.075 69.518 C 143.275 69.466,143.063 69.425,142.604 69.428 C 142.146 69.430,141.983 69.473,142.242 69.522 M300.885 70.572 C 301.888 70.610,303.529 70.610,304.531 70.572 C 305.534 70.534,304.714 70.502,302.708 70.502 C 300.703 70.502,299.883 70.534,300.885 70.572 M316.106 70.572 C 317.689 70.608,320.220 70.608,321.731 70.572 C 323.243 70.537,321.948 70.508,318.854 70.508 C 315.760 70.508,314.524 70.537,316.106 70.572 M51.169 74.507 C 50.597 80.192,47.205 89.456,43.389 95.755 L 42.363 97.447 48.005 97.602 C 51.107 97.687,55.146 97.816,56.979 97.889 L 60.313 98.021 60.800 96.979 C 63.985 90.169,66.457 81.463,66.797 75.855 L 66.934 73.603 60.915 73.465 C 57.604 73.389,54.090 73.270,53.104 73.201 L 51.313 73.076 51.169 74.507 M92.562 74.375 C 92.562 75.005,92.601 75.263,92.649 74.948 C 92.697 74.633,92.697 74.117,92.649 73.802 C 92.601 73.487,92.562 73.745,92.562 74.375 M194.265 87.500 C 194.265 94.891,194.291 97.914,194.323 94.219 C 194.355 90.523,194.355 84.477,194.323 80.781 C 194.291 77.086,194.265 80.109,194.265 87.500 M287.806 88.958 C 287.806 95.547,287.832 98.242,287.864 94.948 C 287.897 91.654,287.897 86.263,287.864 82.969 C 287.832 79.674,287.806 82.370,287.806 88.958 M157.351 78.854 C 157.353 79.427,157.393 79.637,157.441 79.320 C 157.489 79.003,157.488 78.535,157.438 78.278 C 157.389 78.022,157.350 78.281,157.351 78.854 M125.491 83.646 C 125.490 84.677,125.525 85.125,125.569 84.642 C 125.613 84.158,125.613 83.314,125.570 82.767 C 125.527 82.219,125.491 82.615,125.491 83.646 M354.025 83.750 C 354.025 84.495,354.063 84.799,354.109 84.427 C 354.155 84.055,354.155 83.445,354.109 83.073 C 354.063 82.701,354.025 83.005,354.025 83.750 M129.792 97.188 C 130.180 97.589,130.545 97.917,130.603 97.917 C 130.660 97.917,130.389 97.589,130.000 97.188 C 129.611 96.786,129.246 96.458,129.189 96.458 C 129.132 96.458,129.403 96.786,129.792 97.188 M35.061 106.927 C 33.461 109.353,32.083 111.665,32.083 111.924 C 32.083 112.063,34.943 112.234,39.731 112.383 L 43.107 112.488 41.293 110.145 C 40.295 108.857,38.925 107.031,38.248 106.089 C 36.734 103.983,37.059 103.897,35.061 106.927 M179.436 124.530 C 180.214 124.570,181.433 124.570,182.144 124.529 C 182.855 124.488,182.219 124.456,180.729 124.456 C 179.240 124.456,178.658 124.489,179.436 124.530 M140.715 129.583 C 140.715 132.391,140.745 133.539,140.781 132.135 C 140.817 130.732,140.817 128.435,140.781 127.031 C 140.745 125.628,140.715 126.776,140.715 129.583 M179.219 137.862 C 179.878 137.904,180.956 137.904,181.615 137.862 C 182.273 137.821,181.734 137.787,180.417 137.787 C 179.099 137.787,178.560 137.821,179.219 137.862 M120.417 139.232 C 120.417 139.268,120.721 139.572,121.094 139.909 L 121.771 140.521 121.159 139.844 C 120.589 139.213,120.417 139.071,120.417 139.232 M140.719 142.764 C 140.663 142.909,140.644 145.417,140.677 148.337 L 140.737 153.646 140.785 148.180 L 140.833 142.713 148.906 142.656 L 156.979 142.599 148.900 142.550 C 142.533 142.511,140.799 142.556,140.719 142.764 M322.434 142.656 C 324.632 142.690,328.289 142.690,330.559 142.656 C 332.830 142.622,331.031 142.595,326.563 142.595 C 322.094 142.595,320.236 142.622,322.434 142.656 M272.917 156.732 C 272.917 156.768,273.221 157.072,273.594 157.409 L 274.271 158.021 273.659 157.344 C 273.089 156.713,272.917 156.571,272.917 156.732 " stroke="none" fill="#888c8e" fill-rule="evenodd"></path><path id="path4" d="M313.214 60.417 C 313.214 62.995,313.244 64.049,313.281 62.760 C 313.317 61.471,313.317 59.362,313.281 58.073 C 313.244 56.784,313.214 57.839,313.214 60.417 M270.906 65.833 C 270.906 66.807,270.942 67.206,270.986 66.719 C 271.030 66.232,271.030 65.435,270.986 64.948 C 270.942 64.461,270.906 64.859,270.906 65.833 M165.100 82.917 C 165.100 92.828,165.125 96.883,165.156 91.927 C 165.187 86.971,165.187 78.862,165.156 73.906 C 165.125 68.951,165.100 73.005,165.100 82.917 M239.950 70.147 C 240.209 70.197,240.584 70.195,240.784 70.143 C 240.983 70.091,240.771 70.050,240.313 70.053 C 239.854 70.055,239.691 70.098,239.950 70.147 M313.221 79.896 C 313.221 85.052,313.248 87.132,313.281 84.517 C 313.314 81.902,313.314 77.684,313.281 75.142 C 313.248 72.600,313.221 74.740,313.221 79.896 M270.932 86.771 C 270.932 94.563,270.958 97.720,270.990 93.787 C 271.021 89.854,271.021 83.479,270.989 79.620 C 270.958 75.761,270.932 78.979,270.932 86.771 M253.848 88.021 C 253.848 95.125,253.874 98.061,253.906 94.546 C 253.938 91.031,253.938 85.219,253.906 81.630 C 253.874 78.041,253.848 80.917,253.848 88.021 M209.681 88.854 C 209.681 95.500,209.707 98.249,209.739 94.963 C 209.772 91.677,209.772 86.239,209.739 82.879 C 209.707 79.520,209.681 82.208,209.681 88.854 M157.344 80.729 C 157.347 81.188,157.389 81.350,157.439 81.091 C 157.489 80.832,157.487 80.457,157.435 80.258 C 157.383 80.059,157.342 80.271,157.344 80.729 M346.738 83.854 C 346.739 84.771,346.775 85.120,346.819 84.630 C 346.863 84.140,346.863 83.390,346.818 82.963 C 346.773 82.537,346.737 82.938,346.738 83.854 M55.729 115.208 C 56.293 115.781,56.802 116.250,56.859 116.250 C 56.917 116.250,56.502 115.781,55.938 115.208 C 55.373 114.635,54.865 114.167,54.807 114.167 C 54.750 114.167,55.165 114.635,55.729 115.208 M160.712 120.625 C 160.712 122.859,160.743 123.773,160.780 122.656 C 160.818 121.539,160.818 119.711,160.780 118.594 C 160.743 117.477,160.712 118.391,160.712 120.625 M168.228 139.115 L 168.229 161.563 173.125 161.563 L 178.021 161.563 178.025 153.333 L 178.028 145.104 177.970 153.281 L 177.912 161.458 173.124 161.458 L 168.335 161.458 168.281 139.062 L 168.226 116.667 168.228 139.115 M308.644 139.115 L 308.646 161.563 323.646 161.565 L 338.646 161.567 323.699 161.511 L 308.752 161.456 308.697 139.061 L 308.643 116.667 308.644 139.115 M338.421 120.625 C 338.421 122.859,338.451 123.773,338.489 122.656 C 338.526 121.539,338.526 119.711,338.489 118.594 C 338.451 117.477,338.421 118.391,338.421 120.625 M288.802 123.894 C 289.003 123.946,289.331 123.946,289.531 123.894 C 289.732 123.841,289.568 123.798,289.167 123.798 C 288.766 123.798,288.602 123.841,288.802 123.894 M178.010 131.146 C 178.010 134.813,178.038 136.283,178.073 134.414 C 178.107 132.545,178.107 129.545,178.072 127.747 C 178.038 125.950,178.010 127.479,178.010 131.146 M318.432 129.739 L 318.438 134.688 327.031 134.691 L 335.625 134.695 327.087 134.637 L 318.549 134.579 318.488 129.685 L 318.426 124.791 318.432 129.739 M91.310 128.229 C 91.311 128.802,91.352 129.012,91.399 128.695 C 91.447 128.378,91.446 127.910,91.397 127.653 C 91.347 127.397,91.308 127.656,91.310 128.229 M190.682 131.042 C 190.682 131.557,190.722 131.768,190.772 131.510 C 190.822 131.253,190.822 130.831,190.772 130.573 C 190.722 130.315,190.682 130.526,190.682 131.042 M145.052 134.739 C 147.430 134.773,151.320 134.773,153.698 134.739 C 156.076 134.706,154.130 134.679,149.375 134.679 C 144.620 134.679,142.674 134.706,145.052 134.739 M277.548 137.500 C 277.548 137.901,277.591 138.065,277.644 137.865 C 277.696 137.664,277.696 137.336,277.644 137.135 C 277.591 136.935,277.548 137.099,277.548 137.500 M267.348 137.917 C 267.348 138.432,267.389 138.643,267.439 138.385 C 267.488 138.128,267.488 137.706,267.439 137.448 C 267.389 137.190,267.348 137.401,267.348 137.917 M277.548 140.208 C 277.548 140.609,277.591 140.773,277.644 140.573 C 277.696 140.372,277.696 140.044,277.644 139.844 C 277.591 139.643,277.548 139.807,277.548 140.208 M267.348 140.833 C 267.348 141.349,267.389 141.560,267.439 141.302 C 267.488 141.044,267.488 140.622,267.439 140.365 C 267.389 140.107,267.348 140.318,267.348 140.833 M23.382 142.500 C 23.382 142.901,23.425 143.065,23.477 142.865 C 23.529 142.664,23.529 142.336,23.477 142.135 C 23.425 141.935,23.382 142.099,23.382 142.500 M318.424 148.021 C 318.424 151.000,318.453 152.190,318.489 150.665 C 318.525 149.140,318.525 146.702,318.489 145.248 C 318.453 143.794,318.424 145.042,318.424 148.021 M138.490 161.615 C 142.643 161.646,149.440 161.646,153.594 161.615 C 157.747 161.583,154.349 161.557,146.042 161.557 C 137.734 161.557,134.336 161.583,138.490 161.615 M195.365 161.614 C 196.883 161.650,199.367 161.650,200.885 161.614 C 202.404 161.578,201.161 161.549,198.125 161.549 C 195.089 161.549,193.846 161.578,195.365 161.614 M221.406 161.614 C 222.924 161.650,225.409 161.650,226.927 161.614 C 228.445 161.578,227.203 161.549,224.167 161.549 C 221.130 161.549,219.888 161.578,221.406 161.614 M253.293 161.614 C 254.703 161.650,256.953 161.650,258.293 161.614 C 259.633 161.578,258.479 161.548,255.729 161.548 C 252.979 161.548,251.883 161.578,253.293 161.614 M111.094 172.240 C 159.992 172.268,240.008 172.268,288.906 172.240 C 337.805 172.211,297.797 172.187,200.000 172.187 C 102.203 172.187,62.195 172.211,111.094 172.240 " stroke="none" fill="#aab1b2" fill-rule="evenodd"></path><path id="path5" d="M59.063 64.382 C 56.722 64.874,55.820 65.206,53.333 66.492 L 51.354 67.515 51.354 70.297 L 51.354 73.080 53.125 73.203 C 54.099 73.271,57.581 73.388,60.863 73.463 L 66.830 73.600 66.729 72.581 C 66.413 69.386,65.280 66.350,63.845 64.853 C 62.828 63.791,62.177 63.727,59.063 64.382 " stroke="none" fill="#9ca4a4" fill-rule="evenodd"></path><path id="path6" d="M37.240 51.814 C 37.497 51.863,37.919 51.863,38.177 51.814 C 38.435 51.764,38.224 51.723,37.708 51.723 C 37.193 51.723,36.982 51.764,37.240 51.814 M8.019 108.333 C 8.019 135.891,8.043 147.164,8.073 133.385 C 8.102 119.607,8.102 97.060,8.073 83.281 C 8.043 69.503,8.019 80.776,8.019 108.333 M391.977 108.333 C 391.977 135.891,392.002 147.164,392.031 133.385 C 392.061 119.607,392.061 97.060,392.031 83.281 C 392.002 69.503,391.977 80.776,391.977 108.333 M172.156 65.833 C 172.156 66.807,172.192 67.206,172.236 66.719 C 172.280 66.232,172.280 65.435,172.236 64.948 C 172.192 64.461,172.156 64.859,172.156 65.833 M263.846 65.052 C 263.791 65.195,263.771 73.328,263.800 83.125 L 263.854 100.938 267.292 100.945 L 270.729 100.953 267.344 100.888 L 263.958 100.823 263.958 82.929 C 263.958 68.809,264.013 65.013,264.219 64.930 C 264.423 64.847,264.421 64.821,264.212 64.808 C 264.065 64.799,263.901 64.909,263.846 65.052 M299.041 67.813 C 299.041 69.417,299.074 70.045,299.113 69.210 C 299.153 68.374,299.153 67.061,299.113 66.293 C 299.073 65.525,299.040 66.208,299.041 67.813 M51.298 69.792 C 51.298 70.193,51.341 70.357,51.394 70.156 C 51.446 69.956,51.446 69.628,51.394 69.427 C 51.341 69.227,51.298 69.391,51.298 69.792 M105.577 69.734 C 105.951 69.781,106.514 69.780,106.827 69.732 C 107.140 69.685,106.833 69.647,106.146 69.648 C 105.458 69.649,105.202 69.688,105.577 69.734 M172.134 86.714 L 172.083 100.823 168.594 100.886 L 165.104 100.948 168.600 100.995 C 171.240 101.030,172.121 100.978,172.196 100.781 C 172.251 100.638,172.270 94.240,172.240 86.563 L 172.184 72.604 172.134 86.714 M216.717 87.443 L 216.667 100.823 213.177 100.886 L 209.688 100.948 213.184 100.995 C 215.824 101.030,216.704 100.978,216.779 100.781 C 216.834 100.638,216.854 94.568,216.823 87.292 L 216.768 74.063 216.717 87.443 M246.704 77.538 C 246.671 78.585,246.613 78.731,246.198 78.811 L 245.729 78.902 246.204 78.930 C 246.798 78.965,246.921 78.654,246.821 77.369 L 246.742 76.354 246.704 77.538 M150.469 78.229 C 150.472 78.688,150.514 78.850,150.564 78.591 C 150.614 78.332,150.612 77.957,150.560 77.758 C 150.508 77.559,150.467 77.771,150.469 78.229 M157.344 82.396 C 157.347 82.854,157.389 83.017,157.439 82.758 C 157.489 82.499,157.487 82.124,157.435 81.925 C 157.383 81.725,157.342 81.938,157.344 82.396 M246.755 88.333 C 246.755 90.682,246.785 91.643,246.822 90.469 C 246.859 89.294,246.859 87.372,246.822 86.198 C 246.785 85.023,246.755 85.984,246.755 88.333 M226.341 85.052 L 225.729 85.729 226.406 85.117 C 227.037 84.547,227.179 84.375,227.018 84.375 C 226.982 84.375,226.678 84.680,226.341 85.052 M247.474 100.891 C 247.563 100.980,249.036 101.027,250.745 100.995 L 253.854 100.936 250.583 100.833 C 248.783 100.776,247.384 100.802,247.474 100.891 M189.010 100.988 C 190.013 101.027,191.654 101.027,192.656 100.988 C 193.659 100.950,192.839 100.919,190.833 100.919 C 188.828 100.919,188.008 100.950,189.010 100.988 M289.427 100.988 C 290.430 101.027,292.070 101.027,293.073 100.988 C 294.076 100.950,293.255 100.919,291.250 100.919 C 289.245 100.919,288.424 100.950,289.427 100.988 M333.802 100.988 C 334.805 101.027,336.445 101.027,337.448 100.988 C 338.451 100.950,337.630 100.919,335.625 100.919 C 333.620 100.919,332.799 100.950,333.802 100.988 M130.929 116.719 C 130.875 116.862,130.855 127.010,130.885 139.271 L 130.939 161.563 130.991 139.116 L 131.042 116.669 145.885 116.615 L 160.729 116.560 145.879 116.509 C 134.153 116.469,131.008 116.513,130.929 116.719 M172.330 116.614 C 174.585 116.648,178.335 116.648,180.663 116.614 C 182.991 116.581,181.146 116.553,176.563 116.553 C 171.979 116.553,170.074 116.581,172.330 116.614 M205.064 116.614 C 206.532 116.650,208.876 116.650,210.273 116.614 C 211.670 116.578,210.469 116.549,207.604 116.549 C 204.740 116.549,203.597 116.578,205.064 116.614 M240.819 116.613 C 245.034 116.665,245.819 116.722,245.902 116.987 C 245.968 117.200,245.988 117.182,245.966 116.931 C 245.934 116.590,245.559 116.562,240.883 116.557 L 235.833 116.551 240.819 116.613 M253.293 116.614 C 254.703 116.650,256.953 116.650,258.293 116.614 C 259.633 116.578,258.479 116.548,255.729 116.548 C 252.979 116.548,251.883 116.578,253.293 116.614 M316.094 116.614 C 320.190 116.646,326.893 116.646,330.990 116.614 C 335.086 116.583,331.734 116.557,323.542 116.557 C 315.349 116.557,311.997 116.583,316.094 116.614 M145.796 124.739 C 148.582 124.772,153.082 124.772,155.796 124.739 C 158.509 124.706,156.229 124.680,150.729 124.680 C 145.229 124.680,143.009 124.707,145.796 124.739 M323.504 124.739 C 326.291 124.772,330.791 124.772,333.504 124.739 C 336.217 124.706,333.938 124.680,328.438 124.680 C 322.938 124.680,320.717 124.707,323.504 124.739 M344.223 128.125 C 344.223 128.641,344.264 128.852,344.314 128.594 C 344.363 128.336,344.363 127.914,344.314 127.656 C 344.264 127.398,344.223 127.609,344.223 128.125 M277.553 138.854 C 277.555 139.313,277.598 139.475,277.647 139.216 C 277.697 138.957,277.695 138.582,277.643 138.383 C 277.591 138.184,277.550 138.396,277.553 138.854 M38.824 141.979 C 38.823 143.010,38.859 143.459,38.902 142.975 C 38.946 142.492,38.946 141.648,38.903 141.100 C 38.860 140.552,38.825 140.948,38.824 141.979 M23.382 141.042 C 23.382 141.443,23.425 141.607,23.477 141.406 C 23.529 141.206,23.529 140.878,23.477 140.677 C 23.425 140.477,23.382 140.641,23.382 141.042 M150.881 153.489 L 161.033 153.546 161.096 157.450 L 161.159 161.354 161.153 157.396 L 161.146 153.438 150.938 153.434 L 140.729 153.431 150.881 153.489 M323.475 153.489 C 326.246 153.522,330.840 153.522,333.683 153.489 C 336.527 153.457,334.260 153.430,328.646 153.430 C 323.031 153.430,320.704 153.457,323.475 153.489 M289.534 154.106 C 289.793 154.156,290.168 154.154,290.367 154.101 C 290.566 154.049,290.354 154.009,289.896 154.011 C 289.438 154.013,289.275 154.056,289.534 154.106 M105.885 154.310 C 106.086 154.363,106.414 154.363,106.615 154.310 C 106.815 154.258,106.651 154.215,106.250 154.215 C 105.849 154.215,105.685 154.258,105.885 154.310 M358.909 154.314 C 359.168 154.364,359.543 154.362,359.742 154.310 C 359.941 154.258,359.729 154.217,359.271 154.219 C 358.813 154.222,358.650 154.264,358.909 154.314 M106.202 162.651 C 106.576 162.697,107.139 162.696,107.452 162.649 C 107.765 162.601,107.458 162.563,106.771 162.565 C 106.083 162.566,105.827 162.605,106.202 162.651 M288.285 162.651 C 288.659 162.697,289.222 162.696,289.535 162.649 C 289.848 162.601,289.542 162.563,288.854 162.565 C 288.167 162.566,287.911 162.605,288.285 162.651 M359.118 162.651 C 359.493 162.697,360.055 162.696,360.368 162.649 C 360.681 162.601,360.375 162.563,359.688 162.565 C 359.000 162.566,358.744 162.605,359.118 162.651 M11.667 167.357 C 11.667 167.393,11.971 167.697,12.344 168.034 L 13.021 168.646 12.409 167.969 C 11.839 167.338,11.667 167.196,11.667 167.357 M387.591 167.969 L 386.979 168.646 387.656 168.034 C 388.287 167.464,388.429 167.292,388.268 167.292 C 388.232 167.292,387.928 167.596,387.591 167.969 " stroke="none" fill="#d3d5d6" fill-rule="evenodd"></path><path id="path7" d="M48.400 128.958 C 48.400 129.703,48.438 130.008,48.484 129.635 C 48.530 129.263,48.530 128.654,48.484 128.281 C 48.438 127.909,48.400 128.214,48.400 128.958 M66.735 140.729 C 66.736 141.531,66.774 141.834,66.819 141.402 C 66.864 140.969,66.863 140.313,66.817 139.943 C 66.771 139.573,66.734 139.927,66.735 140.729 " stroke="none" fill="#bcc3c3" fill-rule="evenodd"></path><path id="path8" d="M51.303 68.438 C 51.305 68.896,51.348 69.059,51.397 68.800 C 51.447 68.541,51.445 68.166,51.393 67.966 C 51.341 67.767,51.300 67.979,51.303 68.438 M51.298 71.042 C 51.298 71.443,51.341 71.607,51.394 71.406 C 51.446 71.206,51.446 70.878,51.394 70.677 C 51.341 70.477,51.298 70.641,51.298 71.042 " stroke="none" fill="#cbcccc" fill-rule="evenodd"></path></g></svg>