<?xml version="1.0" standalone="no"?>
<!DOCTYPE svg PUBLIC "-//W3C//DTD SVG 20010904//EN"
 "http://www.w3.org/TR/2001/REC-SVG-20010904/DTD/svg10.dtd">
<svg version="1.0" xmlns="http://www.w3.org/2000/svg"
 width="1000.000000pt" height="1000.000000pt" viewBox="0 0 1000.000000 1000.000000"
 preserveAspectRatio="xMidYMid meet">

<g transform="translate(0.000000,1000.000000) scale(0.100000,-0.100000)"
fill="#000000" stroke="none">
<path d="M3598 7439 c-259 -38 -500 -186 -639 -391 -56 -82 -115 -208 -141
-303 l-23 -80 -3 -1370 c-2 -974 0 -1393 8 -1450 58 -412 383 -737 795 -795
57 -8 473 -10 1440 -8 l1360 3 80 23 c338 95 587 347 677 683 l22 84 4 1345
c2 904 0 1375 -8 1437 -25 218 -117 407 -272 559 -131 129 -258 200 -448 251
-60 16 -167 17 -1430 19 -751 1 -1391 -2 -1422 -7z m2802 -252 c36 -10 103
-36 150 -59 69 -33 101 -57 176 -132 75 -75 99 -107 132 -176 83 -171 77 -57
77 -1570 0 -1512 4 -1419 -75 -1578 -71 -141 -174 -243 -315 -312 -162 -81
-45 -75 -1565 -75 -1283 0 -1358 1 -1420 18 -249 71 -437 259 -507 507 -17 61
-18 141 -18 1430 0 1531 -6 1412 75 1575 106 216 305 356 548 385 37 4 654 7
1372 6 1207 -2 1310 -3 1370 -19z"/>
<path d="M4991 5783 c-24 -49 -64 -121 -89 -162 l-46 -73 13 -89 c21 -146 15
-138 125 -196 54 -29 124 -73 157 -98 l59 -45 54 84 c119 184 224 391 289 573
l26 71 -102 6 c-56 3 -179 8 -272 11 l-170 6 -44 -88z"/>
<path d="M4644 5279 c-115 -180 -183 -320 -255 -527 -21 -63 -39 -115 -39
-117 0 -3 262 -15 398 -17 l112 -2 39 81 c21 44 58 110 81 147 l42 66 -18 47
c-15 40 -88 141 -277 387 l-23 29 -60 -94z"/>
</g>
</svg>
